{"glyphs":{"0":{"ha":896,"x_min":28,"x_max":868,"o":"m 28 521 q 53 736 28 638 q 130 906 78 835 q 261 1016 182 976 q 449 1056 340 1056 q 634 1016 556 1056 q 765 906 713 976 q 842 736 817 835 q 868 521 868 638 q 845 291 868 390 q 772 124 822 192 q 641 21 721 56 q 449 -14 561 -14 q 255 21 335 -14 q 124 124 175 56 q 51 291 74 192 q 28 521 28 390 m 271 522 q 278 394 271 451 q 306 296 286 336 q 360 233 326 256 q 449 211 394 211 q 537 233 503 211 q 591 296 571 256 q 619 394 611 336 q 626 522 626 451 q 621 654 626 593 q 597 761 615 715 q 542 833 578 807 q 449 860 507 860 q 355 833 390 860 q 301 761 319 807 q 276 654 282 715 q 271 522 271 593 z "},"1":{"ha":507,"x_min":21,"x_max":472,"o":"m 222 563 q 218 651 222 607 q 208 739 214 694 q 178 722 193 732 q 150 701 164 713 q 135 694 146 697 q 108 691 124 690 q 74 701 92 692 q 40 735 57 711 q 22 778 24 758 q 27 814 21 799 q 42 839 33 829 q 56 851 51 849 q 98 881 78 869 q 138 908 118 893 q 160 931 151 919 q 177 956 168 943 q 198 983 186 969 q 229 1011 210 997 q 270 1033 244 1025 q 333 1042 296 1042 q 402 1031 375 1042 q 445 1004 429 1021 q 467 967 461 988 q 472 928 472 947 q 468 826 472 874 q 458 735 464 779 q 449 649 453 692 q 444 563 444 607 l 444 479 q 449 392 444 435 q 458 306 453 350 q 468 215 464 263 q 472 114 472 168 q 467 74 472 94 q 445 38 461 54 q 402 10 429 21 q 333 0 375 0 q 263 11 290 0 q 221 40 236 22 q 200 77 206 57 q 194 117 194 97 q 199 211 194 165 q 208 302 203 257 q 218 391 214 347 q 222 479 222 435 l 222 563 z "},"2":{"ha":739,"x_min":29,"x_max":710,"o":"m 457 757 q 451 785 457 768 q 434 819 446 803 q 403 848 422 836 q 357 860 385 860 q 314 852 335 860 q 273 832 293 844 q 233 805 253 819 q 194 778 214 790 q 144 763 169 761 q 97 778 118 764 q 63 816 76 793 q 49 866 50 839 q 63 920 49 893 q 110 968 76 947 q 219 1028 161 1000 q 357 1056 278 1056 q 484 1038 424 1056 q 589 984 544 1021 q 660 889 633 947 q 686 749 686 831 q 661 624 686 676 q 597 530 636 571 q 512 458 558 489 q 423 395 465 426 q 348 331 381 364 q 304 254 315 297 l 304 251 q 328 250 315 250 q 356 250 340 250 l 369 250 q 444 254 414 250 q 499 264 475 258 q 546 274 524 269 q 596 278 568 278 q 635 272 615 278 q 672 251 656 267 q 699 208 689 235 q 710 139 710 181 q 699 69 710 96 q 670 26 688 42 q 633 6 653 11 q 593 0 613 0 q 549 4 571 0 q 503 14 528 8 q 446 24 478 19 q 369 28 414 28 l 356 28 q 281 24 311 28 q 229 14 251 19 q 188 4 207 8 q 146 0 169 0 q 106 6 126 0 q 69 26 86 11 q 40 69 51 42 q 29 139 29 96 q 42 215 29 186 q 103 378 64 313 q 188 489 142 443 q 281 566 233 535 q 368 625 329 597 q 432 683 407 653 q 457 757 457 714 z "},"3":{"ha":776,"x_min":26,"x_max":749,"o":"m 349 469 q 306 467 325 469 q 270 460 288 464 q 235 453 253 456 q 194 450 218 450 q 124 474 156 450 q 92 563 93 499 q 100 616 92 594 q 122 651 108 638 q 154 669 136 664 q 192 675 172 675 q 230 672 213 675 q 264 665 247 669 q 297 658 281 661 q 335 656 314 656 q 415 664 385 656 q 462 687 446 672 q 483 724 478 701 q 488 772 488 746 q 478 814 488 797 q 453 841 468 831 q 421 856 439 851 q 386 860 403 860 q 333 853 358 860 q 284 835 307 846 q 239 813 261 825 q 196 792 217 801 q 117 789 154 774 q 62 836 81 804 q 52 909 43 868 q 111 982 61 950 q 170 1012 136 999 q 240 1035 204 1025 q 315 1050 276 1044 q 386 1056 353 1056 q 517 1039 457 1056 q 622 989 578 1022 q 690 906 665 956 q 715 790 715 857 q 708 721 715 751 q 685 665 700 690 q 649 620 671 640 q 601 581 628 600 q 665 547 638 569 q 712 492 693 524 q 740 421 731 460 q 749 340 749 382 q 724 197 749 263 q 652 85 699 132 q 537 13 606 39 q 381 -14 468 -14 q 197 30 276 -14 q 65 135 118 74 q 31 203 36 169 q 38 265 26 238 q 76 313 50 293 q 131 338 101 332 q 192 335 161 344 q 247 296 224 325 q 303 242 271 268 q 381 215 336 215 q 419 219 397 215 q 460 238 442 224 q 492 278 479 251 q 506 349 506 304 q 494 392 506 371 q 463 431 483 414 q 414 459 443 449 q 349 469 385 469 z "},"4":{"ha":819,"x_min":29,"x_max":794,"o":"m 464 563 q 460 651 464 607 q 450 740 456 694 q 440 831 444 785 q 436 925 436 876 q 442 965 436 944 q 463 1002 447 985 q 505 1031 478 1019 q 575 1042 532 1042 q 644 1031 617 1042 q 687 1004 671 1021 q 708 967 703 988 q 714 928 714 947 q 710 826 714 874 q 700 735 706 779 q 690 649 694 692 q 686 563 686 607 l 686 500 l 694 500 q 732 497 714 500 q 764 480 750 493 q 786 442 778 467 q 794 375 794 417 q 787 313 794 336 q 767 275 779 289 q 738 256 754 261 q 706 250 722 251 q 711 185 708 218 q 714 114 714 151 q 708 74 714 94 q 687 38 703 54 q 644 10 671 21 q 575 0 617 0 q 505 11 532 0 q 463 40 478 22 q 442 77 447 57 q 436 117 436 97 q 440 199 436 160 q 447 278 443 239 l 357 278 q 280 273 308 278 q 232 263 251 268 q 163 250 207 247 q 130 253 146 250 q 101 263 114 256 q 57 290 72 274 q 35 325 42 306 q 29 365 29 344 q 32 401 29 385 q 45 447 38 431 q 61 482 53 464 q 78 526 69 500 q 96 596 88 551 l 122 736 q 131 807 131 781 q 128 853 131 833 q 125 892 126 874 q 129 939 124 911 q 140 980 133 958 q 164 1019 147 1001 q 208 1044 181 1036 q 278 1044 235 1053 q 346 1019 322 1036 q 379 979 369 1001 q 388 934 389 957 q 385 892 388 911 q 373 853 381 869 q 357 819 365 838 q 339 773 349 800 q 321 701 329 746 l 297 561 q 290 513 292 533 q 288 476 288 493 q 357 472 315 472 l 464 472 l 464 479 l 464 563 z "},"5":{"ha":790,"x_min":26,"x_max":763,"o":"m 374 489 l 238 489 q 223 488 231 488 q 207 488 215 488 q 192 488 199 488 q 178 489 185 488 q 157 492 171 489 q 92 524 108 501 q 75 564 75 546 q 89 639 75 597 q 103 724 103 681 l 103 799 q 103 810 103 804 q 101 821 103 815 q 81 858 89 835 q 72 917 72 881 q 73 938 72 928 q 75 957 74 949 q 92 1003 75 982 q 131 1033 107 1026 q 178 1042 154 1040 q 192 1043 185 1043 q 207 1043 199 1043 q 264 1037 240 1043 q 303 1019 288 1031 q 385 1014 331 1014 l 417 1014 q 488 1018 461 1014 q 533 1028 514 1022 q 569 1038 551 1033 q 615 1042 588 1042 q 655 1038 635 1042 q 692 1022 675 1035 q 719 983 708 1008 q 729 917 729 958 q 718 849 729 874 q 690 811 707 824 q 652 795 672 799 q 613 792 632 792 q 574 796 590 792 q 537 806 557 800 q 489 815 517 811 q 417 819 461 819 l 385 819 q 311 815 340 819 l 311 799 l 311 724 q 312 705 311 714 q 314 686 313 696 l 382 686 q 763 340 763 686 q 738 197 763 263 q 666 85 713 132 q 551 13 619 39 q 394 -14 482 -14 q 294 -2 343 -14 q 203 30 246 10 q 126 77 161 50 q 65 135 92 104 q 31 203 36 169 q 38 265 26 238 q 76 313 50 293 q 131 338 101 332 q 192 335 161 344 q 247 296 224 325 q 310 242 271 268 q 394 215 350 215 q 433 219 411 215 q 474 238 456 224 q 506 278 493 251 q 519 349 519 304 q 516 396 519 371 q 498 442 513 421 q 454 476 483 463 q 374 489 425 489 z "},"6":{"ha":835,"x_min":28,"x_max":807,"o":"m 724 968 q 771 920 757 947 q 784 866 785 893 q 770 816 783 839 q 736 778 757 793 q 690 763 715 764 q 639 778 664 761 q 577 817 603 801 q 529 843 551 833 q 487 856 507 853 q 442 860 467 860 q 371 843 400 860 q 323 797 342 826 q 294 726 304 767 q 278 640 283 686 q 424 686 347 686 q 563 674 494 686 q 686 626 632 661 q 774 525 740 590 q 807 354 807 460 q 712 82 807 178 q 411 -14 617 -14 q 247 13 318 -14 q 126 97 175 39 q 53 250 78 156 q 28 479 28 344 q 52 748 28 638 q 126 926 76 858 q 255 1025 176 994 q 442 1056 333 1056 q 542 1048 500 1056 q 615 1028 583 1040 q 673 1000 647 1015 q 724 968 699 985 m 272 400 q 309 256 279 301 q 411 211 339 211 q 531 249 497 211 q 565 356 565 288 q 553 421 565 396 q 519 460 540 446 q 474 478 499 474 q 424 483 449 483 q 344 466 383 483 q 272 400 304 449 z "},"7":{"ha":746,"x_min":25,"x_max":722,"o":"m 344 606 q 374 711 363 658 q 397 819 385 764 l 393 819 l 351 819 q 277 815 307 819 q 225 806 247 811 q 184 796 203 800 q 142 792 165 792 q 102 795 122 792 q 65 811 82 799 q 36 849 47 824 q 25 917 25 874 q 35 983 25 958 q 63 1022 46 1008 q 99 1038 79 1035 q 139 1042 119 1042 q 187 1038 167 1042 q 228 1028 207 1033 q 278 1018 250 1022 q 351 1014 307 1014 l 393 1014 q 466 1018 438 1014 q 516 1028 494 1022 q 558 1038 538 1033 q 606 1042 578 1042 q 642 1039 624 1042 q 676 1026 660 1036 q 703 997 692 1017 q 718 946 714 978 q 721 915 722 931 q 717 886 719 900 q 697 831 713 853 q 629 676 664 744 q 567 529 594 607 l 540 447 q 516 361 526 404 q 496 273 506 318 q 475 181 486 228 q 446 81 464 133 q 426 43 440 61 q 391 15 413 25 q 340 3 369 4 q 269 15 310 1 q 206 49 229 29 q 174 91 183 69 q 165 135 164 113 q 171 176 165 157 q 206 268 188 225 q 244 353 225 311 q 283 438 264 396 q 315 524 301 479 l 344 606 z "},"8":{"ha":844,"x_min":28,"x_max":817,"o":"m 454 1056 q 585 1039 525 1056 q 690 989 646 1022 q 758 906 733 956 q 783 790 783 857 q 776 721 783 751 q 753 665 768 690 q 717 620 739 640 q 669 581 696 600 q 733 547 706 569 q 780 492 761 524 q 808 421 799 460 q 817 340 817 382 q 792 197 817 263 q 720 85 767 132 q 605 13 674 39 q 449 -14 536 -14 l 396 -14 q 240 13 308 -14 q 124 85 171 39 q 53 197 78 132 q 28 340 28 263 q 65 491 28 424 q 175 581 103 558 q 127 620 149 600 q 91 665 106 640 q 69 721 76 690 q 61 790 61 751 q 86 906 61 857 q 155 989 111 956 q 259 1039 199 1022 q 390 1056 319 1056 l 454 1056 m 289 772 q 293 726 289 747 q 312 690 297 706 q 353 666 326 675 q 422 656 379 657 q 492 666 467 657 q 533 690 518 675 q 551 726 547 706 q 556 772 556 747 q 544 814 556 797 q 515 841 532 831 q 477 856 497 851 q 440 860 457 860 l 404 860 q 367 856 388 860 q 330 841 347 851 q 301 814 313 831 q 289 772 289 797 m 425 215 q 474 219 447 215 q 522 238 500 224 q 559 278 544 251 q 574 349 574 304 q 567 392 574 371 q 542 431 560 414 q 496 458 525 447 q 422 469 467 469 q 349 458 378 469 q 302 431 319 447 q 278 392 285 414 q 271 349 271 371 q 286 278 271 304 q 324 238 301 251 q 374 219 347 224 q 424 215 401 215 l 425 215 z "},"9":{"ha":821,"x_min":28,"x_max":793,"o":"m 111 74 q 65 125 78 96 q 52 184 51 154 q 65 241 53 214 q 99 285 78 268 q 145 305 119 301 q 196 292 171 308 q 256 252 232 268 q 299 227 279 236 q 336 214 318 218 q 379 210 354 210 q 449 224 421 210 q 497 264 478 239 q 527 324 517 289 q 543 401 538 360 q 397 356 474 356 q 260 368 326 356 q 142 416 194 381 q 59 517 90 451 q 28 688 28 582 q 47 845 28 776 q 109 960 65 914 q 223 1031 153 1007 q 396 1056 293 1056 q 586 1022 510 1056 q 708 924 663 988 q 774 769 754 860 q 793 563 793 678 q 769 294 793 404 q 694 115 744 183 q 566 17 644 47 q 379 -14 488 -14 q 281 -7 321 -14 q 213 13 242 0 q 160 41 183 25 q 111 74 136 57 m 549 643 q 538 751 546 708 q 512 817 529 793 q 467 849 494 840 q 396 858 439 858 q 328 844 353 858 q 290 807 303 831 q 273 752 276 783 q 269 686 269 721 q 280 621 269 646 q 308 582 290 596 q 349 563 326 568 q 397 558 372 558 q 477 576 438 558 q 549 643 517 593 z "},"\u0000":{"ha":0,"x_min":0,"x_max":0,"o":""},"\r":{"ha":347,"x_min":0,"x_max":0,"o":""}," ":{"ha":361,"x_min":0,"x_max":0,"o":""},"!":{"ha":361,"x_min":28,"x_max":333,"o":"m 57 713 q 48 771 53 744 q 39 824 43 797 q 31 881 35 851 q 28 951 28 911 q 64 1037 28 1004 q 181 1069 100 1069 q 297 1038 260 1069 q 333 953 333 1007 q 330 878 333 910 q 322 822 326 847 q 313 770 318 796 q 304 713 308 744 l 294 632 q 288 506 288 568 q 289 386 289 444 q 285 352 289 369 q 269 319 281 335 q 236 294 257 304 q 181 285 215 285 q 124 294 146 285 q 92 320 103 304 q 76 354 81 336 q 72 389 72 372 q 73 503 72 438 q 67 632 74 568 l 57 713 m 43 107 q 78 193 43 161 q 179 225 113 225 q 281 193 246 225 q 315 107 315 161 q 281 19 315 51 q 179 -12 246 -12 q 78 19 113 -12 q 43 107 43 51 z "},"\"":{"ha":472,"x_min":28,"x_max":444,"o":"m 50 739 q 47 799 50 767 q 39 864 43 832 q 31 926 35 896 q 28 978 28 956 q 51 1022 28 1001 q 125 1042 75 1042 q 198 1022 174 1042 q 222 978 222 1001 q 219 926 222 956 q 210 863 215 896 q 202 798 206 831 q 199 738 199 765 q 183 702 199 722 q 125 682 168 682 q 66 702 82 682 q 50 739 50 722 m 272 739 q 269 799 272 767 q 261 864 265 832 q 253 926 257 896 q 250 978 250 956 q 274 1022 250 1001 q 347 1042 297 1042 q 420 1022 396 1042 q 444 978 444 1001 q 441 926 444 956 q 433 863 438 896 q 424 798 428 831 q 421 738 421 765 q 406 702 421 722 q 347 682 390 682 q 288 702 304 682 q 272 739 272 722 z "},"#":{"ha":1061,"x_min":21,"x_max":1040,"o":"m 254 626 q 175 622 211 624 q 119 619 139 619 q 53 647 83 619 q 22 739 24 674 q 51 831 21 803 q 117 858 81 858 q 188 856 143 858 q 281 850 232 853 q 288 917 283 883 q 300 988 293 951 q 315 1025 304 1007 q 344 1056 325 1043 q 390 1074 363 1069 q 458 1071 418 1079 q 521 1047 497 1063 q 557 1010 544 1031 q 572 969 569 990 q 571 929 575 949 q 561 884 565 906 q 550 842 557 863 l 610 842 q 627 842 617 842 q 649 843 638 842 q 656 915 651 879 q 669 988 661 950 q 684 1025 674 1007 q 713 1056 694 1043 q 760 1074 732 1069 q 828 1071 789 1079 q 892 1047 868 1063 q 927 1010 915 1031 q 942 969 939 990 q 940 929 944 949 q 924 858 932 892 l 943 858 q 1010 831 981 858 q 1039 739 1040 803 q 1008 647 1038 674 q 940 619 978 619 q 904 620 928 619 q 853 624 881 621 q 848 601 850 613 q 843 578 846 589 l 813 436 q 888 440 853 439 q 943 442 922 442 q 1010 414 981 442 q 1039 322 1040 386 q 1008 230 1038 257 q 940 203 978 203 q 876 206 919 203 q 782 211 832 208 q 774 128 779 171 q 760 38 769 86 q 744 1 756 19 q 715 -31 733 -18 q 667 -48 696 -43 q 600 -43 639 -53 q 537 -17 561 -33 q 501 20 513 0 q 486 62 489 40 q 488 101 483 83 q 502 163 494 133 q 518 219 510 192 l 451 219 q 435 219 444 219 q 413 218 425 218 q 404 132 410 176 q 389 38 399 88 q 374 1 385 19 q 345 -31 364 -18 q 298 -48 326 -43 q 231 -43 269 -53 q 167 -17 192 -33 q 131 20 143 0 q 117 62 119 40 q 118 101 114 83 q 143 203 128 154 l 119 203 q 53 230 83 203 q 22 322 24 257 q 51 414 21 386 q 117 442 81 442 q 213 438 153 442 q 214 444 214 440 q 215 450 214 447 l 254 626 m 624 626 q 624 631 624 629 q 625 636 625 633 l 610 636 l 486 636 q 478 607 482 621 q 472 578 475 593 l 440 425 l 581 425 q 583 438 582 432 q 586 450 585 443 l 624 626 z "},"$":{"ha":799,"x_min":31,"x_max":767,"o":"m 336 499 q 231 557 279 529 q 149 618 183 585 q 94 693 114 651 q 75 790 75 735 q 94 888 75 844 q 144 964 113 932 q 220 1017 176 996 q 315 1047 264 1038 l 315 1050 q 315 1090 315 1069 q 324 1127 315 1110 q 352 1156 332 1144 q 413 1167 372 1167 q 473 1156 453 1167 q 501 1129 493 1146 q 510 1092 510 1113 q 510 1053 510 1072 l 510 1046 q 603 1013 564 1035 q 679 968 643 992 q 726 920 713 947 q 740 866 740 893 q 726 816 739 839 q 692 778 713 793 q 646 763 671 764 q 594 778 621 761 q 551 808 574 792 q 501 836 528 824 q 496 740 499 788 q 490 650 493 692 q 588 597 539 625 q 677 530 638 568 q 742 439 717 492 q 767 313 767 386 q 707 97 767 178 q 508 -7 647 15 q 510 -52 510 -31 q 510 -94 510 -74 q 510 -134 510 -114 q 501 -171 510 -154 q 473 -198 493 -187 q 413 -208 453 -208 q 352 -197 372 -208 q 324 -169 332 -186 q 315 -131 315 -151 q 315 -92 315 -111 q 316 -51 315 -72 q 318 -6 317 -29 q 174 48 239 10 q 69 135 110 86 q 35 203 40 169 q 42 265 31 238 q 80 313 54 293 q 135 338 106 332 q 197 335 165 344 q 251 296 228 325 q 331 235 281 260 q 335 306 333 272 q 336 368 336 340 l 336 499 m 276 806 q 291 766 276 783 q 331 733 306 749 q 327 792 328 763 q 324 853 326 822 q 276 806 276 842 m 489 368 q 490 301 489 338 q 494 224 492 264 q 535 247 519 231 q 551 297 551 264 q 538 359 551 333 q 489 411 525 385 l 489 368 z "},"%":{"ha":1222,"x_min":28,"x_max":1194,"o":"m 550 615 q 619 729 588 674 q 678 836 650 785 q 731 935 706 888 q 782 1022 756 982 q 808 1051 793 1038 q 843 1071 822 1065 q 891 1071 864 1076 q 953 1042 918 1065 q 1001 994 986 1018 q 1019 949 1017 971 q 1016 906 1022 926 q 999 871 1010 886 q 937 783 969 826 q 869 695 904 740 q 796 601 833 650 q 719 493 758 551 l 675 424 q 546 200 600 307 q 435 4 492 93 q 409 -26 425 -12 q 372 -45 393 -40 q 325 -44 351 -50 q 265 -14 299 -37 q 217 35 232 11 q 199 81 201 58 q 204 124 197 104 q 221 160 211 143 q 281 243 247 200 q 351 334 314 286 q 428 435 389 382 q 504 546 467 488 l 550 615 m 28 794 q 41 890 28 843 q 84 974 54 936 q 162 1034 114 1011 q 278 1057 210 1057 q 392 1034 344 1057 q 469 974 439 1011 q 514 890 500 936 q 528 794 528 843 q 517 695 528 746 q 479 603 507 644 q 403 536 451 563 q 278 510 354 510 q 153 536 201 510 q 76 603 104 563 q 38 695 49 644 q 28 794 28 746 m 181 794 q 185 743 181 768 q 200 700 189 718 q 230 671 211 682 q 278 660 249 660 q 326 671 307 660 q 356 700 344 682 q 372 743 367 718 q 376 794 376 768 q 373 845 376 821 q 359 888 369 869 q 329 916 349 906 q 278 926 310 926 q 227 916 246 926 q 198 888 208 906 q 184 845 188 869 q 181 794 181 821 m 694 271 q 708 366 694 319 q 751 450 721 413 q 828 510 781 488 q 944 533 876 533 q 1058 510 1011 533 q 1136 450 1106 488 q 1181 366 1167 413 q 1194 271 1194 319 q 1184 172 1194 222 q 1146 80 1174 121 q 1069 13 1118 39 q 944 -14 1021 -14 q 819 13 868 -14 q 743 80 771 39 q 705 172 715 121 q 694 271 694 222 m 847 271 q 851 219 847 244 q 867 176 856 194 q 897 147 878 158 q 944 136 915 136 q 992 147 974 136 q 1022 176 1011 158 q 1038 219 1033 194 q 1043 271 1043 244 q 1040 322 1043 297 q 1026 364 1036 346 q 996 392 1015 382 q 944 403 976 403 q 894 392 913 403 q 865 364 875 382 q 851 322 854 346 q 847 271 847 297 z "},"&":{"ha":919,"x_min":21,"x_max":903,"o":"m 108 817 q 138 927 108 882 q 210 1001 167 972 q 308 1042 254 1029 q 408 1056 361 1056 q 531 1033 479 1056 q 615 974 582 1011 q 663 888 647 936 q 679 790 679 840 q 662 717 679 753 q 617 649 644 682 q 552 589 589 617 q 475 538 515 561 q 498 513 486 525 q 522 486 510 500 q 577 431 549 458 q 635 378 606 404 q 677 442 657 410 q 717 507 697 475 q 771 548 736 542 q 834 540 806 554 q 876 492 863 525 q 868 415 890 460 q 826 338 849 376 q 779 263 804 300 q 819 232 803 244 q 847 213 836 219 q 897 142 890 183 q 885 66 903 100 q 833 14 867 32 q 760 14 799 -4 q 714 45 743 22 q 646 103 685 68 l 644 104 q 523 19 586 51 q 389 -14 460 -14 q 233 13 301 -14 q 117 85 164 39 q 46 197 71 132 q 21 340 21 263 q 66 486 21 421 q 189 592 111 551 q 127 710 146 657 q 108 817 108 764 m 365 672 q 465 731 424 700 q 507 803 507 763 q 495 847 507 831 q 468 872 483 863 q 438 883 453 881 q 414 886 422 886 q 343 869 375 886 q 311 813 311 853 q 325 747 311 781 q 365 672 339 713 m 303 447 q 256 402 274 428 q 238 340 238 376 q 242 295 238 319 q 261 249 246 271 q 308 213 276 228 q 394 199 339 199 q 504 238 450 199 q 401 340 451 288 q 303 447 351 393 z "},"'":{"ha":244,"x_min":25,"x_max":219,"o":"m 47 739 q 44 799 47 767 q 36 864 40 832 q 28 926 32 896 q 25 978 25 956 q 49 1022 25 1001 q 122 1042 72 1042 q 195 1022 171 1042 q 219 978 219 1001 q 216 926 219 956 q 208 863 213 896 q 199 798 203 831 q 196 738 196 765 q 181 702 196 722 q 122 682 165 682 q 63 702 79 682 q 47 739 47 722 z "},"(":{"ha":471,"x_min":21,"x_max":453,"o":"m 376 1194 q 431 1171 410 1194 q 447 1113 453 1147 q 424 1060 444 1088 q 376 999 403 1032 q 328 909 347 961 q 299 794 310 857 q 283 663 288 732 q 278 522 278 593 q 283 377 278 451 q 299 232 288 303 q 328 99 310 161 q 376 -11 347 36 q 407 -59 394 -40 q 428 -93 419 -78 q 442 -123 438 -108 q 449 -157 447 -137 q 444 -181 449 -167 q 429 -207 439 -194 q 406 -228 419 -219 q 376 -236 393 -236 q 265 -203 315 -236 q 174 -112 214 -169 q 106 20 135 -56 q 58 180 76 96 q 30 351 39 264 q 21 521 21 439 q 44 764 21 643 q 111 981 67 885 q 222 1135 156 1076 q 376 1194 289 1194 z "},")":{"ha":471,"x_min":18,"x_max":450,"o":"m 94 1194 q 249 1135 182 1194 q 360 981 315 1076 q 427 764 404 885 q 450 521 450 643 q 441 351 450 439 q 413 180 432 264 q 365 20 394 96 q 297 -112 336 -56 q 206 -203 257 -169 q 94 -236 156 -236 q 65 -228 78 -236 q 42 -207 51 -219 q 27 -181 32 -194 q 22 -157 22 -167 q 28 -123 24 -137 q 42 -93 33 -108 q 64 -59 51 -78 q 94 -11 76 -40 q 142 99 124 36 q 172 232 161 161 q 188 377 183 303 q 193 522 193 451 q 188 663 193 593 q 172 794 183 732 q 142 909 161 857 q 94 999 124 961 q 47 1060 68 1032 q 24 1113 26 1088 q 40 1171 18 1147 q 94 1194 61 1194 z "},"*":{"ha":642,"x_min":22,"x_max":619,"o":"m 185 719 q 133 715 157 717 q 97 713 110 713 q 76 713 89 713 q 51 722 63 714 q 31 746 40 729 q 22 794 22 763 q 30 843 22 826 q 49 867 38 860 q 74 876 61 875 q 94 876 86 876 q 135 875 113 876 q 185 871 158 874 q 154 911 168 893 q 133 940 140 929 q 123 958 129 947 q 117 983 117 969 q 126 1013 117 996 q 163 1047 136 1029 q 207 1067 189 1064 q 238 1063 225 1069 q 258 1047 250 1057 q 271 1029 265 1038 q 294 989 282 1014 q 321 936 306 964 q 349 989 336 964 q 372 1029 361 1014 q 385 1047 378 1038 q 406 1063 393 1057 q 436 1067 418 1069 q 481 1047 454 1064 q 517 1013 508 1029 q 526 983 526 996 q 520 958 526 969 q 510 940 514 947 q 489 911 503 929 q 458 871 475 893 q 508 875 485 874 q 547 876 531 876 q 569 876 556 876 q 593 867 582 875 q 612 843 604 860 q 619 794 619 826 q 610 746 619 763 q 590 722 601 729 q 566 713 579 714 q 544 713 553 713 q 509 714 532 713 q 458 718 486 715 q 488 679 474 697 q 511 646 501 661 q 522 626 515 638 q 528 602 528 615 q 518 573 528 589 q 481 540 508 557 q 434 522 453 524 q 403 526 415 519 q 383 542 390 532 q 371 561 375 553 q 351 599 364 574 q 322 654 338 625 q 293 599 307 625 q 272 561 279 574 q 260 542 268 553 q 240 526 253 532 q 209 522 228 519 q 163 540 190 524 q 126 573 136 557 q 115 602 115 589 q 122 626 115 615 q 132 646 128 638 q 156 680 142 661 q 185 719 169 699 z "},"+":{"ha":697,"x_min":22,"x_max":675,"o":"m 257 433 q 190 425 224 429 q 125 421 157 421 q 55 444 86 421 q 22 531 24 467 q 31 583 22 563 q 53 617 39 604 q 85 635 67 629 q 122 640 103 640 q 191 636 158 640 q 256 628 224 632 q 247 692 251 660 q 243 754 243 725 q 247 792 243 774 q 263 824 251 810 q 296 848 275 839 q 349 857 317 857 q 401 849 381 857 q 433 826 421 840 q 449 794 444 813 q 454 757 454 776 q 451 690 454 721 q 443 628 447 658 q 507 636 475 632 q 575 640 539 640 q 613 635 594 640 q 644 617 631 629 q 667 583 658 604 q 675 531 675 563 q 642 444 674 467 q 572 421 611 421 q 508 425 540 421 q 442 433 475 429 q 450 365 446 400 q 454 290 454 331 q 449 253 454 271 q 433 221 444 235 q 401 199 421 207 q 349 190 381 190 q 296 199 317 190 q 263 223 275 208 q 247 256 251 238 q 243 293 243 274 q 249 362 243 326 q 257 433 254 397 z "},",":{"ha":314,"x_min":21,"x_max":293,"o":"m 63 -101 q 92 -47 81 -75 q 110 3 103 -19 q 42 31 64 3 q 21 107 21 58 q 54 199 21 172 q 143 225 88 225 q 203 220 176 225 q 251 201 231 215 q 282 162 271 188 q 293 93 293 136 q 267 -7 293 47 q 193 -111 242 -61 q 148 -140 176 -129 q 88 -150 119 -150 q 54 -137 61 -150 q 63 -101 47 -124 z "},"-":{"ha":600,"x_min":29,"x_max":571,"o":"m 300 361 q 215 353 253 361 q 132 344 178 344 q 62 370 93 344 q 29 461 31 396 q 38 515 29 493 q 60 551 46 538 q 92 572 74 565 q 129 578 110 578 q 178 575 157 578 q 219 569 200 572 q 257 564 238 567 q 300 561 276 561 l 300 561 q 343 564 324 561 q 381 569 363 567 q 422 575 400 572 q 471 578 443 578 q 508 572 490 578 q 540 551 526 565 q 563 515 554 538 q 571 461 571 493 q 538 370 569 396 q 468 344 507 344 q 426 347 446 344 q 385 353 406 350 q 344 358 365 356 q 300 361 324 361 z "},".":{"ha":314,"x_min":21,"x_max":293,"o":"m 21 107 q 56 193 21 161 q 157 225 90 225 q 258 193 224 225 q 293 107 293 161 q 258 19 293 51 q 157 -12 224 -12 q 56 19 90 -12 q 21 107 21 51 z "},"/":{"ha":644,"x_min":21,"x_max":622,"o":"m 222 624 q 276 840 256 731 q 333 1067 297 949 q 355 1111 340 1090 q 392 1145 369 1132 q 447 1160 415 1158 q 517 1147 478 1163 q 578 1108 556 1132 q 612 1058 601 1085 q 622 1005 622 1032 q 615 954 622 978 q 573 835 594 890 q 530 731 551 781 q 488 633 508 681 q 451 532 468 585 l 421 431 q 392 326 404 378 q 368 220 379 274 q 343 109 357 167 q 308 -12 329 51 q 287 -57 301 -36 q 249 -90 272 -78 q 196 -105 226 -103 q 126 -90 165 -107 q 65 -49 88 -74 q 31 1 42 -25 q 22 55 21 28 q 29 104 22 82 q 69 215 49 163 q 113 319 90 268 q 155 421 135 371 q 192 524 175 471 l 222 624 z "},":":{"ha":314,"x_min":21,"x_max":293,"o":"m 21 624 q 56 710 21 678 q 157 742 90 742 q 258 710 224 742 q 293 624 293 678 q 258 536 293 568 q 157 504 224 504 q 56 536 90 504 q 21 624 21 568 m 21 107 q 56 193 21 161 q 157 225 90 225 q 258 193 224 225 q 293 107 293 161 q 258 19 293 51 q 157 -12 224 -12 q 56 19 90 -12 q 21 107 21 51 z "},";":{"ha":314,"x_min":21,"x_max":293,"o":"m 21 624 q 56 710 21 678 q 157 742 90 742 q 258 710 224 742 q 293 624 293 678 q 258 536 293 568 q 157 504 224 504 q 56 536 90 504 q 21 624 21 568 m 63 -101 q 92 -47 81 -75 q 110 3 103 -19 q 42 31 64 3 q 21 107 21 58 q 54 199 21 172 q 143 225 88 225 q 203 220 176 225 q 251 201 231 215 q 282 162 271 188 q 293 93 293 136 q 267 -7 293 47 q 193 -111 242 -61 q 148 -140 176 -129 q 88 -150 119 -150 q 54 -137 61 -150 q 63 -101 47 -124 z "},"<":{"ha":624,"x_min":18,"x_max":604,"o":"m 340 533 q 321 521 331 526 q 301 508 311 515 q 321 495 311 501 q 340 482 331 489 l 386 450 q 469 401 425 425 q 553 351 514 376 q 581 328 568 342 q 599 298 593 315 q 601 260 604 281 q 581 211 597 239 q 547 172 564 185 q 512 158 529 160 q 477 163 494 156 q 444 179 460 169 q 361 240 397 211 q 285 296 325 269 l 239 326 q 158 373 200 351 q 71 426 117 394 q 34 460 50 442 q 21 507 18 479 q 34 554 18 535 q 71 589 50 574 q 158 642 117 621 q 239 689 200 664 l 285 719 q 361 775 325 746 q 444 836 397 804 q 477 853 460 847 q 512 858 494 860 q 547 843 529 856 q 581 804 564 831 q 601 756 597 778 q 599 717 604 735 q 581 688 593 700 q 553 664 568 675 q 469 615 514 639 q 386 565 425 590 l 340 533 z "},"=":{"ha":697,"x_min":22,"x_max":675,"o":"m 321 556 q 222 547 272 556 q 125 539 171 539 q 88 543 106 539 q 55 558 69 547 q 31 590 40 569 q 22 642 22 610 q 31 694 22 674 q 53 725 39 714 q 85 740 67 736 q 122 744 103 744 q 226 736 179 744 q 321 728 272 728 l 376 728 q 472 736 425 728 q 575 744 518 744 q 613 740 594 744 q 644 725 631 736 q 667 694 658 714 q 675 642 675 674 q 666 590 675 610 q 642 558 657 569 q 610 543 628 547 q 572 539 592 539 q 476 547 526 539 q 376 556 425 556 l 321 556 m 321 278 q 222 269 272 278 q 125 261 171 261 q 88 265 106 261 q 55 281 69 269 q 31 312 40 292 q 22 364 22 332 q 31 416 22 396 q 53 447 39 436 q 85 463 67 458 q 122 467 103 467 q 226 458 179 467 q 321 450 272 450 l 376 450 q 472 458 425 450 q 575 467 518 467 q 613 463 594 467 q 644 447 631 458 q 667 416 658 436 q 675 364 675 396 q 666 312 675 332 q 642 281 657 292 q 610 265 628 269 q 572 261 592 261 q 476 269 526 261 q 376 278 425 278 l 321 278 z "},">":{"ha":624,"x_min":19,"x_max":606,"o":"m 238 565 q 154 615 199 590 q 71 664 110 639 q 43 688 56 675 q 25 717 31 700 q 23 756 19 735 q 43 804 26 778 q 77 843 60 831 q 112 858 94 856 q 147 853 129 860 q 179 836 164 847 q 263 775 226 804 q 339 719 299 746 l 385 689 q 465 642 424 664 q 553 589 507 621 q 590 555 574 574 q 603 508 606 536 q 590 461 606 481 q 553 426 574 442 q 465 373 507 394 q 385 326 424 351 l 339 296 q 263 240 299 269 q 179 179 226 211 q 147 163 164 169 q 112 158 129 156 q 77 172 94 160 q 43 211 60 185 q 23 260 26 239 q 25 298 19 281 q 43 328 31 315 q 71 351 56 342 q 154 401 110 376 q 238 450 199 425 l 283 482 q 303 494 293 489 q 322 507 313 500 q 303 520 313 514 q 283 533 293 526 l 238 565 z "},"?":{"ha":721,"x_min":21,"x_max":700,"o":"m 471 771 q 435 849 471 824 q 343 874 399 874 q 297 866 321 874 q 251 846 274 858 q 208 819 229 833 q 167 792 186 804 q 116 776 142 775 q 69 792 90 778 q 35 830 49 807 q 22 880 22 853 q 35 934 21 907 q 82 982 49 961 q 206 1042 133 1014 q 357 1069 279 1069 q 495 1052 432 1069 q 604 998 558 1035 q 675 903 650 961 q 700 763 700 844 q 680 656 700 700 q 629 580 660 611 q 562 530 599 549 q 492 501 525 511 q 432 485 458 490 q 397 479 406 481 l 397 386 q 393 352 397 369 q 377 319 389 335 q 344 294 365 304 q 289 285 324 285 q 233 294 254 285 q 201 320 213 304 q 185 354 189 336 q 182 389 182 372 l 182 463 q 203 562 182 526 q 257 617 225 597 q 326 647 289 636 q 396 670 364 657 q 449 706 428 683 q 471 771 471 728 m 156 107 q 190 193 156 161 q 292 225 225 225 q 393 193 358 225 q 428 107 428 161 q 393 19 428 51 q 292 -12 358 -12 q 190 19 225 -12 q 156 107 156 51 z "},"@":{"ha":1393,"x_min":21,"x_max":1372,"o":"m 401 338 q 421 456 401 396 q 476 565 440 515 q 562 645 511 614 q 674 676 613 676 q 741 664 714 676 q 794 632 768 651 q 828 657 806 647 q 888 667 850 667 q 940 660 919 667 q 973 642 961 653 q 990 617 985 631 q 994 590 994 603 q 983 506 994 550 q 972 413 972 461 l 972 368 q 976 316 972 344 q 988 263 979 288 q 1010 221 996 238 q 1044 204 1024 204 q 1076 217 1061 204 q 1104 258 1092 229 q 1124 333 1117 286 q 1132 447 1132 379 q 1108 614 1132 539 q 1035 742 1085 689 q 906 824 985 796 q 718 853 828 853 q 524 810 608 853 q 381 697 439 767 q 292 537 322 626 q 263 356 263 447 q 297 176 263 263 q 391 22 331 89 q 535 -85 451 -44 q 718 -125 618 -125 q 798 -123 764 -125 q 862 -112 832 -121 q 919 -88 892 -104 q 979 -44 947 -72 q 1044 -13 1011 -18 q 1106 -20 1078 -8 q 1156 -56 1135 -32 q 1183 -110 1176 -81 q 1178 -173 1189 -140 q 1132 -233 1167 -206 q 945 -323 1051 -299 q 718 -347 839 -347 q 444 -299 572 -347 q 223 -160 317 -251 q 75 60 129 -69 q 21 354 21 190 q 72 633 21 504 q 216 855 124 761 q 437 1002 308 949 q 718 1056 565 1056 q 990 1013 868 1056 q 1196 890 1111 969 q 1326 699 1281 811 q 1372 446 1372 586 q 1353 297 1372 371 q 1292 166 1333 224 q 1188 73 1251 108 q 1036 38 1125 38 q 953 42 993 38 q 881 61 914 47 q 824 101 849 75 q 782 168 799 126 q 713 114 754 139 q 606 89 672 89 q 453 147 506 89 q 401 338 401 206 m 581 346 q 611 274 581 293 q 685 256 642 256 q 774 296 746 256 q 801 389 801 336 q 798 451 801 424 q 783 498 794 479 q 752 527 772 517 q 697 538 732 538 q 649 519 671 538 q 613 473 628 501 q 589 411 597 444 q 581 346 581 378 z "},"A":{"ha":917,"x_min":13,"x_max":904,"o":"m 340 243 q 317 167 331 207 q 282 75 304 128 q 247 24 271 47 q 179 0 222 0 q 108 17 150 0 q 49 55 69 33 q 20 99 28 76 q 15 144 13 122 q 26 185 18 167 q 176 574 110 379 q 311 972 243 768 q 361 1025 322 1004 q 458 1046 400 1046 q 556 1025 517 1046 q 606 972 594 1004 q 741 574 675 768 q 890 185 807 379 q 901 144 899 167 q 897 99 904 122 q 869 55 889 76 q 808 17 849 33 q 738 0 767 0 q 670 24 694 0 q 635 75 646 47 q 599 168 613 128 q 576 244 586 208 q 543 274 569 271 q 517 275 531 275 q 489 275 504 275 l 433 275 q 401 274 415 275 q 374 272 386 274 q 340 243 347 269 m 450 735 q 438 686 444 715 q 424 624 431 657 q 410 556 417 590 q 397 489 404 521 q 418 461 393 461 l 433 461 l 489 461 l 499 461 q 519 488 524 461 q 507 554 514 519 q 493 622 500 589 q 479 685 486 656 q 467 735 472 715 q 458 746 464 746 q 450 735 453 746 z "},"B":{"ha":821,"x_min":35,"x_max":793,"o":"m 63 563 q 58 651 63 607 q 49 740 54 694 q 39 831 43 785 q 35 925 35 876 q 40 965 35 944 q 62 1002 46 985 q 105 1031 78 1019 q 175 1042 132 1042 l 314 1042 q 484 1026 404 1042 q 624 976 564 1010 q 717 892 683 943 q 751 771 751 842 q 722 664 751 713 q 643 579 692 615 q 753 467 714 535 q 793 313 793 399 q 765 167 793 226 q 681 70 736 107 q 544 17 625 33 q 356 0 463 0 l 175 0 q 105 11 132 0 q 62 40 78 22 q 40 77 46 57 q 35 117 35 97 q 39 211 35 165 q 49 302 43 257 q 58 391 54 347 q 63 479 63 435 l 63 563 m 317 660 q 466 680 422 660 q 510 758 510 700 q 502 797 510 781 q 474 823 494 813 q 421 839 454 833 q 336 846 388 844 q 308 819 311 846 q 301 751 306 783 q 293 686 296 718 q 317 660 290 660 m 356 224 q 452 233 414 224 q 513 260 490 243 q 543 300 535 276 q 551 353 551 324 q 507 433 551 401 q 356 465 463 465 l 311 465 q 286 439 283 465 q 294 345 289 392 q 304 250 299 299 q 333 224 307 224 l 356 224 z "},"C":{"ha":825,"x_min":35,"x_max":799,"o":"m 578 268 q 621 302 597 292 q 669 313 644 313 q 734 295 703 313 q 782 249 765 278 q 796 183 799 219 q 760 107 793 146 q 635 16 707 46 q 460 -14 564 -14 q 260 23 342 -14 q 129 128 179 60 q 57 297 79 197 q 35 521 35 396 q 58 724 35 628 q 133 894 82 821 q 265 1012 185 968 q 460 1056 346 1056 q 546 1050 510 1056 q 611 1035 582 1044 q 665 1012 640 1025 q 715 982 690 999 q 769 920 758 956 q 772 853 781 885 q 737 799 763 821 q 679 776 711 776 q 631 792 657 776 q 554 839 592 818 q 460 860 517 860 q 365 833 401 860 q 310 761 329 807 q 284 654 290 715 q 278 522 278 593 q 286 394 278 451 q 315 296 294 336 q 371 233 336 256 q 460 211 406 211 q 529 226 504 211 q 578 268 554 240 z "},"D":{"ha":828,"x_min":35,"x_max":800,"o":"m 63 563 q 58 651 63 607 q 49 740 54 694 q 39 831 43 785 q 35 925 35 876 q 47 981 35 958 q 78 1017 58 1003 q 126 1036 99 1031 q 182 1042 153 1042 l 363 1042 q 551 1000 469 1042 q 688 888 632 958 q 772 722 743 817 q 800 521 800 628 q 694 135 800 271 q 363 0 589 0 l 181 0 q 124 6 151 0 q 78 25 97 11 q 47 61 58 39 q 35 117 35 83 q 39 211 35 165 q 49 302 43 257 q 58 391 54 347 q 63 479 63 435 l 63 563 m 363 225 q 514 303 469 225 q 558 522 558 381 q 550 652 558 593 q 519 754 542 711 q 459 822 497 797 q 363 846 421 846 l 336 846 q 308 819 311 846 q 293 690 301 750 q 285 563 285 629 l 285 479 q 291 366 285 421 q 304 251 297 311 q 333 225 307 225 l 363 225 z "},"E":{"ha":714,"x_min":35,"x_max":685,"o":"m 331 251 q 349 250 339 250 q 369 250 358 250 q 440 254 414 250 q 485 264 467 258 q 522 274 504 269 q 568 278 540 278 q 608 272 588 278 q 644 251 628 267 q 672 208 661 235 q 682 139 682 181 q 671 69 682 96 q 642 26 660 42 q 605 6 625 11 q 565 0 585 0 q 526 4 543 0 q 490 14 510 8 q 442 24 469 19 q 369 28 414 28 q 301 24 328 28 q 256 15 275 21 q 174 0 225 0 q 75 27 115 0 q 35 117 35 54 q 39 211 35 165 q 49 302 43 257 q 58 391 54 347 q 63 479 63 435 l 63 563 q 58 651 63 607 q 49 740 54 694 q 39 831 43 785 q 35 925 35 876 q 39 960 35 942 q 55 994 43 979 q 87 1022 67 1010 q 139 1039 107 1035 q 156 1042 147 1042 q 174 1042 165 1042 q 244 1031 215 1042 q 292 1019 265 1024 q 372 1014 319 1014 q 443 1018 417 1014 q 488 1028 469 1022 q 525 1038 507 1033 q 571 1042 543 1042 q 610 1038 590 1042 q 647 1022 631 1035 q 674 983 664 1008 q 685 917 685 958 q 674 849 685 874 q 645 811 663 824 q 608 795 628 799 q 568 792 588 792 q 529 796 546 792 q 492 806 513 800 q 444 815 472 811 q 372 819 417 819 q 351 819 361 819 q 333 818 342 818 q 304 790 307 815 q 298 728 301 758 q 292 667 294 697 q 315 639 289 639 l 331 639 q 401 643 375 639 q 447 653 428 647 q 483 663 465 658 q 529 667 501 667 q 569 662 549 667 q 606 643 589 657 q 633 603 622 629 q 643 535 643 576 q 632 466 643 492 q 603 426 621 440 q 566 408 586 413 q 526 403 546 403 q 488 407 504 403 q 451 417 471 411 q 403 426 431 422 q 331 431 375 431 l 313 431 q 294 423 301 431 q 288 403 286 415 q 294 342 290 372 q 301 281 297 313 q 331 251 304 254 z "},"F":{"ha":714,"x_min":35,"x_max":685,"o":"m 293 349 q 306 238 300 294 q 313 114 313 182 q 307 74 313 94 q 285 38 301 54 q 242 10 269 21 q 174 0 215 0 q 103 11 131 0 q 61 40 76 22 q 40 77 46 57 q 35 117 35 97 q 39 211 35 165 q 49 302 43 257 q 58 391 54 347 q 63 479 63 435 l 63 563 q 58 651 63 607 q 49 740 54 694 q 39 831 43 785 q 35 925 35 876 q 39 960 35 942 q 55 994 43 979 q 87 1022 67 1010 q 139 1039 107 1035 q 156 1042 147 1042 q 174 1042 165 1042 q 244 1031 215 1042 q 292 1019 265 1024 q 372 1014 319 1014 l 372 1014 q 443 1018 417 1014 q 488 1028 469 1022 q 525 1038 507 1033 q 571 1042 543 1042 q 610 1038 590 1042 q 647 1022 631 1035 q 674 983 664 1008 q 685 917 685 958 q 674 849 685 874 q 645 811 663 824 q 608 795 628 799 q 568 792 588 792 q 529 796 546 792 q 492 806 513 800 q 444 815 472 811 q 372 819 417 819 l 372 819 q 351 819 361 819 q 333 818 342 818 q 304 790 307 815 q 294 700 300 743 q 286 613 289 657 q 292 592 285 600 q 311 585 300 585 l 331 585 l 331 585 q 401 589 375 585 q 447 599 428 593 q 483 608 465 604 q 529 613 501 613 q 569 608 549 613 q 606 589 589 603 q 633 549 622 575 q 643 481 643 522 q 632 412 643 438 q 603 372 621 386 q 566 353 586 358 q 526 349 546 349 q 488 353 504 349 q 451 363 471 357 q 403 372 431 368 q 331 376 375 376 l 331 376 l 317 376 q 293 349 290 376 z "},"G":{"ha":847,"x_min":28,"x_max":821,"o":"m 542 421 q 498 409 517 414 q 453 404 479 404 q 413 409 433 404 q 376 428 393 414 q 347 467 358 442 q 336 536 336 493 q 347 604 336 578 q 374 644 357 631 q 410 663 390 658 q 450 668 431 668 q 494 664 478 668 q 524 654 511 660 q 549 644 536 649 q 579 640 561 640 q 633 642 611 640 q 674 648 656 644 q 706 653 692 651 q 733 656 719 656 q 786 644 758 656 q 817 608 813 633 q 816 549 821 583 q 803 472 811 514 q 797 383 796 429 q 812 253 804 318 q 819 117 819 189 q 814 77 819 97 q 793 40 808 57 q 751 11 778 22 q 681 0 724 0 q 615 8 642 0 q 574 32 589 17 q 513 -1 549 11 q 425 -14 478 -14 q 241 23 317 -14 q 118 128 165 60 q 49 297 71 197 q 28 521 28 396 q 53 724 28 628 q 133 894 79 821 q 270 1012 188 968 q 467 1056 353 1056 q 551 1050 517 1056 q 611 1035 585 1044 q 660 1012 638 1025 q 708 982 683 999 q 763 920 751 956 q 765 853 774 885 q 730 799 756 821 q 672 776 704 776 q 624 792 650 776 q 588 817 604 804 q 553 839 571 829 q 516 854 536 849 q 467 860 496 860 q 370 833 408 860 q 310 761 332 807 q 279 654 288 715 q 271 522 271 593 q 278 394 271 451 q 304 296 286 336 q 352 233 322 256 q 425 211 382 211 q 494 229 468 211 q 534 274 519 247 q 555 330 549 300 q 564 383 561 360 q 565 388 564 386 q 565 393 565 390 l 565 400 q 542 421 568 428 z "},"H":{"ha":778,"x_min":35,"x_max":743,"o":"m 300 288 q 308 205 304 247 q 313 114 313 163 q 307 74 313 94 q 286 38 301 54 q 244 10 271 21 q 178 0 218 0 q 76 26 118 0 q 35 117 35 53 q 39 211 35 165 q 49 302 43 257 q 58 391 54 347 q 63 479 63 435 l 63 563 q 58 651 63 607 q 49 740 54 694 q 39 831 43 785 q 35 925 35 876 q 46 979 35 957 q 76 1015 57 1001 q 122 1035 96 1029 q 178 1042 149 1042 q 244 1031 218 1042 q 286 1004 271 1021 q 307 967 301 988 q 313 928 313 947 q 308 826 313 874 q 299 735 304 779 q 289 649 293 692 q 285 563 285 607 l 285 533 q 311 504 285 507 q 332 503 321 503 q 354 503 343 503 l 410 503 q 440 503 426 503 q 467 506 454 504 q 493 535 493 508 l 493 563 q 489 651 493 607 q 479 740 485 694 q 469 831 474 785 q 465 925 465 876 q 476 979 465 957 q 507 1015 488 1001 q 553 1035 526 1029 q 608 1042 579 1042 q 675 1031 649 1042 q 717 1004 701 1021 q 738 967 732 988 q 743 928 743 947 q 739 826 743 874 q 729 735 735 779 q 719 649 724 692 q 715 563 715 607 l 715 479 q 719 392 715 435 q 729 306 724 350 q 739 215 735 263 q 743 114 743 168 q 738 74 743 94 q 717 38 732 54 q 675 10 701 21 q 608 0 649 0 q 507 26 549 0 q 465 117 465 53 q 469 203 465 161 q 478 286 474 246 q 454 315 481 313 q 433 317 443 317 q 410 317 422 317 l 354 317 q 338 316 346 317 q 324 315 331 315 q 300 288 297 313 z "},"I":{"ha":347,"x_min":35,"x_max":313,"o":"m 63 563 q 58 651 63 607 q 49 740 54 694 q 39 831 43 785 q 35 925 35 876 q 46 979 35 957 q 76 1015 57 1001 q 122 1035 96 1029 q 178 1042 149 1042 q 244 1031 218 1042 q 286 1004 271 1021 q 307 967 301 988 q 313 928 313 947 q 308 826 313 874 q 299 735 304 779 q 289 649 293 692 q 285 563 285 607 l 285 479 q 289 392 285 435 q 299 306 293 350 q 308 215 304 263 q 313 114 313 168 q 307 74 313 94 q 286 38 301 54 q 244 10 271 21 q 178 0 218 0 q 76 26 118 0 q 35 117 35 53 q 39 211 35 165 q 49 302 43 257 q 58 391 54 347 q 63 479 63 435 l 63 563 z "},"J":{"ha":675,"x_min":25,"x_max":640,"o":"m 210 282 q 232 258 222 268 q 253 240 242 247 q 278 229 264 233 q 314 225 292 225 q 366 257 347 225 q 393 335 385 289 q 402 432 401 381 q 400 521 403 483 q 390 645 396 592 q 377 744 383 699 q 367 833 371 790 q 363 925 363 876 q 368 965 363 944 q 389 1002 374 985 q 431 1031 404 1019 q 501 1042 458 1042 q 570 1031 543 1042 q 613 1004 597 1021 q 635 967 629 988 q 640 928 640 947 q 638 826 640 874 q 631 735 635 779 q 625 649 628 692 q 622 563 622 607 l 622 479 q 622 299 622 386 q 594 146 621 213 q 504 40 568 79 q 314 0 440 0 q 224 9 263 0 q 155 34 185 18 q 101 72 125 50 q 56 121 78 94 q 28 178 32 149 q 35 232 25 207 q 67 276 46 257 q 113 305 88 296 q 163 309 138 314 q 210 282 189 304 z "},"K":{"ha":803,"x_min":35,"x_max":776,"o":"m 513 488 q 567 419 539 451 q 626 356 596 388 q 687 288 656 324 q 750 208 718 253 q 769 173 761 193 q 774 130 776 153 q 756 83 771 107 q 706 35 740 58 q 654 7 678 15 q 611 -1 631 -1 q 559 13 581 -1 q 524 47 538 28 q 438 184 474 117 q 361 317 403 251 q 347 327 354 328 q 332 315 339 326 q 324 302 328 308 q 317 289 321 296 q 306 239 303 267 q 310 178 308 210 q 313 114 313 147 q 307 74 313 94 q 286 38 301 54 q 244 10 271 21 q 178 0 218 0 q 76 26 118 0 q 35 117 35 53 q 39 211 35 165 q 49 302 43 257 q 58 391 54 347 q 63 479 63 435 l 63 563 q 58 651 63 607 q 49 740 54 694 q 39 831 43 785 q 35 925 35 876 q 46 979 35 957 q 76 1015 57 1001 q 122 1035 96 1029 q 178 1042 149 1042 q 244 1031 218 1042 q 286 1004 271 1021 q 307 967 301 988 q 313 928 313 947 q 306 801 313 858 q 293 690 300 744 q 306 686 292 668 q 354 760 332 722 q 398 836 376 797 q 443 915 419 875 q 496 993 467 954 q 531 1027 510 1013 q 583 1042 553 1042 q 626 1033 603 1042 q 678 1006 650 1025 q 728 958 713 982 q 746 910 743 933 q 741 867 749 888 q 722 832 733 847 q 661 754 692 789 q 601 688 631 719 q 544 626 572 657 q 490 561 517 596 q 490 517 474 540 l 513 488 z "},"L":{"ha":683,"x_min":35,"x_max":654,"o":"m 331 250 l 356 250 q 424 254 400 250 q 465 264 449 258 q 497 274 481 269 q 540 278 513 278 q 580 272 560 278 q 617 251 600 267 q 644 208 633 235 q 654 139 654 181 q 643 69 654 96 q 615 26 632 42 q 577 6 597 11 q 538 0 557 0 q 501 4 515 0 q 469 14 486 8 q 426 24 451 19 q 356 28 400 28 q 300 25 322 28 q 263 19 278 22 q 174 0 231 0 q 75 27 115 0 q 35 117 35 54 q 39 211 35 165 q 49 302 43 257 q 58 391 54 347 q 63 479 63 435 l 63 563 q 58 651 63 607 q 49 740 54 694 q 39 831 43 785 q 35 925 35 876 q 46 979 35 957 q 76 1015 57 1001 q 122 1035 96 1029 q 178 1042 149 1042 q 244 1031 218 1042 q 286 1004 271 1021 q 307 967 301 988 q 313 928 313 947 q 308 826 313 874 q 299 735 304 779 q 289 649 293 692 q 285 563 285 607 l 285 479 q 290 378 285 426 q 301 279 294 331 q 331 250 304 253 z "},"M":{"ha":1163,"x_min":35,"x_max":1128,"o":"m 726 104 q 675 28 713 57 q 589 0 638 0 l 588 0 q 501 28 539 0 q 450 104 464 57 l 294 644 q 289 656 292 656 q 286 644 286 657 q 285 599 285 624 q 285 563 285 575 l 285 521 q 291 427 285 476 q 306 326 297 378 q 320 222 314 275 q 326 114 326 168 q 318 74 326 94 q 292 38 310 54 q 244 10 274 21 q 174 0 215 0 q 103 11 131 0 q 61 40 76 22 q 40 77 46 57 q 35 117 35 97 q 39 211 35 165 q 49 302 43 257 q 58 391 54 347 q 63 479 63 435 l 63 563 q 58 647 63 607 q 49 726 54 686 q 39 807 43 765 q 35 897 35 849 q 85 999 35 957 q 222 1042 136 1040 l 268 1042 q 380 1004 332 1042 q 443 904 428 967 l 574 364 q 589 336 581 336 q 604 364 597 336 l 733 904 q 797 1004 749 967 q 908 1042 844 1042 l 954 1042 q 1084 999 1040 1040 q 1128 897 1128 957 q 1124 807 1128 849 q 1114 726 1119 765 q 1104 647 1108 686 q 1100 563 1100 607 l 1100 479 q 1104 391 1100 435 q 1114 302 1108 347 q 1124 211 1119 257 q 1128 117 1128 165 q 1123 77 1128 97 q 1104 40 1118 57 q 1065 11 1090 22 q 996 0 1039 0 q 926 10 954 0 q 881 38 897 21 q 857 74 864 54 q 850 114 850 94 q 856 222 850 168 q 871 326 863 275 q 885 427 879 378 q 892 521 892 476 l 892 563 q 892 599 892 575 q 890 644 892 624 q 888 656 890 657 q 882 644 885 656 l 726 104 z "},"N":{"ha":819,"x_min":35,"x_max":785,"o":"m 536 51 q 525 78 526 65 l 283 583 q 274 594 278 594 q 271 581 271 593 l 271 563 l 271 521 q 277 427 271 476 q 292 326 283 378 q 306 222 300 275 q 313 114 313 168 q 306 74 313 94 q 282 38 299 54 q 237 10 265 21 q 167 0 208 0 q 98 11 124 0 q 58 40 72 22 q 40 77 44 57 q 35 117 35 97 q 39 211 35 165 q 49 302 43 257 q 58 391 54 347 q 63 479 63 435 l 63 563 q 58 651 63 607 q 49 740 54 694 q 39 831 43 785 q 35 925 35 876 q 40 965 35 944 q 58 1002 44 985 q 98 1031 72 1019 q 167 1042 124 1042 l 225 1042 q 276 1027 253 1042 q 311 989 300 1013 l 536 531 q 545 520 542 519 q 549 533 549 521 l 549 563 q 542 651 549 607 q 528 740 536 694 q 513 831 519 785 q 507 925 507 876 q 514 965 507 944 q 538 1002 521 985 q 582 1031 554 1019 q 653 1042 610 1042 q 721 1031 694 1042 q 761 1004 747 1021 q 780 967 775 988 q 785 928 785 947 q 781 826 785 874 q 771 735 776 779 q 761 649 765 692 q 757 563 757 607 l 757 479 q 761 392 757 435 q 771 306 765 350 q 781 215 776 263 q 785 114 785 168 q 781 76 785 96 q 763 40 776 57 q 727 13 750 24 q 667 0 704 1 l 619 0 q 574 14 596 0 q 536 51 551 28 z "},"O":{"ha":932,"x_min":28,"x_max":904,"o":"m 28 521 q 56 724 28 628 q 139 894 83 821 q 276 1012 194 968 q 467 1056 358 1056 q 655 1012 574 1056 q 792 894 736 968 q 876 724 847 821 q 904 521 904 628 q 878 297 904 396 q 799 128 853 197 q 662 23 744 60 q 467 -14 579 -14 q 270 23 353 -14 q 133 128 188 60 q 53 297 79 197 q 28 521 28 396 m 271 522 q 281 394 271 451 q 315 296 292 336 q 376 233 339 256 q 467 211 413 211 q 558 233 521 211 q 618 296 594 256 q 652 394 642 336 q 663 522 663 451 q 654 654 663 593 q 624 761 646 715 q 563 833 601 807 q 467 860 525 860 q 370 833 408 860 q 310 761 332 807 q 279 654 288 715 q 271 522 271 593 z "},"P":{"ha":821,"x_min":35,"x_max":793,"o":"m 299 306 q 308 215 304 261 q 313 114 313 168 q 307 74 313 94 q 285 38 301 54 q 242 10 269 21 q 174 0 215 0 q 103 11 131 0 q 61 40 76 22 q 40 77 46 57 q 35 117 35 97 q 39 211 35 165 q 49 302 43 257 q 58 391 54 347 q 63 479 63 435 l 63 563 q 58 651 63 607 q 49 740 54 694 q 39 831 43 785 q 35 925 35 876 q 40 965 35 944 q 62 1002 46 985 q 105 1031 78 1019 q 175 1042 132 1042 l 356 1042 q 681 951 569 1042 q 793 688 793 861 q 759 538 793 604 q 666 425 725 471 q 527 354 607 379 q 356 329 447 329 l 319 329 q 299 306 296 329 m 356 521 q 447 536 410 521 q 507 576 483 551 q 541 630 531 600 q 551 689 551 660 q 543 746 551 718 q 513 796 535 774 q 452 832 490 818 q 356 846 414 846 l 333 846 q 308 822 311 846 q 293 690 301 751 q 285 563 285 629 l 285 544 q 308 521 285 521 l 356 521 z "},"Q":{"ha":932,"x_min":28,"x_max":904,"o":"m 399 -10 q 118 151 208 13 q 28 521 28 290 q 56 724 28 628 q 139 894 83 821 q 276 1012 194 968 q 467 1056 358 1056 q 655 1012 574 1056 q 792 894 736 968 q 876 724 847 821 q 904 521 904 628 q 846 205 904 332 q 663 24 788 78 q 647 10 651 19 q 646 -10 643 1 q 647 -19 647 -14 q 649 -29 647 -24 q 653 -69 651 -49 q 648 -108 656 -89 q 619 -141 640 -126 q 557 -161 599 -156 q 491 -161 515 -168 q 454 -140 467 -154 q 437 -106 442 -125 q 429 -67 432 -86 q 426 -51 426 -58 q 425 -36 426 -43 q 399 -10 422 -12 m 592 261 q 646 367 629 301 q 663 522 663 433 q 654 654 663 593 q 624 761 646 715 q 563 833 601 807 q 467 860 525 860 q 370 833 408 860 q 310 761 332 807 q 279 654 288 715 q 271 522 271 593 q 297 333 271 410 q 386 228 324 257 q 401 228 396 224 q 403 243 406 232 q 388 290 396 271 q 374 330 381 310 q 359 376 367 350 q 344 443 351 401 q 340 483 342 463 q 344 522 338 503 q 372 555 351 540 q 435 578 393 569 q 501 578 476 585 q 538 558 525 572 q 555 525 550 544 q 563 486 560 506 q 572 410 571 439 q 572 360 572 382 q 569 319 571 339 q 571 268 568 299 q 578 256 572 257 q 592 261 585 254 z "},"R":{"ha":849,"x_min":35,"x_max":821,"o":"m 293 363 q 306 245 300 304 q 313 114 313 186 q 307 74 313 94 q 285 38 301 54 q 242 10 269 21 q 174 0 215 0 q 103 11 131 0 q 61 40 76 22 q 40 77 46 57 q 35 117 35 97 q 39 211 35 165 q 49 302 43 257 q 58 391 54 347 q 63 479 63 435 l 63 563 q 58 651 63 607 q 49 740 54 694 q 39 831 43 785 q 35 925 35 876 q 40 965 35 944 q 62 1002 46 985 q 105 1031 78 1019 q 175 1042 132 1042 l 356 1042 q 681 965 568 1042 q 793 715 793 888 q 745 545 793 614 q 614 436 697 476 q 608 410 593 425 q 698 321 651 365 q 793 217 744 276 q 813 182 806 201 q 819 140 821 163 q 804 91 818 117 q 757 40 790 65 q 695 6 724 14 q 644 1 667 -3 q 604 17 621 4 q 575 44 588 29 q 519 121 544 82 q 469 197 493 160 q 422 271 446 235 q 369 342 397 307 l 349 368 q 313 385 335 385 q 293 363 290 385 m 356 576 q 507 617 463 576 q 551 717 551 658 q 543 769 551 746 q 513 810 535 793 q 452 836 490 826 q 356 846 414 846 l 333 846 q 308 822 311 846 q 296 709 303 763 q 286 600 289 656 q 308 576 286 576 l 356 576 z "},"S":{"ha":796,"x_min":29,"x_max":765,"o":"m 303 806 q 316 765 303 782 q 352 734 329 749 q 407 704 375 719 q 478 669 439 689 q 578 614 528 644 q 671 542 629 583 q 739 444 713 500 q 765 313 765 388 q 745 174 765 235 q 682 71 725 113 q 570 8 639 29 q 403 -14 501 -14 q 302 -2 351 -14 q 210 30 253 10 q 131 77 167 50 q 68 135 94 104 q 34 203 39 169 q 41 265 29 238 q 78 313 53 293 q 134 338 104 332 q 195 335 164 344 q 250 296 226 325 q 278 267 261 282 q 316 242 296 253 q 358 223 336 231 q 403 215 381 215 q 490 232 458 215 q 522 297 522 249 q 478 376 522 342 q 369 444 433 411 q 248 513 303 479 q 154 585 193 546 q 94 674 115 625 q 74 790 74 724 q 101 907 74 857 q 174 990 128 957 q 281 1039 219 1022 q 408 1056 342 1056 q 497 1048 458 1056 q 567 1028 535 1040 q 626 1000 599 1015 q 678 968 653 985 q 725 920 711 947 q 738 866 739 893 q 724 816 738 839 q 690 778 711 793 q 644 763 669 764 q 593 778 618 761 q 553 805 574 790 q 508 832 532 819 q 456 852 483 844 q 394 860 428 860 q 321 843 339 860 q 303 806 303 826 z "},"T":{"ha":739,"x_min":15,"x_max":724,"o":"m 490 789 q 484 675 488 729 q 481 563 481 621 l 481 479 q 485 392 481 435 q 494 306 489 350 q 504 215 500 263 q 508 114 508 168 q 503 74 508 94 q 481 38 497 54 q 438 10 465 21 q 369 0 411 0 q 299 11 326 0 q 257 40 272 22 q 236 77 242 57 q 231 117 231 97 q 235 211 231 165 q 244 302 239 257 q 254 391 250 347 q 258 479 258 435 l 258 563 q 255 675 258 619 q 249 789 251 731 q 224 808 246 813 q 177 797 197 801 q 132 792 157 792 q 92 795 113 792 q 55 811 72 799 q 26 849 38 824 q 15 917 15 874 q 26 983 15 958 q 53 1022 36 1008 q 90 1038 69 1035 q 129 1042 110 1042 q 177 1038 157 1042 q 219 1031 197 1035 q 269 1024 240 1028 q 342 1021 297 1021 l 397 1021 q 470 1024 442 1021 q 520 1031 499 1028 q 562 1038 542 1035 q 610 1042 582 1042 q 649 1038 629 1042 q 686 1022 669 1035 q 713 983 703 1008 q 724 917 724 958 q 713 849 724 874 q 684 811 701 824 q 647 795 667 799 q 607 792 626 792 q 562 797 582 792 q 515 808 542 801 q 490 789 493 813 z "},"U":{"ha":843,"x_min":35,"x_max":808,"o":"m 783 521 q 773 297 789 396 q 715 128 757 197 q 600 23 672 60 q 419 -14 528 -14 q 240 23 311 -14 q 126 128 168 60 q 70 297 85 197 q 61 521 56 396 q 60 625 64 574 q 50 726 56 676 q 40 826 44 776 q 35 925 35 875 q 46 979 35 957 q 76 1015 57 1001 q 122 1035 96 1029 q 178 1042 149 1042 q 244 1031 218 1042 q 286 1004 271 1021 q 307 967 301 988 q 313 928 313 947 q 299 725 313 825 q 285 522 285 625 q 288 394 285 451 q 303 296 290 336 q 344 233 317 256 q 419 211 371 211 q 496 233 468 211 q 537 296 524 256 q 553 394 550 336 q 557 522 557 451 q 544 725 557 625 q 531 928 531 825 q 536 967 531 947 q 557 1004 542 988 q 599 1031 572 1021 q 665 1042 625 1042 q 721 1035 694 1042 q 767 1015 747 1029 q 797 979 786 1001 q 808 925 808 957 q 803 824 808 875 q 794 724 799 774 q 785 623 789 674 q 783 521 782 572 z "},"V":{"ha":928,"x_min":18,"x_max":910,"o":"m 472 308 q 491 384 481 336 q 511 483 501 432 q 530 579 521 535 q 544 646 539 624 q 563 728 556 692 q 581 801 571 765 q 604 878 590 838 q 640 971 618 918 q 676 1022 651 999 q 743 1046 700 1046 q 814 1029 772 1046 q 874 991 854 1013 q 902 947 894 969 q 907 902 910 924 q 896 861 904 881 q 747 472 813 667 q 611 74 681 278 q 561 21 600 42 q 464 0 522 0 q 367 21 406 0 q 317 74 328 42 q 182 473 249 278 q 32 861 115 668 q 21 902 24 881 q 26 947 18 924 q 54 991 33 969 q 114 1029 75 1013 q 185 1046 156 1046 q 252 1022 228 1046 q 288 971 276 999 q 324 878 310 918 q 347 801 338 838 q 365 728 357 765 q 383 646 372 692 q 398 579 389 624 q 417 483 407 535 q 437 384 426 432 q 456 308 447 336 q 464 297 458 297 q 472 308 469 297 z "},"W":{"ha":1213,"x_min":18,"x_max":1196,"o":"m 599 353 q 559 214 578 283 q 522 74 540 144 q 488 21 515 42 q 403 0 461 0 q 306 21 344 0 q 256 74 267 42 q 195 276 221 176 q 145 473 169 375 q 94 667 121 571 q 31 861 67 764 q 21 902 24 881 q 25 947 18 924 q 53 991 32 969 q 113 1029 74 1013 q 181 1046 151 1046 q 231 1035 210 1046 q 265 1008 251 1025 q 286 971 278 990 q 310 894 299 943 q 334 785 322 846 q 357 656 346 724 q 377 524 368 589 q 392 404 386 460 q 401 310 399 349 q 407 310 403 292 q 431 477 419 393 q 457 644 443 561 q 489 810 471 728 q 533 971 507 892 q 551 1008 540 990 q 581 1037 563 1026 q 627 1047 600 1047 q 693 1029 654 1046 q 751 991 733 1013 q 773 947 768 969 q 773 903 778 925 q 761 861 768 881 q 747 817 754 839 q 732 772 739 794 q 755 654 744 715 q 774 533 765 593 q 789 417 782 474 q 803 310 796 360 q 807 310 806 289 q 823 466 811 375 q 853 651 835 557 q 892 832 871 746 q 936 971 914 918 q 958 1008 944 990 q 992 1035 971 1025 q 1042 1046 1013 1046 q 1110 1029 1071 1046 q 1168 991 1150 1013 q 1191 947 1186 969 q 1190 903 1196 925 q 1178 861 1185 881 q 1113 667 1142 764 q 1056 472 1083 569 q 1001 275 1029 374 q 939 74 974 176 q 896 21 928 42 q 806 0 864 0 q 722 21 747 0 q 686 74 697 42 q 648 206 667 132 q 611 353 629 281 q 599 353 606 374 z "},"X":{"ha":885,"x_min":18,"x_max":865,"o":"m 419 338 q 356 206 388 272 q 282 71 325 140 q 252 35 271 53 q 210 8 233 18 q 157 1 186 -1 q 94 24 128 3 q 40 72 57 47 q 21 119 24 96 q 26 165 18 143 q 46 204 33 186 q 106 296 76 254 q 165 376 136 338 q 222 451 194 414 q 275 528 250 488 q 272 568 289 549 q 167 692 222 631 q 61 828 113 753 q 40 868 49 846 q 33 915 32 890 q 50 963 35 939 q 100 1011 65 988 q 163 1039 133 1035 q 215 1035 192 1043 q 258 1011 239 1028 q 289 976 276 994 q 366 851 335 910 q 429 738 397 793 q 442 728 435 728 q 454 738 449 728 q 517 851 486 793 q 594 976 549 910 q 626 1011 607 994 q 668 1035 644 1028 q 721 1039 692 1043 q 783 1011 750 1035 q 833 963 818 988 q 850 915 849 939 q 843 868 851 890 q 822 828 835 846 q 708 681 767 746 q 596 547 650 617 q 588 528 589 539 q 594 508 588 517 q 651 437 622 471 q 710 367 679 403 q 772 292 740 331 q 835 206 803 253 q 856 165 847 188 q 864 117 865 142 q 847 69 863 93 q 797 22 832 44 q 733 -2 763 1 q 680 2 704 -6 q 638 26 656 10 q 607 60 619 42 q 521 203 558 133 q 443 339 483 272 q 431 348 438 349 q 419 338 425 347 z "},"Y":{"ha":906,"x_min":17,"x_max":889,"o":"m 326 432 q 260 539 294 489 q 191 640 226 589 q 117 744 156 690 q 35 864 78 799 q 20 903 24 881 q 25 948 17 925 q 56 993 33 971 q 117 1032 78 1015 q 185 1049 156 1049 q 235 1038 214 1049 q 269 1010 256 1028 q 290 974 282 993 q 339 858 319 906 q 374 772 358 810 q 406 700 390 733 q 442 626 421 667 q 464 626 453 607 q 500 700 485 667 q 531 772 515 733 q 567 858 547 810 q 615 974 586 906 q 637 1010 624 993 q 671 1038 650 1028 q 721 1049 692 1049 q 789 1032 750 1049 q 851 993 829 1015 q 881 948 872 971 q 885 903 889 925 q 871 864 882 881 q 789 744 828 799 q 714 638 750 689 q 644 537 678 588 q 576 428 610 486 q 569 406 571 418 q 568 383 567 394 q 583 257 575 321 q 590 114 590 193 q 585 74 590 94 q 563 38 579 54 q 520 10 547 21 q 451 0 493 0 q 381 11 408 0 q 339 40 354 22 q 318 77 324 57 q 313 117 313 97 q 321 256 313 190 q 336 388 329 321 q 335 410 338 399 q 326 432 332 422 z "},"Z":{"ha":796,"x_min":29,"x_max":767,"o":"m 436 250 q 510 254 482 250 q 561 264 539 258 q 603 274 583 269 q 651 278 622 278 q 692 272 671 278 q 729 251 713 267 q 756 208 746 235 q 767 139 767 181 q 756 69 767 96 q 727 26 744 42 q 690 6 710 11 q 650 0 669 0 q 607 4 626 0 q 565 13 588 8 q 512 21 542 17 q 436 25 482 25 l 360 25 q 284 21 314 25 q 231 13 254 17 q 190 4 208 8 q 147 0 171 0 q 107 6 128 0 q 69 26 86 11 q 40 69 51 42 q 29 139 29 96 q 33 185 29 167 q 43 217 36 203 q 59 242 50 231 q 78 265 68 253 q 175 394 129 333 q 260 524 221 456 l 308 604 q 356 700 336 653 q 399 797 376 747 q 385 819 407 819 l 363 819 q 289 815 317 819 q 241 806 261 811 q 204 796 221 800 q 164 792 188 792 q 124 795 144 792 q 86 811 103 799 q 58 849 69 824 q 46 917 46 874 q 56 983 46 958 q 83 1022 67 1008 q 121 1038 100 1035 q 161 1042 142 1042 q 207 1038 189 1042 q 244 1030 225 1035 q 290 1022 264 1025 q 363 1018 317 1018 l 397 1018 q 459 1021 435 1018 q 501 1027 483 1024 q 534 1035 519 1031 q 567 1040 549 1039 q 615 1044 589 1047 q 672 1026 640 1042 q 728 987 710 1008 q 751 943 747 965 q 750 899 756 921 q 733 858 744 878 q 676 767 706 810 q 616 683 646 724 q 558 601 586 642 q 506 517 531 561 l 460 436 q 417 355 436 396 q 379 272 399 314 q 393 250 371 250 l 436 250 z "},"[":{"ha":586,"x_min":28,"x_max":564,"o":"m 56 565 q 51 680 56 610 q 42 826 47 750 q 32 974 36 901 q 28 1094 28 1046 q 33 1132 28 1113 q 51 1167 38 1151 q 88 1195 64 1183 q 147 1210 111 1207 q 157 1210 153 1210 q 167 1211 161 1211 l 293 1211 l 293 1211 q 342 1213 322 1211 q 376 1218 361 1215 q 408 1223 392 1221 q 447 1225 425 1225 q 487 1223 467 1225 q 524 1210 507 1221 q 553 1175 542 1199 q 564 1108 564 1151 q 553 1043 564 1067 q 526 1008 543 1019 q 490 994 510 996 q 450 992 469 992 q 406 994 424 992 q 374 998 389 996 q 344 1003 360 1000 q 303 1006 328 1006 q 296 888 300 950 q 288 767 292 826 q 281 654 283 707 q 278 565 278 601 l 278 396 q 281 308 278 360 q 288 199 283 257 q 296 79 292 140 q 303 -36 300 18 q 344 -33 328 -36 q 374 -28 360 -31 q 406 -24 389 -26 q 450 -22 424 -22 q 490 -25 469 -22 q 526 -40 510 -28 q 553 -77 543 -53 q 564 -143 564 -101 q 553 -210 564 -186 q 524 -247 542 -235 q 487 -261 507 -258 q 447 -264 467 -264 q 408 -262 425 -264 q 376 -257 392 -260 q 342 -252 361 -254 q 293 -250 322 -250 l 293 -250 l 167 -250 l 156 -250 q 92 -237 117 -249 q 53 -208 67 -225 q 33 -172 39 -192 q 28 -133 28 -153 q 32 -12 28 -85 q 42 135 36 60 q 51 281 47 211 q 56 396 56 351 l 56 565 z "},"\\":{"ha":644,"x_min":22,"x_max":624,"o":"m 453 496 q 490 393 469 443 q 532 292 510 343 q 576 188 554 240 q 615 76 597 135 q 623 27 622 54 q 613 -26 624 0 q 581 -77 603 -53 q 518 -118 558 -101 q 449 -133 479 -135 q 395 -118 418 -131 q 358 -85 372 -106 q 336 -40 343 -64 q 301 81 315 24 q 276 192 288 139 q 253 298 265 246 q 224 403 240 350 l 193 504 q 156 605 176 557 q 115 703 136 653 q 72 808 93 753 q 29 926 50 863 q 22 977 22 950 q 33 1031 22 1004 q 66 1081 43 1057 q 128 1119 89 1104 q 199 1133 168 1135 q 252 1117 229 1131 q 290 1083 275 1104 q 311 1039 304 1063 q 368 812 347 921 q 422 596 389 703 l 453 496 z "},"]":{"ha":586,"x_min":22,"x_max":558,"o":"m 531 396 q 535 281 531 351 q 544 135 539 211 q 554 -12 550 60 q 558 -133 558 -85 q 518 -223 558 -196 q 419 -250 478 -250 l 293 -250 l 293 -250 q 244 -252 264 -250 q 210 -257 225 -254 q 178 -262 194 -260 q 139 -264 163 -264 q 99 -260 119 -264 q 62 -244 79 -257 q 33 -207 44 -232 q 22 -139 22 -182 q 33 -72 22 -97 q 60 -34 43 -47 q 97 -17 76 -21 q 136 -14 117 -14 q 180 -16 164 -14 q 210 -20 196 -18 q 241 -25 225 -22 q 283 -28 257 -28 q 290 86 286 26 q 299 203 294 146 q 306 311 303 261 q 308 396 308 361 l 308 565 q 306 653 308 601 q 299 763 303 704 q 290 882 294 821 q 283 997 286 943 q 242 994 258 997 q 212 990 226 992 q 181 985 197 988 q 136 983 164 983 q 97 986 117 983 q 60 1001 76 989 q 33 1038 43 1014 q 22 1104 22 1063 q 33 1172 22 1147 q 62 1208 44 1196 q 99 1222 79 1219 q 139 1225 119 1225 q 178 1223 163 1225 q 210 1218 194 1221 q 244 1213 225 1215 q 293 1211 264 1211 l 293 1211 l 419 1211 l 431 1211 q 494 1198 469 1210 q 533 1169 519 1186 q 553 1133 547 1153 q 558 1094 558 1114 q 554 974 558 1046 q 544 826 550 901 q 535 680 539 750 q 531 565 531 610 l 531 396 z "},"^":{"ha":685,"x_min":19,"x_max":665,"o":"m 158 817 q 199 910 183 865 q 233 993 214 954 q 267 1035 243 1014 q 343 1057 292 1057 q 417 1035 393 1057 q 453 993 442 1014 q 488 910 472 954 q 528 817 503 865 l 556 763 q 606 670 579 715 q 651 586 633 625 q 662 557 658 574 q 660 524 665 540 q 638 491 654 507 q 586 461 621 475 q 528 447 553 447 q 485 453 503 446 q 457 473 468 461 q 440 497 446 485 q 401 592 417 543 q 374 697 385 642 l 364 743 q 360 765 364 746 q 353 806 357 783 q 347 848 350 829 q 343 868 344 867 q 338 848 342 867 q 331 806 335 829 q 324 765 328 783 q 321 743 321 746 l 311 697 q 244 497 289 589 q 228 473 239 485 q 201 453 218 461 q 158 447 183 446 q 99 461 133 447 q 47 491 64 475 q 25 524 31 507 q 24 557 19 540 q 33 586 28 574 q 79 670 51 625 q 131 763 107 715 l 158 817 z "},"_":{"ha":614,"x_min":-28,"x_max":642,"o":"m 272 -208 q 166 -217 224 -208 q 63 -225 108 -225 q -1 -208 24 -225 q -26 -136 -25 -190 q -3 -65 -28 -83 q 60 -47 21 -47 q 170 -56 117 -47 q 272 -64 224 -64 l 342 -64 q 423 -56 369 -64 q 554 -47 476 -47 q 617 -65 593 -47 q 640 -136 642 -83 q 615 -208 639 -190 q 551 -225 590 -225 q 427 -217 485 -225 q 342 -208 369 -208 l 272 -208 z "},"`":{"ha":390,"x_min":11,"x_max":311,"o":"m 290 911 q 275 882 311 882 l 254 882 q 214 890 235 882 q 178 910 193 897 l 39 1032 q 47 1056 11 1056 l 150 1056 q 183 1049 167 1056 q 210 1026 199 1042 l 290 911 z "},"a":{"ha":782,"x_min":24,"x_max":754,"o":"m 24 301 q 47 460 24 379 q 115 607 71 542 q 220 714 158 672 q 358 756 282 756 q 442 740 407 756 q 508 699 476 725 q 549 731 522 718 q 622 744 575 744 q 688 735 663 744 q 728 710 713 725 q 749 676 743 694 q 754 642 754 658 q 740 526 754 585 q 726 401 726 467 l 726 342 q 740 219 726 278 q 754 101 754 160 q 749 67 754 85 q 728 35 743 50 q 688 10 713 19 q 622 0 663 0 q 528 24 557 0 q 493 76 500 49 q 408 11 458 36 q 275 -14 357 -14 q 166 2 213 -14 q 88 55 119 18 q 40 152 56 92 q 24 301 24 213 m 246 314 q 256 254 246 278 q 283 217 265 231 q 324 197 300 203 q 374 192 347 192 q 438 206 411 192 q 481 245 464 221 q 507 301 499 269 q 515 369 515 333 q 511 453 515 415 q 494 517 507 490 q 455 557 481 543 q 388 571 429 571 q 330 546 356 571 q 285 483 304 521 q 256 401 267 446 q 246 314 246 356 z "},"b":{"ha":851,"x_min":28,"x_max":828,"o":"m 288 686 q 389 737 332 718 q 518 756 446 756 q 635 734 579 756 q 733 665 690 713 q 802 542 776 618 q 828 357 828 467 q 793 167 828 239 q 709 54 758 94 q 607 0 660 14 q 518 -14 554 -14 q 388 12 446 -14 q 288 78 331 38 q 253 24 281 47 q 160 0 225 1 q 92 10 118 0 q 51 38 65 21 q 33 74 38 54 q 28 114 28 94 q 32 215 28 168 q 42 306 36 263 q 51 392 47 350 q 56 479 56 435 l 56 590 q 51 677 56 635 q 42 763 47 719 q 32 854 36 807 q 28 956 28 901 q 33 995 28 975 q 51 1032 38 1015 q 92 1059 65 1049 q 160 1069 118 1069 q 228 1058 203 1069 q 268 1030 254 1047 q 287 992 282 1013 q 292 953 292 972 q 284 819 292 882 q 269 694 276 757 q 288 686 267 672 m 607 369 q 565 522 607 474 q 447 571 522 571 q 382 557 415 571 q 321 517 349 543 q 276 453 293 490 q 260 369 258 415 q 313 235 263 279 q 447 192 363 192 q 526 206 494 192 q 575 245 557 221 q 600 301 593 269 q 607 369 607 333 z "},"c":{"ha":765,"x_min":24,"x_max":742,"o":"m 588 532 q 497 563 535 556 q 428 571 460 571 q 294 517 343 571 q 246 369 246 463 q 254 301 246 333 q 283 245 263 269 q 335 206 303 221 q 414 192 367 192 q 459 198 440 192 q 494 215 478 204 q 526 239 510 225 q 561 269 542 253 q 624 293 589 293 q 683 274 656 293 q 726 225 710 254 q 741 163 742 196 q 715 100 740 129 q 658 53 693 75 q 583 17 624 32 q 498 -6 542 3 q 413 -14 454 -14 q 258 7 329 -14 q 135 73 188 28 q 53 188 83 118 q 24 357 24 258 q 54 519 24 446 q 139 644 85 592 q 267 726 193 697 q 426 756 340 756 q 497 750 465 756 q 556 736 529 744 q 608 716 583 728 q 658 692 633 704 q 699 649 688 678 q 706 592 710 621 q 682 543 701 564 q 631 522 663 522 q 588 532 608 522 z "},"d":{"ha":851,"x_min":24,"x_max":824,"o":"m 582 694 q 567 819 575 757 q 560 953 560 882 q 565 992 560 972 q 583 1030 569 1013 q 623 1058 597 1047 q 692 1069 649 1069 q 760 1059 733 1069 q 800 1032 786 1049 q 819 995 814 1015 q 824 956 824 975 q 819 854 824 901 q 810 763 815 807 q 800 677 804 719 q 796 590 796 635 l 796 479 q 800 392 796 435 q 810 306 804 350 q 819 215 815 263 q 824 114 824 168 q 819 74 824 94 q 800 38 814 54 q 760 10 786 21 q 692 0 733 0 q 599 24 626 1 q 564 78 571 47 q 463 12 521 38 q 333 -14 406 -14 q 244 -2 297 -14 q 142 47 192 10 q 58 155 93 85 q 24 343 24 225 q 49 531 24 453 q 118 658 75 608 q 217 732 161 708 q 333 756 274 756 q 463 737 406 756 q 564 686 519 718 q 582 694 585 672 m 244 369 q 251 301 244 333 q 276 245 258 269 q 326 206 294 221 q 404 192 357 192 q 539 235 489 192 q 592 369 589 279 q 576 453 593 415 q 531 517 558 490 q 469 557 503 543 q 404 571 436 571 q 287 522 329 571 q 244 369 244 474 z "},"e":{"ha":779,"x_min":24,"x_max":756,"o":"m 324 232 q 312 224 313 229 q 321 213 311 218 q 414 192 357 192 q 501 214 467 192 q 575 269 536 236 q 638 293 603 293 q 697 274 669 293 q 740 225 724 254 q 755 163 756 196 q 729 100 754 129 q 670 53 707 75 q 590 17 633 32 q 500 -6 546 3 q 413 -14 454 -14 q 258 7 329 -14 q 135 73 188 28 q 53 188 83 118 q 24 357 24 258 q 56 519 24 446 q 145 644 89 592 q 278 726 201 697 q 440 756 354 756 q 561 734 508 756 q 648 678 614 713 q 697 599 682 643 q 703 508 711 554 q 665 417 696 461 q 575 338 633 372 q 454 276 518 303 q 324 232 390 250 m 247 408 q 267 392 244 385 q 347 421 304 404 q 438 461 389 438 q 469 490 460 472 q 476 526 478 508 q 461 558 474 544 q 428 571 449 571 q 306 528 353 571 q 247 408 258 485 z "},"f":{"ha":647,"x_min":21,"x_max":628,"o":"m 122 764 q 146 883 129 828 q 192 981 163 939 q 269 1047 222 1022 q 386 1071 317 1071 q 486 1056 435 1071 q 588 1007 538 1042 q 623 951 618 986 q 613 887 628 917 q 569 842 599 857 q 501 843 540 826 q 447 858 471 857 q 400 853 424 860 q 356 815 372 844 q 332 746 340 786 q 335 728 329 735 q 351 725 340 722 q 410 735 379 729 q 478 740 440 740 q 515 736 497 740 q 547 721 533 732 q 569 690 561 710 q 578 638 578 669 q 569 585 578 606 q 545 554 560 565 q 513 539 531 543 q 475 535 494 535 q 409 540 442 535 q 343 550 376 546 q 326 546 332 551 q 321 529 319 540 l 321 522 q 331 398 325 451 q 344 299 338 344 q 354 210 350 253 q 358 118 358 167 q 353 78 358 99 q 335 41 349 58 q 295 13 321 24 q 226 1 269 1 q 158 12 185 1 q 118 39 132 22 q 99 76 104 56 q 94 115 94 96 q 97 217 94 169 q 103 308 100 264 q 110 394 107 351 q 113 481 113 436 l 113 511 q 89 536 113 532 q 42 562 60 540 q 22 638 24 583 q 42 717 21 696 q 96 740 63 738 q 122 764 119 743 z "},"g":{"ha":835,"x_min":24,"x_max":807,"o":"m 213 -89 q 326 -128 278 -121 q 418 -136 374 -136 q 494 -119 464 -136 q 542 -76 524 -103 q 569 -15 561 -49 q 581 54 578 19 q 474 2 535 22 q 333 -18 413 -18 q 223 3 278 -18 q 124 74 168 25 q 51 201 79 122 q 24 394 24 281 q 41 531 24 474 q 86 627 58 588 q 148 691 114 667 q 217 728 182 715 q 282 747 251 742 q 333 751 313 751 q 456 728 403 751 q 550 668 510 706 q 587 719 560 697 q 675 743 614 742 q 743 732 717 743 q 783 703 769 721 q 802 663 797 685 q 807 622 807 642 q 804 521 807 568 q 798 430 801 474 q 792 344 794 386 q 789 257 789 301 l 789 118 q 788 -4 789 56 q 776 -117 786 -64 q 741 -215 765 -169 q 671 -292 717 -260 q 553 -343 625 -325 q 376 -361 482 -361 q 192 -326 272 -361 q 71 -236 111 -292 q 50 -181 51 -210 q 61 -128 49 -151 q 98 -89 74 -104 q 153 -74 122 -74 q 213 -89 179 -74 m 244 368 q 258 281 244 317 q 292 222 271 244 q 343 190 314 200 q 404 181 372 181 q 469 192 436 181 q 530 228 503 204 q 574 287 557 251 q 589 368 590 322 q 574 435 588 403 q 538 492 561 467 q 480 531 514 517 q 404 546 446 546 q 332 531 363 546 q 282 492 301 517 q 253 436 263 468 q 244 368 244 404 z "},"h":{"ha":764,"x_min":28,"x_max":736,"o":"m 268 436 q 283 284 272 360 q 294 114 294 208 q 290 74 294 94 q 270 38 285 54 q 229 10 256 21 q 161 0 203 0 q 92 11 118 0 q 52 40 67 22 q 33 77 38 57 q 28 117 28 97 q 32 217 28 171 q 42 307 36 264 q 51 392 47 350 q 56 479 56 435 l 56 590 q 51 678 56 635 q 42 767 47 722 q 32 858 36 813 q 28 953 28 904 q 33 992 28 972 q 52 1030 38 1013 q 92 1058 67 1047 q 161 1069 118 1069 q 229 1059 203 1069 q 270 1032 256 1049 q 290 995 285 1015 q 294 956 294 975 q 283 789 294 863 q 268 642 272 715 q 338 706 296 676 q 438 749 379 736 q 528 757 476 757 q 626 740 579 757 q 704 688 672 724 q 736 590 736 653 q 722 474 736 533 q 708 350 708 415 l 708 342 q 722 219 708 278 q 736 101 736 160 q 731 67 736 85 q 710 35 725 50 q 669 10 694 19 q 604 0 644 0 q 538 10 564 0 q 498 35 513 19 q 478 69 483 51 q 472 104 472 88 q 476 157 472 129 q 486 215 481 185 q 496 278 492 246 q 500 342 500 310 l 500 350 q 436 554 500 540 q 368 547 410 561 q 282 479 326 533 q 268 436 265 461 z "},"i":{"ha":325,"x_min":28,"x_max":297,"o":"m 61 401 q 57 466 61 433 q 47 529 53 499 q 38 588 42 560 q 33 640 33 615 q 39 675 33 657 q 59 708 44 693 q 99 734 74 724 q 165 744 125 744 q 231 735 206 744 q 271 710 256 725 q 292 676 286 694 q 297 642 297 658 q 283 526 297 585 q 269 401 269 467 l 269 342 q 283 219 269 278 q 297 101 297 160 q 292 67 297 85 q 271 35 286 50 q 231 10 256 19 q 165 0 206 0 q 99 10 125 0 q 59 35 74 19 q 39 69 44 51 q 33 104 33 88 q 38 157 33 129 q 47 215 42 185 q 57 278 53 246 q 61 342 61 310 l 61 401 m 28 917 q 65 988 28 960 q 163 1017 101 1017 q 259 988 222 1017 q 296 917 296 960 q 259 844 296 872 q 163 817 222 817 q 65 844 101 817 q 28 917 28 872 z "},"j":{"ha":324,"x_min":-244,"x_max":296,"o":"m -110 -87 q -58 -110 -79 -101 q -12 -111 -36 -118 q 37 -63 19 -101 q 61 25 54 -25 q 69 128 68 75 q 67 219 69 182 q 56 344 63 290 q 44 443 50 397 q 33 532 38 489 q 29 624 29 575 q 34 663 29 643 q 53 701 39 683 q 92 729 67 718 q 161 740 118 740 q 229 730 203 740 q 269 703 256 719 q 288 666 283 686 q 293 626 293 646 q 290 525 293 572 q 284 434 288 478 q 278 348 281 390 q 275 261 275 306 l 275 178 q 268 -10 275 85 q 233 -183 261 -106 q 151 -308 206 -260 q 1 -357 97 -357 q -95 -346 -47 -357 q -196 -303 -143 -335 q -239 -237 -233 -281 q -228 -156 -244 -194 q -181 -94 -212 -117 q -110 -87 -149 -71 m 28 917 q 65 988 28 960 q 163 1017 101 1017 q 259 988 222 1017 q 296 917 296 960 q 259 844 296 872 q 163 817 222 817 q 65 844 101 817 q 28 917 28 872 z "},"k":{"ha":750,"x_min":28,"x_max":728,"o":"m 294 104 q 287 67 293 86 q 266 33 281 49 q 226 9 251 18 q 161 0 201 0 q 92 11 118 0 q 52 40 67 22 q 33 77 38 57 q 28 117 28 97 q 32 217 28 171 q 42 307 36 264 q 51 392 47 350 q 56 479 56 435 l 56 590 q 51 678 56 635 q 42 767 47 722 q 32 858 36 813 q 28 953 28 904 q 33 992 28 972 q 52 1030 38 1013 q 92 1058 67 1047 q 161 1069 118 1069 q 229 1059 203 1069 q 270 1032 256 1049 q 290 995 285 1015 q 294 956 294 975 q 290 854 294 901 q 281 763 286 807 q 271 677 275 719 q 267 590 267 635 l 267 479 l 267 458 q 274 440 267 443 q 292 449 281 438 q 296 453 294 451 q 300 458 297 456 l 346 515 q 379 561 365 538 q 408 609 393 585 q 439 660 422 633 q 478 713 456 686 q 499 732 486 722 q 531 744 513 742 q 576 739 550 747 q 633 704 601 731 q 677 656 665 679 q 690 613 689 632 q 683 577 690 593 q 667 551 675 561 q 601 488 632 511 q 540 436 569 464 q 536 385 515 413 q 578 338 558 357 q 619 299 599 318 q 660 258 639 281 q 703 203 681 236 q 721 167 714 186 q 725 126 728 147 q 707 81 722 104 q 656 33 692 57 q 593 4 621 10 q 544 5 565 -1 q 507 25 522 11 q 481 56 492 39 q 432 141 449 103 q 397 217 415 179 q 381 232 390 231 q 361 221 371 233 q 339 193 350 207 q 317 164 328 179 q 294 104 297 139 z "},"l":{"ha":322,"x_min":28,"x_max":294,"o":"m 56 590 q 51 678 56 635 q 42 767 47 722 q 32 858 36 813 q 28 953 28 904 q 33 992 28 972 q 52 1030 38 1013 q 92 1058 67 1047 q 161 1069 118 1069 q 229 1059 203 1069 q 270 1032 256 1049 q 290 995 285 1015 q 294 956 294 975 q 290 854 294 901 q 281 763 286 807 q 271 677 275 719 q 267 590 267 635 l 267 479 q 271 392 267 435 q 281 306 275 350 q 290 215 286 263 q 294 114 294 168 q 290 74 294 94 q 270 38 285 54 q 229 10 256 21 q 161 0 203 0 q 92 11 118 0 q 52 40 67 22 q 33 77 38 57 q 28 117 28 97 q 32 217 28 171 q 42 307 36 264 q 51 392 47 350 q 56 479 56 435 l 56 590 z "},"m":{"ha":1186,"x_min":28,"x_max":1158,"o":"m 265 443 q 264 422 264 432 q 264 401 264 413 l 264 342 q 278 219 264 278 q 292 101 292 160 q 286 67 292 85 q 265 35 281 50 q 225 10 250 19 q 160 0 200 0 q 94 10 119 0 q 53 35 68 19 q 33 69 39 51 q 28 104 28 88 q 32 157 28 129 q 42 215 36 185 q 51 278 47 246 q 56 342 56 310 l 56 401 q 51 466 56 433 q 42 529 47 499 q 32 588 36 560 q 28 640 28 615 q 33 675 28 657 q 53 708 39 693 q 94 734 68 724 q 160 744 119 744 q 258 717 229 744 q 290 657 286 689 q 350 713 315 689 q 433 749 385 738 q 509 757 467 756 q 591 748 551 758 q 663 713 631 738 q 710 647 696 689 q 772 710 735 682 q 860 749 808 738 q 950 757 899 757 q 1048 740 1001 757 q 1126 688 1094 724 q 1158 590 1158 653 q 1144 474 1158 533 q 1131 350 1131 415 l 1131 342 q 1144 219 1131 278 q 1158 101 1158 160 q 1153 67 1158 85 q 1132 35 1147 50 q 1092 10 1117 19 q 1026 0 1067 0 q 960 10 986 0 q 920 35 935 19 q 900 69 906 51 q 894 104 894 88 q 899 157 894 129 q 908 215 903 185 q 918 278 914 246 q 922 342 922 310 l 922 350 q 858 554 922 540 q 801 556 835 560 q 729 517 768 553 q 711 491 718 507 q 701 458 704 475 q 694 405 697 432 q 690 350 690 378 l 690 342 q 704 219 690 278 q 718 101 718 160 q 713 67 718 85 q 695 35 708 50 q 658 10 682 19 q 593 0 633 0 q 528 10 553 0 q 490 35 504 19 q 472 69 476 51 q 468 104 468 88 q 472 157 468 129 q 482 215 476 185 q 492 278 488 246 q 496 342 496 310 l 496 350 q 432 554 496 540 q 403 558 419 557 q 369 554 388 558 q 331 538 351 550 q 290 503 311 526 q 265 443 268 478 z "},"n":{"ha":778,"x_min":28,"x_max":750,"o":"m 271 443 q 269 422 269 432 q 269 401 269 413 l 269 342 q 283 219 269 278 q 297 101 297 160 q 291 67 297 85 q 269 35 285 50 q 228 10 254 19 q 163 0 203 0 q 97 10 122 0 q 56 35 71 19 q 34 69 40 51 q 28 104 28 88 q 32 157 28 129 q 42 215 36 185 q 51 278 47 246 q 56 342 56 310 l 56 401 q 51 466 56 433 q 42 529 47 499 q 32 588 36 560 q 28 640 28 615 q 34 675 28 657 q 56 708 40 693 q 97 734 71 724 q 163 744 122 744 q 226 735 200 744 q 267 713 251 726 q 289 682 282 699 q 297 649 296 665 q 363 710 325 682 q 451 749 400 738 q 542 757 490 757 q 640 740 593 757 q 718 688 686 724 q 750 590 750 653 q 736 474 750 533 q 722 350 722 415 l 722 342 q 736 219 722 278 q 750 101 750 160 q 744 67 750 85 q 724 35 739 50 q 683 10 708 19 q 618 0 658 0 q 552 10 578 0 q 512 35 526 19 q 492 69 497 51 q 486 104 486 88 q 490 157 486 129 q 500 215 494 185 q 510 278 506 246 q 514 342 514 310 l 514 350 q 450 554 514 540 q 420 558 438 557 q 383 553 403 558 q 342 537 364 549 q 297 501 319 525 q 279 475 286 490 q 271 443 272 460 z "},"o":{"ha":838,"x_min":24,"x_max":814,"o":"m 24 357 q 53 519 24 446 q 135 644 82 592 q 260 726 188 697 q 419 756 333 756 q 578 726 506 756 q 703 644 650 697 q 785 519 756 592 q 814 357 814 446 q 785 188 814 258 q 705 73 757 118 q 580 7 653 28 q 419 -14 507 -14 q 259 7 332 -14 q 134 73 186 28 q 53 188 82 118 q 24 357 24 258 m 244 369 q 252 301 244 333 q 280 245 260 269 q 334 206 300 221 q 421 192 368 192 q 508 206 474 192 q 562 245 542 221 q 590 301 582 269 q 597 369 597 333 q 551 517 597 463 q 421 571 506 571 q 290 517 336 571 q 244 369 244 463 z "},"p":{"ha":851,"x_min":28,"x_max":828,"o":"m 828 394 q 802 207 828 285 q 733 79 776 129 q 635 6 690 29 q 518 -18 579 -18 q 375 2 438 -18 q 267 56 313 22 q 282 -83 272 -14 q 292 -229 292 -151 q 255 -320 292 -294 q 156 -346 218 -346 q 90 -335 115 -346 q 51 -308 65 -325 q 33 -272 38 -292 q 28 -232 28 -251 q 32 -131 28 -178 q 42 -40 36 -83 q 51 47 47 4 q 56 133 56 89 l 56 261 q 51 348 56 306 q 42 434 47 390 q 32 525 36 478 q 28 626 28 572 q 33 666 28 646 q 51 703 38 686 q 90 730 65 719 q 156 740 115 740 q 241 723 203 740 q 289 656 279 706 q 386 725 329 699 q 518 751 443 751 q 607 740 554 751 q 709 690 660 728 q 793 583 758 653 q 828 394 828 513 m 607 368 q 600 436 607 404 q 575 492 593 468 q 526 531 557 517 q 447 546 494 546 q 372 531 406 546 q 314 492 338 517 q 277 435 290 467 q 263 368 264 403 q 278 287 261 322 q 322 228 294 251 q 382 192 349 204 q 447 181 415 181 q 564 223 521 181 q 607 368 607 265 z "},"q":{"ha":851,"x_min":24,"x_max":824,"o":"m 244 368 q 288 223 244 265 q 404 181 331 181 q 469 192 436 181 q 530 228 503 204 q 574 287 557 251 q 589 368 590 322 q 574 435 588 403 q 538 492 561 467 q 480 531 514 517 q 404 546 446 546 q 326 531 357 546 q 276 492 294 517 q 251 436 258 468 q 244 368 244 404 m 563 656 q 610 723 572 706 q 696 740 649 740 q 761 730 736 740 q 800 703 786 719 q 819 666 814 686 q 824 626 824 646 q 819 525 824 572 q 810 434 815 478 q 800 348 804 390 q 796 261 796 306 l 796 133 q 800 47 796 89 q 810 -40 804 4 q 819 -131 815 -83 q 824 -232 824 -178 q 819 -272 824 -251 q 800 -308 814 -292 q 761 -335 786 -325 q 696 -346 736 -346 q 597 -320 633 -346 q 560 -229 560 -294 q 569 -83 560 -151 q 585 56 578 -14 q 476 2 538 22 q 333 -18 414 -18 q 217 6 274 -18 q 118 79 161 29 q 49 207 75 129 q 24 394 24 285 q 58 583 24 513 q 142 690 93 653 q 244 740 192 728 q 333 751 297 751 q 465 725 408 751 q 563 656 522 699 z "},"r":{"ha":621,"x_min":28,"x_max":601,"o":"m 265 432 q 265 417 265 425 q 264 401 264 408 l 264 342 q 278 219 264 278 q 292 101 292 160 q 286 67 292 85 q 265 35 281 50 q 225 10 250 19 q 160 0 200 0 q 94 10 119 0 q 53 35 68 19 q 33 69 39 51 q 28 104 28 88 q 32 157 28 129 q 42 215 36 185 q 51 278 47 246 q 56 342 56 310 l 56 401 q 51 466 56 433 q 42 529 47 499 q 32 588 36 560 q 28 640 28 615 q 33 675 28 657 q 53 708 39 693 q 94 734 68 724 q 160 744 119 744 q 258 717 229 744 q 290 657 286 689 q 358 722 318 694 q 451 749 397 749 q 553 723 521 749 q 594 662 586 697 q 589 590 601 626 q 556 535 576 554 q 510 517 538 518 q 451 525 482 515 q 421 533 439 529 q 382 535 403 538 q 338 524 361 533 q 290 490 314 514 q 273 463 279 479 q 265 432 267 447 z "},"s":{"ha":726,"x_min":22,"x_max":701,"o":"m 292 544 q 308 522 292 532 q 348 503 324 511 q 401 487 372 494 q 458 471 431 479 q 544 440 500 458 q 622 394 588 422 q 679 327 657 367 q 701 232 701 288 q 667 106 701 154 q 587 31 633 57 q 491 -5 540 4 q 411 -14 442 -14 q 322 -9 369 -14 q 228 10 275 -4 q 135 49 181 24 q 51 114 90 74 q 26 165 31 138 q 31 217 22 192 q 60 265 40 243 q 103 299 79 288 q 155 307 128 310 q 206 283 182 304 q 274 233 242 251 q 332 206 306 215 q 378 194 358 196 q 410 192 399 192 q 426 192 415 192 q 449 197 438 193 q 468 208 460 200 q 476 231 476 215 q 439 279 476 261 q 328 321 401 297 q 213 365 261 343 q 131 413 164 386 q 83 472 99 439 q 68 551 68 506 q 84 625 68 589 q 135 690 100 661 q 226 738 171 719 q 361 756 282 756 q 438 749 399 756 q 512 731 476 742 q 576 709 547 721 q 624 689 606 697 q 683 629 671 665 q 681 564 694 593 q 632 522 667 535 q 553 529 597 508 q 449 565 500 554 q 374 575 399 575 q 318 570 344 575 q 292 544 292 565 z "},"t":{"ha":638,"x_min":18,"x_max":613,"o":"m 318 524 q 310 423 313 472 q 313 334 308 374 q 331 267 318 294 q 368 233 344 240 q 410 231 392 226 q 463 263 428 236 q 513 281 489 282 q 557 266 538 281 q 590 227 576 251 q 608 174 604 203 q 606 118 613 146 q 579 69 600 90 q 523 27 554 43 q 459 2 492 11 q 396 -10 426 -7 q 340 -12 365 -12 q 221 4 267 -12 q 149 51 175 21 q 113 122 122 81 q 103 210 104 163 q 105 308 101 257 q 108 411 108 360 q 108 460 108 438 q 107 506 108 483 q 72 543 107 532 q 35 572 49 550 q 19 642 21 593 q 28 705 18 683 q 58 736 39 726 q 90 778 90 750 l 90 818 q 95 858 90 838 q 114 894 100 878 q 154 922 128 911 q 222 932 181 932 q 291 921 265 932 q 331 892 317 910 q 349 855 344 875 q 354 815 354 835 q 350 763 354 794 q 356 740 347 747 q 379 735 364 732 q 424 742 401 739 q 475 744 447 744 q 513 740 494 744 q 544 725 531 736 q 567 694 558 714 q 575 642 575 674 q 566 590 575 610 q 542 558 557 569 q 510 543 528 547 q 472 539 492 539 q 413 544 442 539 q 356 553 385 549 q 331 547 340 556 q 318 524 321 539 z "},"u":{"ha":771,"x_min":28,"x_max":743,"o":"m 507 401 q 493 524 507 465 q 479 642 479 583 q 485 676 479 658 q 506 708 490 693 q 547 733 521 724 q 611 743 572 743 q 677 733 651 743 q 717 708 703 724 q 738 674 732 692 q 743 639 743 656 q 739 586 743 614 q 729 528 735 558 q 719 465 724 497 q 715 401 715 433 l 715 342 q 719 277 715 310 q 729 214 724 244 q 739 156 735 183 q 743 103 743 128 q 738 68 743 86 q 717 35 732 50 q 677 9 703 19 q 611 -1 651 -1 q 549 8 574 -1 q 510 30 525 17 q 488 60 494 43 q 479 93 481 76 q 414 33 451 60 q 326 -6 376 6 q 238 -12 288 -14 q 145 10 189 -10 q 72 67 101 29 q 42 167 42 104 q 49 276 42 224 q 56 393 56 328 l 56 401 q 42 524 56 465 q 28 642 28 583 q 33 676 28 658 q 54 708 39 693 q 95 733 69 724 q 160 743 121 743 q 226 733 200 743 q 266 708 251 724 q 286 674 281 692 q 292 639 292 656 q 288 586 292 614 q 278 528 283 558 q 268 465 272 497 q 264 401 264 433 l 264 393 q 328 189 264 203 q 403 210 357 182 q 492 318 449 239 q 503 348 499 331 q 507 382 507 365 l 507 401 z "},"v":{"ha":836,"x_min":17,"x_max":819,"o":"m 429 289 q 455 371 443 329 q 482 454 467 413 q 528 577 506 518 q 579 688 550 636 q 612 725 590 707 q 667 743 633 743 q 747 717 703 743 q 797 672 782 696 q 816 626 813 649 q 815 583 819 603 q 801 547 810 563 q 738 447 776 501 q 668 333 700 392 l 638 278 q 583 160 606 219 q 535 57 560 101 q 493 17 521 33 q 417 1 465 1 q 342 17 369 1 q 301 57 315 33 q 253 160 276 101 q 199 278 231 219 l 168 333 q 98 447 136 392 q 35 547 60 501 q 22 583 26 563 q 20 626 17 603 q 39 672 24 649 q 89 717 54 696 q 169 743 133 743 q 224 725 203 743 q 257 688 246 707 q 308 576 286 636 q 354 454 331 517 q 381 371 369 413 q 407 289 393 329 q 429 289 418 258 z "},"w":{"ha":1156,"x_min":8,"x_max":1146,"o":"m 775 265 q 792 351 785 308 q 810 438 799 393 q 840 561 825 501 q 878 675 854 621 q 910 718 888 697 q 971 739 932 739 q 1040 722 1001 739 q 1130 653 1114 690 q 1125 565 1146 617 q 1075 458 1106 518 q 1019 338 1044 397 l 996 281 q 958 172 971 221 q 925 76 944 122 q 882 23 911 44 q 785 1 853 1 q 701 15 736 1 q 651 63 667 29 q 637 105 644 79 q 621 160 629 131 q 604 219 613 189 q 588 276 596 250 q 578 292 583 292 q 568 276 572 292 q 551 219 560 250 q 535 160 543 189 q 519 105 526 131 q 504 63 511 79 q 458 16 490 31 q 381 1 426 1 q 278 21 311 1 q 229 76 244 40 q 197 172 210 122 q 158 281 183 221 l 135 338 q 79 458 110 397 q 29 565 49 518 q 28 653 8 617 q 121 722 47 690 q 190 739 161 739 q 251 718 229 739 q 283 675 274 697 q 322 561 307 621 q 351 438 336 501 q 368 357 361 397 q 383 276 375 317 q 397 276 390 244 q 413 357 406 317 q 431 440 421 397 q 460 565 446 504 q 497 678 474 625 q 526 720 507 700 q 578 740 544 740 q 635 726 603 740 q 706 676 689 703 q 703 599 722 649 q 698 585 700 592 q 693 572 696 579 q 709 508 701 540 q 725 440 717 475 q 743 352 736 396 q 760 265 750 308 q 767 250 763 250 q 775 265 772 250 z "},"x":{"ha":782,"x_min":17,"x_max":767,"o":"m 361 213 q 312 147 335 179 q 261 85 289 114 q 240 60 253 75 q 213 33 228 46 q 181 10 199 19 q 144 1 164 1 q 105 12 125 1 q 61 47 85 22 q 22 115 28 85 q 26 171 17 146 q 53 215 35 196 q 85 250 71 235 q 146 311 117 283 q 207 368 175 339 q 207 414 232 392 q 130 484 167 450 q 65 549 93 518 q 45 579 53 563 q 38 616 38 596 q 48 658 38 636 q 83 707 58 681 q 169 751 126 751 q 247 718 206 751 q 308 651 276 694 q 374 564 339 608 q 394 551 382 551 q 417 564 407 551 q 474 635 446 600 q 539 701 503 669 q 578 728 556 717 q 626 740 601 740 q 669 729 649 740 q 710 690 690 718 q 742 628 735 654 q 745 581 750 601 q 726 542 740 560 q 694 508 713 525 q 637 457 667 482 q 574 404 607 432 q 574 363 549 383 q 644 305 610 333 q 707 244 679 276 q 736 207 719 229 q 760 158 753 185 q 758 100 767 131 q 713 38 750 69 q 667 8 689 17 q 626 -1 646 -1 q 590 6 607 -1 q 560 23 574 13 q 536 45 547 33 q 517 67 525 57 q 462 135 489 97 q 403 213 435 172 q 382 225 394 225 q 361 213 372 225 z "},"y":{"ha":747,"x_min":-39,"x_max":719,"o":"m 490 315 q 483 383 489 347 q 472 457 478 418 q 460 536 465 496 q 456 619 456 576 q 492 713 456 685 q 590 740 528 740 q 657 729 632 740 q 696 701 682 718 q 715 663 710 683 q 719 622 719 642 q 717 521 719 568 q 710 430 714 474 q 704 344 707 386 q 701 257 701 301 l 701 118 q 700 -4 701 56 q 688 -117 699 -64 q 653 -215 678 -169 q 583 -292 629 -260 q 466 -343 538 -325 q 289 -361 394 -361 q 104 -326 185 -361 q -17 -236 24 -292 q -37 -181 -36 -210 q -26 -128 -39 -151 q 10 -89 -14 -104 q 65 -74 35 -74 q 125 -89 92 -74 q 238 -128 190 -121 q 331 -136 286 -136 q 408 -119 378 -136 q 458 -73 439 -101 q 485 -9 476 -44 q 494 61 493 26 q 443 32 472 46 q 383 8 414 18 q 319 -7 351 -1 q 260 -12 288 -12 q 184 -3 222 -12 q 115 26 146 6 q 63 82 83 47 q 43 167 43 117 q 49 276 43 224 q 54 393 54 328 l 54 401 q 40 524 54 465 q 26 642 26 583 q 32 676 26 658 q 53 708 38 693 q 94 733 68 724 q 158 743 119 743 q 224 733 199 743 q 265 708 250 724 q 285 674 279 692 q 290 639 290 656 q 286 586 290 614 q 276 528 282 558 q 267 465 271 497 q 263 401 263 433 l 263 393 q 326 189 263 203 q 390 195 353 183 q 469 256 428 207 q 490 315 490 281 z "},"z":{"ha":703,"x_min":24,"x_max":678,"o":"m 322 558 q 231 549 275 558 q 142 539 188 539 q 104 543 122 539 q 72 558 86 547 q 48 590 57 569 q 39 642 39 610 q 47 694 39 674 q 69 725 56 714 q 101 740 83 736 q 139 744 119 744 q 190 742 167 744 q 235 735 214 739 q 278 728 257 731 q 324 725 300 725 l 393 725 q 438 728 417 725 q 481 735 460 731 q 526 742 503 739 q 578 744 550 744 q 613 740 597 744 q 641 725 629 736 q 658 694 653 714 q 664 642 664 674 q 654 581 664 601 q 625 532 644 556 q 544 449 588 486 q 460 363 500 411 l 381 265 q 363 242 369 251 q 376 214 342 214 l 393 214 q 438 217 417 214 q 481 224 460 219 q 526 231 503 228 q 578 233 550 233 q 615 227 597 233 q 647 207 633 221 q 669 171 661 193 q 678 117 678 149 q 645 26 676 51 q 575 0 614 0 q 485 10 529 0 q 393 19 442 19 l 296 19 q 203 10 247 19 q 114 0 160 0 q 51 26 75 0 q 25 117 26 51 q 33 181 24 156 q 60 218 43 206 q 65 225 61 221 q 109 274 88 253 q 151 314 131 294 q 191 353 171 333 q 231 396 211 372 l 310 493 q 324 512 317 503 q 338 531 331 521 q 322 558 356 558 z "},"{":{"ha":656,"x_min":21,"x_max":638,"o":"m 561 1194 q 616 1171 594 1194 q 632 1113 638 1147 q 608 1060 629 1088 q 561 999 588 1032 q 513 909 532 961 q 483 794 494 857 q 467 663 472 732 q 463 522 463 593 q 467 377 463 451 q 483 232 472 303 q 513 99 494 161 q 561 -11 532 36 q 592 -59 579 -40 q 613 -93 604 -78 q 627 -123 622 -108 q 633 -157 632 -137 q 628 -181 633 -167 q 614 -207 624 -194 q 591 -228 604 -219 q 561 -236 578 -236 q 415 -176 478 -236 q 308 -22 351 -117 q 240 190 265 72 q 208 422 215 307 q 159 421 183 421 q 111 421 135 421 q 48 443 72 421 q 22 519 24 465 q 45 595 21 572 q 108 618 69 618 q 161 617 136 618 q 210 617 186 617 q 244 831 218 728 q 314 1016 269 935 q 420 1146 358 1097 q 561 1194 482 1194 z "},"|":{"ha":333,"x_min":28,"x_max":306,"o":"m 56 465 q 51 571 56 510 q 42 698 47 632 q 32 827 36 764 q 28 939 28 890 q 33 978 28 958 q 54 1016 39 999 q 97 1044 69 1033 q 167 1056 124 1056 q 235 1045 208 1056 q 278 1018 263 1035 q 300 981 294 1001 q 306 942 306 961 q 301 823 306 888 q 292 694 297 758 q 282 569 286 629 q 278 465 278 510 l 278 243 q 282 139 278 199 q 292 15 286 79 q 301 -115 297 -50 q 306 -233 306 -179 q 300 -273 306 -253 q 278 -310 294 -293 q 235 -337 263 -326 q 167 -347 208 -347 q 97 -336 124 -347 q 54 -308 69 -325 q 33 -270 39 -290 q 28 -231 28 -250 q 32 -119 28 -182 q 42 10 36 -56 q 51 138 47 76 q 56 243 56 199 l 56 465 z "},"}":{"ha":656,"x_min":18,"x_max":635,"o":"m 94 1194 q 235 1146 174 1194 q 342 1016 297 1097 q 412 831 386 935 q 446 617 438 728 q 494 617 469 617 q 547 618 519 618 q 610 595 586 618 q 633 519 635 572 q 608 443 632 465 q 544 421 583 421 q 497 421 521 421 q 447 422 472 421 q 415 190 440 307 q 347 -22 390 72 q 241 -176 304 -117 q 94 -236 178 -236 q 65 -228 78 -236 q 42 -207 51 -219 q 27 -181 32 -194 q 22 -157 22 -167 q 28 -123 24 -137 q 42 -93 33 -108 q 64 -59 51 -78 q 94 -11 76 -40 q 142 99 124 36 q 172 232 161 161 q 188 377 183 303 q 193 522 193 451 q 188 663 193 593 q 172 794 183 732 q 142 909 161 857 q 94 999 124 961 q 47 1060 68 1032 q 24 1113 26 1088 q 40 1171 18 1147 q 94 1194 61 1194 z "},"~":{"ha":614,"x_min":25,"x_max":586,"o":"m 286 488 q 242 508 261 497 q 204 521 224 518 q 158 515 185 524 q 89 475 131 506 q 56 477 72 463 q 32 517 39 492 q 31 573 25 543 q 65 621 38 603 q 122 653 96 640 q 176 671 149 667 q 234 672 204 675 q 300 654 264 668 q 351 635 328 644 q 396 625 374 626 q 441 633 418 624 q 490 668 464 643 q 534 678 511 689 q 572 644 557 668 q 585 590 586 621 q 557 539 585 560 q 412 471 476 478 q 286 488 347 464 z "},"":{"ha":361,"x_min":28,"x_max":333,"o":"m 43 636 q 78 724 43 692 q 179 756 113 756 q 281 724 246 756 q 315 636 315 692 q 281 550 315 582 q 179 518 246 518 q 78 550 113 518 q 43 636 43 582 m 67 111 q 73 240 74 175 q 72 354 72 306 q 76 389 72 371 q 92 423 81 407 q 124 449 103 439 q 181 458 146 458 q 236 449 215 458 q 269 424 257 439 q 285 391 281 408 q 289 357 289 374 q 288 237 289 299 q 294 111 288 175 l 304 31 q 313 -27 308 -1 q 322 -78 318 -53 q 330 -135 326 -104 q 333 -210 333 -167 q 297 -295 333 -264 q 181 -326 260 -326 q 64 -294 100 -326 q 28 -208 28 -261 q 31 -138 28 -168 q 39 -81 35 -108 q 48 -28 43 -54 q 57 31 53 -1 l 67 111 z "},"":{"ha":760,"x_min":21,"x_max":744,"o":"m 585 532 q 494 563 532 556 q 425 571 457 571 q 292 517 340 571 q 243 369 243 463 q 251 301 243 333 q 280 245 260 269 q 332 206 300 221 q 411 192 364 192 q 456 198 438 192 q 491 215 475 204 q 523 239 507 225 q 558 269 539 253 q 636 292 596 301 q 704 252 676 283 q 738 178 732 221 q 713 100 744 136 q 619 34 678 61 q 494 -6 560 7 q 495 -57 494 -33 q 496 -94 496 -81 q 496 -134 496 -114 q 488 -171 496 -154 q 459 -198 479 -187 q 399 -208 439 -208 q 338 -197 358 -208 q 310 -169 318 -186 q 301 -131 301 -151 q 301 -92 301 -111 q 302 -56 301 -79 q 303 -4 303 -32 q 189 35 240 8 q 100 106 138 63 q 42 213 63 150 q 21 357 21 275 q 41 491 21 429 q 99 602 61 553 q 188 686 136 651 q 301 739 239 721 l 301 788 q 301 827 301 807 q 310 865 301 847 q 338 893 318 882 q 399 904 358 904 q 459 894 439 904 q 488 867 479 883 q 496 830 496 850 q 496 790 496 810 l 496 750 q 581 727 544 743 q 656 692 617 711 q 699 641 689 675 q 699 576 710 607 q 660 529 689 546 q 585 532 631 513 z "},"":{"ha":779,"x_min":69,"x_max":757,"o":"m 417 28 q 347 24 372 28 q 303 14 321 19 q 272 4 286 8 q 235 0 258 0 q 195 5 215 0 q 158 24 175 10 q 129 63 140 38 q 118 132 118 89 q 125 188 118 165 q 143 226 132 211 q 188 297 171 268 q 217 351 206 325 q 232 405 228 376 q 236 475 236 433 q 197 471 217 472 q 160 469 178 469 q 97 487 121 469 q 71 558 72 504 q 94 629 69 611 q 157 647 118 647 q 199 646 179 647 q 238 642 218 644 q 256 799 242 724 q 301 932 269 875 q 383 1023 332 989 q 510 1057 433 1057 q 610 1049 558 1057 q 711 1007 661 1042 q 747 951 742 986 q 737 887 751 917 q 693 842 722 857 q 625 843 664 826 q 571 858 594 857 q 524 853 547 860 q 486 824 501 846 q 462 772 471 803 q 449 706 453 742 q 443 633 444 669 q 511 642 471 636 q 610 647 551 647 q 673 629 649 647 q 696 558 697 611 q 670 487 694 504 q 607 469 646 469 q 517 475 558 469 q 446 483 475 481 q 444 403 447 438 q 433 340 440 368 q 416 288 426 313 q 393 236 406 264 l 417 236 l 458 236 q 527 240 503 236 q 567 250 551 244 q 599 260 583 256 q 643 264 615 264 q 683 259 663 264 q 719 240 703 254 q 747 200 736 226 q 757 132 757 174 q 746 63 757 89 q 717 24 735 38 q 680 5 700 10 q 640 0 660 0 q 603 4 618 0 q 572 14 589 8 q 528 24 554 19 q 458 28 503 28 l 417 28 z "},"":{"ha":740,"x_min":14,"x_max":719,"o":"m 33 507 q 49 615 33 567 q 92 703 64 664 q 80 717 85 710 q 68 731 75 724 q 23 813 32 775 q 54 888 14 851 q 93 909 74 906 q 131 906 113 913 q 168 884 150 900 q 204 846 186 868 q 219 827 213 836 q 233 808 226 818 q 376 833 299 833 q 442 829 410 833 q 503 815 474 825 q 515 830 510 822 q 526 846 519 838 q 563 884 544 868 q 599 906 581 900 q 638 909 618 913 q 676 888 657 906 q 708 813 717 851 q 663 731 699 775 l 660 728 l 653 719 l 650 717 q 701 624 682 676 q 719 507 719 572 q 703 385 719 438 q 657 293 686 332 l 663 288 q 708 206 699 244 q 675 135 717 167 q 595 117 631 101 q 524 178 560 133 q 516 188 519 183 q 508 197 513 192 q 376 181 449 181 q 226 203 292 181 q 224 201 225 201 q 221 197 222 200 l 213 185 q 207 178 208 181 q 135 117 171 133 q 56 135 100 101 q 23 206 14 167 q 68 288 32 244 l 85 308 q 47 395 60 346 q 33 507 33 444 m 232 518 q 239 458 232 486 q 263 408 246 429 q 307 374 279 386 q 378 361 335 361 q 449 374 421 361 q 494 408 478 386 q 518 458 511 429 q 525 518 525 486 q 485 635 525 600 q 378 671 444 671 q 272 635 311 671 q 232 518 232 600 z "},"":{"ha":894,"x_min":11,"x_max":883,"o":"m 29 864 q 15 903 18 881 q 19 948 11 925 q 50 993 28 971 q 111 1032 72 1015 q 179 1049 150 1049 q 229 1038 208 1049 q 263 1010 250 1028 q 285 974 276 993 q 337 851 317 901 q 374 762 357 801 q 407 687 390 722 q 447 606 424 651 q 488 687 471 651 q 521 762 504 722 q 558 851 538 801 q 610 974 579 901 q 631 1010 618 993 q 665 1038 644 1028 q 715 1049 686 1049 q 783 1032 744 1049 q 845 993 824 1015 q 875 948 867 971 q 880 903 883 925 q 865 864 876 881 q 786 749 824 800 q 714 652 749 699 q 647 560 679 606 q 582 460 614 514 q 641 466 608 463 q 718 469 674 469 q 781 455 757 469 q 804 388 806 440 q 778 319 803 333 q 715 306 754 306 q 626 311 667 306 q 556 319 585 317 q 559 285 558 301 q 563 249 560 268 q 628 257 590 253 q 718 261 665 261 q 781 247 757 261 q 804 179 806 232 q 778 111 803 125 q 715 97 754 97 q 635 101 672 97 q 571 110 599 106 q 566 72 571 92 q 548 35 561 51 q 510 10 535 19 q 446 0 486 0 q 380 10 404 0 q 342 37 356 21 q 325 72 329 53 q 321 110 321 92 q 251 101 286 106 q 185 97 217 97 q 122 111 146 97 q 96 179 97 125 q 119 247 94 232 q 182 261 143 261 q 258 256 222 261 q 329 247 294 250 q 333 284 332 267 q 338 319 335 301 q 260 311 299 317 q 185 306 221 306 q 122 319 146 306 q 96 388 97 333 q 119 455 94 440 q 182 469 143 469 q 250 465 218 469 q 314 457 282 461 q 250 558 283 511 q 182 651 217 604 q 109 749 147 697 q 29 864 71 800 z "},"":{"ha":333,"x_min":35,"x_max":299,"o":"m 56 465 q 52 571 56 510 q 45 698 49 632 q 38 827 42 764 q 35 939 35 890 q 40 978 35 958 q 58 1016 44 999 q 98 1044 72 1033 q 167 1056 124 1056 q 235 1045 208 1056 q 275 1018 261 1035 q 294 981 289 1001 q 299 942 299 961 q 295 823 299 888 q 288 694 292 758 q 281 569 285 629 q 278 465 278 510 l 56 465 m 278 243 q 281 139 278 199 q 288 15 285 79 q 295 -115 292 -50 q 299 -233 299 -179 q 294 -273 299 -253 q 275 -310 289 -293 q 235 -337 261 -326 q 167 -347 208 -347 q 98 -336 124 -347 q 58 -308 72 -325 q 40 -270 44 -290 q 35 -231 35 -250 q 38 -119 35 -182 q 45 10 42 -56 q 52 138 49 76 q 56 243 56 199 l 278 243 z "},"":{"ha":785,"x_min":24,"x_max":760,"o":"m 297 821 q 310 781 297 797 q 347 749 324 764 q 401 719 369 735 q 472 685 433 704 q 573 632 522 660 q 665 570 624 604 q 733 494 707 536 q 760 397 760 451 q 723 278 760 331 q 601 199 686 225 q 663 155 635 179 q 713 99 692 131 q 747 28 735 68 q 760 -62 760 -11 q 740 -187 760 -132 q 676 -282 719 -243 q 565 -341 633 -321 q 397 -361 496 -361 q 297 -349 346 -361 q 204 -317 247 -337 q 125 -270 161 -297 q 63 -212 89 -243 q 28 -144 33 -178 q 35 -82 24 -110 q 73 -35 47 -54 q 128 -9 99 -15 q 190 -12 158 -3 q 244 -51 221 -22 q 273 -80 256 -65 q 310 -106 290 -94 q 353 -124 331 -117 q 397 -132 375 -132 q 485 -122 453 -132 q 517 -78 517 -112 q 505 -40 517 -56 q 472 -12 493 -25 q 424 13 451 0 q 364 42 396 25 q 242 110 297 76 q 149 183 188 143 q 89 272 110 222 q 68 388 68 321 q 101 497 68 454 q 188 565 135 540 q 99 666 129 610 q 68 806 68 722 q 95 920 68 872 q 168 998 122 968 q 275 1042 214 1028 q 403 1057 336 1057 q 491 1049 453 1057 q 561 1029 529 1042 q 620 1001 593 1017 q 672 969 647 986 q 719 922 706 949 q 733 867 733 894 q 719 817 732 840 q 685 780 706 794 q 639 764 664 765 q 588 779 614 763 q 547 806 568 792 q 502 833 526 821 q 450 853 478 846 q 389 861 422 861 q 297 821 297 861 m 297 403 q 334 340 297 363 q 432 288 371 317 q 494 301 472 290 q 517 340 517 311 q 508 374 517 360 q 483 399 499 388 q 444 421 467 411 q 397 443 422 431 l 389 443 q 297 403 297 443 z "},"":{"ha":399,"x_min":21,"x_max":378,"o":"m 21 981 q 42 1038 21 1017 q 103 1058 63 1058 q 163 1038 143 1058 q 183 981 183 1017 q 163 924 183 944 q 103 903 143 903 q 42 924 63 903 q 21 981 21 944 m 215 981 q 236 1038 215 1017 q 297 1058 257 1058 q 358 1038 338 1058 q 378 981 378 1017 q 358 924 378 944 q 297 903 338 903 q 236 924 257 903 q 215 981 215 944 z "},"":{"ha":1085,"x_min":21,"x_max":1064,"o":"m 21 521 q 56 724 21 628 q 158 894 92 821 q 322 1012 225 968 q 543 1056 419 1056 q 762 1012 665 1056 q 926 894 858 968 q 1028 724 993 821 q 1064 521 1064 628 q 1025 297 1064 396 q 917 128 986 197 q 751 23 847 60 q 543 -14 656 -14 q 333 23 429 -14 q 168 128 238 60 q 60 297 99 197 q 21 521 21 396 m 194 522 q 217 379 194 446 q 284 263 240 313 q 393 184 328 213 q 543 156 458 156 q 693 184 628 156 q 802 263 758 213 q 869 379 846 313 q 892 522 892 446 q 871 666 892 597 q 808 787 850 735 q 699 870 765 839 q 543 901 633 901 q 387 870 453 901 q 278 787 321 839 q 215 666 236 735 q 194 522 194 597 m 635 400 q 694 424 660 424 q 752 408 728 424 q 783 367 776 393 q 758 314 789 342 q 674 265 722 282 q 553 249 625 249 q 416 268 472 249 q 326 325 360 288 q 276 416 292 363 q 261 536 261 469 q 277 645 261 593 q 328 737 293 697 q 419 800 364 776 q 553 824 475 824 q 612 820 586 824 q 657 812 638 817 q 694 799 676 807 q 728 783 711 792 q 768 743 763 767 q 760 701 774 719 q 722 676 747 683 q 671 682 697 668 q 618 707 643 696 q 553 718 593 718 q 488 704 513 718 q 450 665 464 690 q 432 608 436 640 q 428 538 428 575 q 453 415 428 461 q 553 369 479 369 q 601 377 583 369 q 635 400 619 385 z "},"":{"ha":582,"x_min":28,"x_max":531,"o":"m 28 824 q 44 933 28 878 q 91 1034 61 989 q 164 1108 121 1079 q 260 1136 207 1136 q 316 1126 292 1136 q 363 1097 340 1115 q 390 1120 372 1111 q 440 1129 408 1129 q 485 1122 468 1129 q 513 1105 503 1115 q 527 1082 524 1094 q 531 1058 531 1069 q 522 978 531 1019 q 513 893 513 938 l 513 851 q 522 766 513 807 q 531 686 531 725 q 527 661 531 674 q 513 638 524 649 q 485 621 503 628 q 440 614 468 614 q 376 631 396 614 q 351 668 357 649 q 293 623 328 640 q 201 606 258 606 q 71 653 114 606 q 28 824 28 701 m 181 832 q 206 765 181 782 q 268 747 232 747 q 344 784 319 747 q 368 869 368 821 q 353 972 368 935 q 279 1008 338 1008 q 239 992 257 1008 q 208 949 221 975 q 188 892 194 922 q 181 832 181 861 z "},"":{"ha":642,"x_min":22,"x_max":622,"o":"m 232 297 q 210 274 221 286 q 190 251 200 263 q 210 228 200 240 q 232 206 221 217 l 254 181 q 265 171 260 175 q 275 161 269 167 l 318 119 q 329 110 324 114 q 339 100 335 106 q 356 63 354 83 q 322 19 358 43 q 263 1 288 -4 q 224 24 239 7 q 184 69 200 47 q 149 113 168 92 l 126 136 q 85 174 107 156 q 42 215 64 192 q 26 234 31 225 q 22 251 22 243 q 26 269 22 260 q 42 288 31 278 q 85 328 64 311 q 126 365 107 346 l 149 390 q 184 433 168 411 q 224 479 200 454 q 263 501 239 494 q 322 483 288 507 q 356 440 358 460 q 339 401 354 419 q 329 392 335 396 q 318 382 324 388 l 275 340 q 265 331 269 335 q 254 321 260 326 l 232 297 m 496 297 q 474 274 485 286 q 454 251 464 263 q 474 228 464 240 q 496 206 485 217 l 518 181 q 528 171 524 175 q 539 161 533 167 l 582 119 q 593 110 588 114 q 603 100 599 106 q 620 63 618 83 q 586 19 622 43 q 527 1 551 -4 q 488 24 503 7 q 448 69 464 47 q 413 113 432 92 l 390 136 q 349 174 371 156 q 306 215 328 192 q 290 234 294 225 q 286 251 286 243 q 290 269 286 260 q 306 288 294 278 q 349 328 328 311 q 390 365 371 346 l 413 390 q 448 433 432 411 q 488 479 464 454 q 527 501 503 494 q 586 483 551 507 q 620 440 622 460 q 603 401 618 419 q 593 392 599 396 q 582 382 588 388 l 539 340 q 528 331 533 335 q 518 321 524 326 l 496 297 z "},"":{"ha":726,"x_min":22,"x_max":706,"o":"m 321 556 q 222 547 272 556 q 125 539 171 539 q 88 543 106 539 q 55 558 69 547 q 31 590 40 569 q 22 642 22 610 q 31 694 22 674 q 53 725 39 714 q 85 740 67 736 q 122 744 103 744 q 226 736 179 744 q 321 728 272 728 l 390 728 q 485 736 439 728 q 589 744 532 744 q 626 740 608 744 q 658 725 644 736 q 681 694 672 714 q 689 642 689 674 l 689 586 q 697 488 689 538 q 706 381 706 438 q 701 343 706 361 q 684 311 696 325 q 652 289 672 297 q 600 281 632 281 q 547 290 568 281 q 515 313 526 299 q 499 346 503 328 q 494 383 494 364 q 501 462 494 419 q 510 544 507 504 q 449 551 479 547 q 390 556 419 556 l 321 556 z "},"":{"ha":1085,"x_min":21,"x_max":1064,"o":"m 21 521 q 56 724 21 628 q 158 894 92 821 q 322 1012 225 968 q 543 1056 419 1056 q 762 1012 665 1056 q 926 894 858 968 q 1028 724 993 821 q 1064 521 1064 628 q 1025 297 1064 396 q 917 128 986 197 q 751 23 847 60 q 543 -14 656 -14 q 333 23 429 -14 q 168 128 238 60 q 60 297 99 197 q 21 521 21 396 m 194 522 q 217 379 194 446 q 284 263 240 313 q 393 184 328 213 q 543 156 458 156 q 693 184 628 156 q 802 263 758 213 q 869 379 846 313 q 892 522 892 446 q 871 666 892 597 q 808 787 850 735 q 699 870 765 839 q 543 901 633 901 q 387 870 453 901 q 278 787 321 839 q 215 666 236 735 q 194 522 194 597 m 483 442 q 490 382 486 413 q 494 314 494 351 q 478 273 494 293 q 414 254 463 253 q 349 274 365 254 q 333 315 333 294 q 342 414 333 368 q 350 506 350 460 l 350 550 q 342 644 350 599 q 333 742 333 690 q 361 792 333 781 q 421 804 389 804 l 519 804 q 709 763 644 804 q 774 631 774 722 q 742 535 774 574 q 658 478 711 497 q 714 428 686 451 q 774 368 742 404 q 785 349 781 360 q 790 327 790 339 q 781 302 789 315 q 753 275 772 289 q 688 254 714 247 q 647 276 663 261 q 585 358 611 317 q 528 435 560 399 l 519 446 q 496 456 510 456 q 483 442 481 456 m 519 558 q 608 580 582 558 q 633 632 633 601 q 613 681 633 663 q 526 700 592 699 q 490 667 494 700 q 490 658 490 663 q 488 649 489 654 l 483 611 q 482 602 482 607 q 481 592 482 597 q 488 567 479 576 q 513 558 497 558 l 519 558 z "},"":{"ha":614,"x_min":-28,"x_max":642,"o":"m 272 1069 q 166 1061 224 1069 q 63 1053 108 1053 q -1 1070 24 1053 q -26 1142 -25 1088 q -3 1213 -28 1194 q 60 1231 21 1231 q 170 1222 117 1231 q 272 1214 224 1214 l 342 1214 q 423 1222 369 1214 q 554 1231 476 1231 q 617 1213 593 1231 q 640 1142 642 1194 q 615 1070 639 1088 q 551 1053 590 1053 q 427 1061 485 1053 q 342 1069 369 1069 l 272 1069 z "},"":{"ha":519,"x_min":61,"x_max":472,"o":"m 61 1013 q 116 1158 61 1104 q 267 1213 171 1213 q 418 1158 364 1213 q 472 1013 472 1104 q 418 864 472 918 q 267 810 364 810 q 116 864 171 810 q 61 1013 61 918 m 196 1013 q 211 961 196 981 q 267 942 226 942 q 323 961 307 942 q 339 1013 339 981 q 323 1062 339 1042 q 267 1082 307 1082 q 210 1062 225 1082 q 196 1013 196 1042 z "},"":{"ha":697,"x_min":22,"x_max":675,"o":"m 256 517 q 189 508 222 513 q 125 504 156 504 q 55 527 86 504 q 22 614 24 550 q 31 667 22 646 q 53 700 39 688 q 85 718 67 713 q 122 724 103 724 q 191 719 158 724 q 256 711 224 715 q 247 776 251 743 q 243 838 243 808 q 247 875 243 857 q 263 908 251 893 q 296 931 275 922 q 349 940 317 940 q 401 932 381 940 q 433 910 421 924 q 449 878 444 896 q 454 840 454 860 q 451 773 454 804 q 443 711 447 742 q 507 719 475 715 q 575 724 539 724 q 613 718 594 724 q 644 700 631 713 q 667 667 658 688 q 675 614 675 646 q 642 527 674 550 q 572 504 611 504 q 509 508 542 504 q 443 517 476 513 q 451 455 447 486 q 454 388 454 424 q 449 350 454 368 q 433 318 444 332 q 401 296 421 304 q 349 288 381 288 q 296 297 317 288 q 263 320 275 306 q 247 353 251 335 q 243 390 243 371 q 247 452 243 419 q 256 517 251 485 m 321 17 q 222 8 272 17 q 125 0 171 0 q 55 23 86 0 q 22 110 24 46 q 31 163 22 142 q 53 196 39 183 q 85 214 67 208 q 122 219 103 219 q 226 211 179 219 q 321 203 272 203 l 376 203 q 472 211 425 203 q 575 219 518 219 q 613 214 594 219 q 644 196 631 208 q 667 163 658 183 q 675 110 675 142 q 642 23 674 46 q 572 0 611 0 q 476 8 526 0 q 376 17 425 17 l 321 17 z "},"":{"ha":624,"x_min":56,"x_max":586,"o":"m 369 1121 q 369 1138 369 1128 q 363 1156 368 1147 q 345 1170 357 1164 q 313 1176 333 1176 q 282 1167 294 1176 q 258 1147 269 1158 q 235 1122 247 1135 q 208 1100 224 1108 q 145 1097 178 1083 q 94 1136 113 1110 q 78 1194 75 1163 q 119 1246 81 1225 q 205 1283 160 1265 q 313 1300 250 1300 q 410 1290 364 1300 q 492 1256 457 1279 q 549 1197 528 1233 q 569 1108 569 1160 q 551 1029 569 1063 q 506 971 533 996 q 447 926 479 946 q 383 886 414 906 q 329 846 353 867 q 297 797 306 825 l 297 794 l 336 794 l 349 794 q 403 797 383 794 q 435 803 422 800 q 462 810 449 807 q 496 813 475 813 q 528 808 511 813 q 558 794 544 804 q 578 768 571 785 q 586 725 586 751 q 556 655 585 672 q 494 638 526 638 q 460 640 476 638 q 424 646 443 643 q 381 651 406 649 q 322 654 357 654 l 310 654 q 252 651 275 654 q 212 646 229 649 q 180 640 194 643 q 149 638 165 638 q 87 655 117 638 q 56 725 57 672 q 65 774 56 754 q 111 876 82 835 q 174 947 140 918 q 242 997 207 976 q 306 1036 278 1018 q 351 1074 333 1054 q 369 1121 369 1093 z "},"":{"ha":579,"x_min":18,"x_max":551,"o":"m 256 944 q 199 938 221 944 q 143 932 176 932 q 91 948 114 932 q 67 1004 68 964 q 90 1060 67 1044 q 140 1075 113 1075 q 193 1069 172 1075 q 244 1063 214 1063 q 301 1070 282 1063 q 328 1089 321 1078 q 336 1113 336 1100 q 336 1136 336 1125 q 323 1176 336 1158 q 283 1194 310 1194 q 208 1178 242 1194 q 143 1150 175 1163 q 85 1147 113 1138 q 44 1178 58 1157 q 37 1224 31 1199 q 81 1271 43 1250 q 176 1305 118 1292 q 283 1318 233 1318 q 381 1307 336 1318 q 458 1275 425 1296 q 508 1223 490 1254 q 526 1149 526 1192 q 504 1069 526 1099 q 443 1015 482 1040 q 524 946 497 992 q 551 844 551 900 q 481 689 551 740 q 279 638 410 638 q 144 665 201 638 q 47 732 86 693 q 22 776 25 754 q 27 815 18 797 q 55 846 36 833 q 96 863 74 858 q 141 860 118 867 q 182 835 164 854 q 223 800 199 818 q 279 782 247 782 q 305 785 292 782 q 328 797 318 788 q 344 822 338 806 q 350 868 350 839 q 330 920 350 896 q 256 944 310 944 z "},"":{"ha":321,"x_min":8,"x_max":308,"o":"m 110 1026 q 137 1049 121 1042 q 169 1056 153 1056 l 272 1056 q 281 1032 308 1056 l 142 910 q 106 890 126 897 q 65 882 85 882 l 44 882 q 29 911 8 882 l 110 1026 z "},"":{"ha":925,"x_min":21,"x_max":897,"o":"m 557 271 q 560 160 557 226 q 567 24 564 94 q 574 -114 571 -46 q 578 -231 578 -182 q 576 -270 578 -250 q 562 -308 574 -290 q 526 -336 550 -325 q 460 -347 503 -347 q 394 -337 418 -347 q 358 -310 369 -326 q 344 -273 347 -293 q 342 -233 342 -253 q 345 -110 342 -179 q 352 28 349 -42 q 359 163 356 99 q 363 271 363 226 l 363 336 q 225 377 288 347 q 117 451 163 407 q 47 556 72 496 q 21 688 21 615 q 56 854 21 786 q 150 964 90 922 q 288 1024 210 1006 q 456 1042 367 1042 l 458 1042 l 458 1042 l 458 1042 q 510 1038 486 1042 q 554 1031 533 1035 q 596 1024 575 1026 q 640 1021 617 1021 l 640 1021 q 685 1024 664 1021 q 728 1031 707 1028 q 774 1038 750 1035 q 825 1042 797 1042 q 861 1031 847 1042 q 883 1002 875 1019 q 894 965 892 985 q 897 928 897 944 l 897 925 q 894 808 897 876 q 887 670 890 740 q 880 534 883 600 q 876 424 876 468 l 876 271 q 880 160 876 226 q 887 24 883 94 q 894 -114 890 -46 q 897 -231 897 -182 q 895 -270 897 -250 q 881 -308 893 -290 q 846 -336 869 -325 q 779 -347 822 -347 q 713 -337 738 -347 q 678 -310 689 -326 q 664 -273 667 -293 q 661 -233 661 -253 q 665 -110 661 -179 q 672 28 668 -42 q 678 163 675 99 q 682 271 682 226 l 682 424 q 680 508 682 460 q 674 613 678 557 q 668 725 671 668 q 663 835 665 782 l 640 835 l 640 835 q 575 831 607 835 q 570 724 574 781 q 564 612 567 667 q 559 508 561 557 q 557 424 557 460 l 557 271 z "},"":{"ha":314,"x_min":21,"x_max":293,"o":"m 21 510 q 56 596 21 564 q 157 628 90 628 q 258 596 224 628 q 293 510 293 564 q 258 422 293 454 q 157 390 224 390 q 56 422 90 390 q 21 510 21 454 z "},"":{"ha":361,"x_min":56,"x_max":336,"o":"m 190 -336 q 125 -324 149 -336 q 83 -297 101 -311 q 58 -251 60 -279 q 67 -200 56 -222 q 99 -171 78 -178 q 142 -186 119 -164 q 188 -211 163 -207 q 228 -192 214 -215 q 232 -172 232 -186 q 222 -143 232 -157 q 187 -119 211 -129 q 115 -108 163 -108 l 146 14 l 251 14 l 233 -54 q 281 -72 261 -57 q 313 -107 300 -87 q 331 -148 325 -126 q 336 -183 336 -169 q 324 -252 336 -224 q 291 -299 311 -281 q 244 -327 271 -318 q 190 -336 218 -336 z "},"":{"ha":456,"x_min":11,"x_max":379,"o":"m 175 975 q 172 1032 175 1004 q 165 1089 168 1060 q 117 1065 139 1081 q 105 1061 114 1064 q 83 1059 96 1058 q 56 1065 71 1060 q 28 1086 42 1071 q 13 1114 14 1101 q 16 1136 11 1126 q 28 1153 21 1146 q 40 1161 36 1160 q 74 1181 58 1172 q 107 1199 90 1189 q 125 1213 118 1206 q 140 1229 132 1221 q 156 1247 147 1238 q 182 1264 165 1256 q 267 1283 208 1283 q 323 1277 301 1283 q 357 1260 344 1271 q 374 1236 369 1249 q 379 1211 379 1224 q 368 1088 379 1142 q 357 975 357 1033 l 357 922 q 368 811 357 865 q 379 688 379 757 q 374 662 379 675 q 357 638 369 649 q 323 620 344 626 q 267 614 301 614 q 210 622 232 614 q 175 640 188 629 q 158 663 163 650 q 154 689 154 676 q 165 808 154 751 q 175 922 175 864 l 175 975 z "},"":{"ha":581,"x_min":22,"x_max":547,"o":"m 22 864 q 42 971 22 922 q 97 1054 61 1019 q 180 1108 132 1089 q 285 1128 228 1128 q 390 1108 342 1128 q 473 1054 438 1089 q 528 971 508 1019 q 547 864 547 922 q 528 751 547 797 q 474 675 508 704 q 392 632 440 646 q 285 618 343 618 q 178 632 226 618 q 95 675 129 646 q 42 751 61 704 q 22 864 22 797 m 169 872 q 174 827 169 849 q 192 790 179 806 q 228 764 206 774 q 286 754 251 754 q 344 764 321 754 q 380 790 367 774 q 398 827 393 806 q 403 872 403 849 q 372 970 403 935 q 286 1006 342 1006 q 199 970 229 1006 q 169 872 169 935 z "},"":{"ha":642,"x_min":19,"x_max":619,"o":"m 388 321 q 378 331 383 326 q 367 340 372 335 l 324 382 q 313 392 318 388 q 303 401 308 396 q 285 440 288 419 q 319 483 283 460 q 378 501 354 507 q 418 479 403 494 q 458 433 442 454 q 493 390 474 411 l 515 365 q 556 328 535 346 q 600 288 578 311 q 615 269 611 278 q 619 251 619 260 q 615 234 619 243 q 600 215 611 225 q 556 174 578 192 q 515 136 535 156 l 493 113 q 458 69 474 92 q 418 24 442 47 q 378 1 403 7 q 319 19 354 -4 q 285 63 283 43 q 303 100 288 83 q 313 110 308 106 q 324 119 318 114 l 367 161 q 378 171 372 167 q 388 181 383 175 l 410 206 q 431 228 421 217 q 451 251 442 240 q 431 274 442 263 q 410 297 421 286 l 388 321 m 124 321 q 114 331 119 326 q 103 340 108 335 l 60 382 q 49 392 54 388 q 39 401 44 396 q 22 440 24 419 q 56 483 19 460 q 115 501 90 507 q 154 479 139 494 q 194 433 178 454 q 229 390 210 411 l 251 365 q 292 328 271 346 q 336 288 314 311 q 351 269 347 278 q 356 251 356 260 q 351 234 356 243 q 336 215 347 225 q 292 174 314 192 q 251 136 271 156 l 229 113 q 194 69 210 92 q 154 24 178 47 q 115 1 139 7 q 56 19 90 -4 q 22 63 19 43 q 39 100 24 83 q 49 110 44 106 q 60 119 54 114 l 103 161 q 114 171 108 167 q 124 181 119 175 l 146 206 q 167 228 157 217 q 188 251 178 240 q 167 274 178 263 q 146 297 157 286 l 124 321 z "},"":{"ha":1372,"x_min":46,"x_max":1317,"o":"m 585 611 q 694 840 650 733 q 782 1032 738 947 q 804 1064 790 1049 q 838 1086 818 1079 q 886 1089 858 1093 q 949 1064 914 1085 q 999 1020 983 1043 q 1019 976 1015 997 q 1018 933 1024 954 q 1004 896 1013 913 q 950 805 979 850 q 890 713 921 760 q 825 613 858 665 q 758 500 792 561 l 719 428 q 610 197 656 307 q 515 -7 565 86 q 492 -38 507 -24 q 458 -60 478 -53 q 412 -62 439 -67 q 351 -36 385 -58 q 301 9 318 -14 q 281 54 285 32 q 281 97 276 76 q 296 135 286 118 q 349 222 319 176 q 411 318 378 268 q 478 423 444 368 q 546 539 513 478 l 585 611 m 210 781 q 206 838 210 810 q 200 894 203 865 q 151 871 174 886 q 140 867 149 869 q 118 865 131 864 q 91 871 106 865 q 63 892 76 876 q 47 919 49 907 q 51 942 46 932 q 63 958 56 951 q 75 967 71 965 q 109 986 93 978 q 142 1004 125 994 q 160 1019 153 1011 q 174 1035 167 1026 q 191 1052 182 1043 q 217 1069 200 1061 q 301 1089 243 1089 q 358 1083 336 1089 q 392 1065 379 1076 q 409 1042 404 1054 q 414 1017 414 1029 q 403 893 414 947 q 392 781 392 839 l 392 728 q 403 617 392 671 q 414 493 414 563 q 409 467 414 481 q 392 443 404 454 q 358 426 379 432 q 301 419 336 419 q 244 427 267 419 q 210 445 222 435 q 193 469 197 456 q 189 494 189 482 q 199 613 189 557 q 210 728 210 669 l 210 781 m 1088 332 q 1078 447 1088 390 q 1068 567 1068 504 q 1072 592 1068 579 q 1087 617 1076 606 q 1115 635 1097 628 q 1163 643 1133 643 q 1211 637 1192 643 q 1241 619 1231 631 q 1256 595 1251 608 q 1260 569 1260 582 q 1250 444 1260 499 q 1240 332 1240 390 l 1240 292 l 1246 292 q 1272 290 1260 292 q 1295 279 1285 288 q 1311 255 1306 271 q 1317 211 1317 239 q 1311 171 1317 186 q 1297 147 1306 156 q 1278 134 1289 138 q 1254 129 1267 131 q 1258 88 1257 110 q 1260 42 1260 65 q 1256 16 1260 29 q 1241 -8 1251 3 q 1211 -26 1231 -19 q 1163 -32 1192 -32 q 1115 -25 1133 -32 q 1087 -7 1097 -18 q 1072 17 1076 4 q 1068 43 1068 31 q 1070 97 1068 71 q 1075 147 1072 122 l 1013 147 q 960 144 979 147 q 925 138 940 140 q 878 129 907 129 q 835 138 851 129 q 803 156 814 144 q 789 179 793 167 q 785 204 785 192 q 786 228 785 217 q 795 258 790 247 q 806 281 800 269 q 819 308 813 292 q 831 354 825 325 l 849 444 q 854 491 854 474 q 853 521 854 508 q 851 546 853 533 q 854 576 850 558 q 862 603 857 589 q 878 628 867 617 q 909 644 890 639 q 958 644 928 650 q 1005 628 989 639 q 1028 603 1021 617 q 1035 574 1035 589 q 1032 546 1035 558 q 1024 522 1029 532 q 1012 499 1018 511 q 999 469 1006 486 q 988 422 993 451 l 971 332 q 966 301 968 314 q 964 276 964 288 q 985 274 974 275 q 1013 274 997 274 l 1088 274 l 1088 278 l 1088 332 z "},"":{"ha":1406,"x_min":46,"x_max":1315,"o":"m 585 611 q 694 840 650 733 q 782 1032 738 947 q 804 1064 790 1049 q 838 1086 818 1079 q 886 1089 858 1093 q 949 1064 914 1085 q 999 1020 983 1043 q 1019 976 1015 997 q 1018 933 1024 954 q 1004 896 1013 913 q 950 805 979 850 q 890 713 921 760 q 825 613 858 665 q 758 500 792 561 l 719 428 q 610 197 656 307 q 515 -7 565 86 q 492 -38 507 -24 q 458 -60 478 -53 q 412 -62 439 -67 q 351 -36 385 -58 q 301 9 318 -14 q 281 54 285 32 q 281 97 276 76 q 296 135 286 118 q 349 222 319 176 q 411 318 378 268 q 478 423 444 368 q 546 539 513 478 l 585 611 m 210 781 q 206 838 210 810 q 200 894 203 865 q 151 871 174 886 q 140 867 149 869 q 118 865 131 864 q 91 871 106 865 q 63 892 76 876 q 47 919 49 907 q 51 942 46 932 q 63 958 56 951 q 75 967 71 965 q 109 986 93 978 q 142 1004 125 994 q 160 1019 153 1011 q 174 1035 167 1026 q 191 1052 182 1043 q 217 1069 200 1061 q 301 1089 243 1089 q 358 1083 336 1089 q 392 1065 379 1076 q 409 1042 404 1054 q 414 1017 414 1029 q 403 893 414 947 q 392 781 392 839 l 392 728 q 403 617 392 671 q 414 493 414 563 q 409 467 414 481 q 392 443 404 454 q 358 426 379 432 q 301 419 336 419 q 244 427 267 419 q 210 445 222 435 q 193 469 197 456 q 189 494 189 482 q 199 613 189 557 q 210 728 210 669 l 210 781 m 1099 476 q 1098 493 1099 483 q 1092 511 1097 503 q 1074 526 1086 519 q 1042 532 1063 532 q 1011 523 1024 532 q 988 502 999 514 q 965 477 976 490 q 938 456 953 464 q 874 452 907 439 q 823 492 842 465 q 807 549 804 518 q 849 601 810 581 q 934 638 889 621 q 1042 656 979 656 q 1140 645 1093 656 q 1222 612 1186 635 q 1278 552 1257 589 q 1299 464 1299 515 q 1281 385 1299 418 q 1235 326 1263 351 q 1176 281 1208 301 q 1113 242 1143 261 q 1058 201 1082 222 q 1026 153 1035 181 l 1026 150 l 1065 150 l 1078 150 q 1132 153 1113 150 q 1165 159 1151 156 q 1191 165 1178 163 q 1225 168 1204 168 q 1257 164 1240 168 q 1287 150 1274 160 q 1308 124 1300 140 q 1315 81 1315 107 q 1285 10 1314 28 q 1224 -7 1256 -7 q 1189 -4 1206 -7 q 1153 1 1172 -1 q 1110 7 1135 4 q 1051 10 1086 10 l 1039 10 q 981 7 1004 10 q 941 1 958 4 q 909 -4 924 -1 q 878 -7 894 -7 q 816 10 846 -7 q 785 81 786 28 q 794 129 785 110 q 840 232 811 190 q 903 303 869 274 q 972 353 936 332 q 1035 392 1007 374 q 1081 430 1063 410 q 1099 476 1099 450 z "},"":{"ha":1510,"x_min":61,"x_max":1422,"o":"m 690 611 q 799 840 756 733 q 888 1032 843 947 q 910 1064 896 1049 q 944 1086 924 1079 q 992 1089 964 1093 q 1054 1064 1019 1085 q 1105 1020 1089 1043 q 1125 976 1121 997 q 1124 933 1129 954 q 1110 896 1118 913 q 1056 805 1085 850 q 995 713 1026 760 q 931 613 964 665 q 864 500 897 561 l 825 428 q 716 197 761 307 q 621 -7 671 86 q 598 -38 613 -24 q 564 -60 583 -53 q 517 -62 544 -67 q 457 -36 490 -58 q 407 9 424 -14 q 386 54 390 32 q 387 97 382 76 q 401 135 392 118 q 454 222 425 176 q 517 318 483 268 q 584 423 550 368 q 651 539 618 478 l 690 611 m 1193 332 q 1183 447 1193 390 q 1174 567 1174 504 q 1178 592 1174 579 q 1192 617 1182 606 q 1221 635 1203 628 q 1268 643 1239 643 q 1317 637 1297 643 q 1347 619 1336 631 q 1361 595 1357 608 q 1365 569 1365 582 q 1356 444 1365 499 q 1346 332 1346 390 l 1346 292 l 1351 292 q 1378 290 1365 292 q 1401 279 1390 288 q 1417 255 1411 271 q 1422 211 1422 239 q 1417 171 1422 186 q 1403 147 1411 156 q 1383 134 1394 138 q 1360 129 1372 131 q 1364 88 1363 110 q 1365 42 1365 65 q 1361 16 1365 29 q 1347 -8 1357 3 q 1317 -26 1336 -19 q 1268 -32 1297 -32 q 1221 -25 1239 -32 q 1192 -7 1203 -18 q 1178 17 1182 4 q 1174 43 1174 31 q 1176 97 1174 71 q 1181 147 1178 122 l 1118 147 q 1065 144 1085 147 q 1031 138 1046 140 q 983 129 1013 129 q 940 138 957 129 q 909 156 919 144 q 894 179 899 167 q 890 204 890 192 q 892 228 890 217 q 901 258 896 247 q 912 281 906 269 q 924 308 918 292 q 936 354 931 325 l 954 444 q 960 491 960 474 q 959 521 960 508 q 957 546 958 533 q 960 576 956 558 q 967 603 963 589 q 984 628 972 617 q 1015 644 996 639 q 1064 644 1033 650 q 1110 628 1094 639 q 1133 603 1126 617 q 1140 574 1140 589 q 1138 546 1140 558 q 1129 522 1135 532 q 1117 499 1124 511 q 1105 469 1111 486 q 1093 422 1099 451 l 1076 332 q 1072 301 1074 314 q 1069 276 1069 288 q 1091 274 1079 275 q 1118 274 1103 274 l 1193 274 l 1193 278 l 1193 332 m 299 711 q 242 705 264 711 q 186 699 219 699 q 134 715 157 699 q 110 771 111 731 q 133 826 110 811 q 183 842 156 842 q 236 835 215 842 q 288 829 257 829 q 344 837 325 829 q 372 856 364 844 q 379 879 379 867 q 379 903 379 892 q 366 943 379 925 q 326 961 353 961 q 251 945 285 961 q 186 917 218 929 q 128 914 156 904 q 88 944 101 924 q 80 991 74 965 q 124 1038 86 1017 q 219 1072 161 1058 q 326 1085 276 1085 q 424 1074 379 1085 q 501 1042 468 1063 q 551 990 533 1021 q 569 915 569 958 q 547 836 569 865 q 486 782 525 807 q 567 713 540 758 q 594 611 594 667 q 524 456 594 507 q 322 404 453 404 q 187 432 244 404 q 90 499 129 460 q 65 542 68 521 q 70 582 61 564 q 98 613 79 600 q 139 629 117 625 q 184 627 161 633 q 225 601 207 621 q 266 567 242 585 q 322 549 290 549 q 348 551 335 549 q 371 563 361 554 q 387 589 381 572 q 393 635 393 606 q 373 687 393 663 q 299 711 353 711 z "},"":{"ha":721,"x_min":21,"x_max":700,"o":"m 565 640 q 531 554 565 586 q 429 522 496 522 q 328 554 363 522 q 293 640 293 586 q 328 728 293 696 q 429 760 363 760 q 531 728 496 760 q 565 640 565 696 m 250 -24 q 286 -101 250 -76 q 378 -126 322 -126 q 469 -99 424 -126 q 554 -44 515 -71 q 606 -29 581 -28 q 651 -45 631 -31 q 685 -83 672 -60 q 699 -133 699 -106 q 686 -187 700 -160 q 639 -235 672 -214 q 515 -294 588 -267 q 364 -322 442 -322 q 226 -305 289 -322 q 117 -251 163 -287 q 46 -156 71 -214 q 21 -15 21 -97 q 41 92 21 47 q 92 167 61 136 q 159 217 122 199 q 229 247 196 236 q 289 262 263 257 q 324 268 315 267 l 324 361 q 328 395 324 378 q 344 428 332 413 q 376 453 356 443 q 432 463 397 463 q 488 453 467 463 q 520 427 508 443 q 535 393 532 411 q 539 358 539 375 l 539 285 q 517 185 539 221 q 464 131 496 150 q 394 101 432 111 q 325 77 357 90 q 272 42 293 64 q 250 -24 250 19 z "},"":{"ha":917,"x_min":13,"x_max":904,"o":"m 340 243 q 317 167 331 207 q 282 75 304 128 q 260 39 274 57 q 226 10 247 21 q 176 0 206 0 q 108 17 147 0 q 49 55 69 33 q 20 99 28 76 q 15 144 13 122 q 26 185 18 167 q 176 574 110 379 q 311 972 243 768 q 361 1025 322 1004 q 458 1046 400 1046 q 556 1025 517 1046 q 606 972 594 1004 q 741 574 675 768 q 890 185 807 379 q 901 144 899 167 q 897 99 904 122 q 869 55 889 76 q 808 17 849 33 q 740 0 769 0 q 690 10 711 0 q 656 39 669 21 q 635 75 643 57 q 599 168 613 128 q 576 244 586 208 q 543 274 569 271 q 517 275 531 275 q 489 275 504 275 l 433 275 q 401 274 415 275 q 374 272 386 274 q 340 243 347 269 m 450 735 q 438 686 444 715 q 424 624 431 657 q 410 556 417 590 q 397 489 404 521 q 418 461 393 461 l 433 461 l 489 461 l 499 461 q 519 488 524 461 q 507 554 514 519 q 493 622 500 589 q 479 685 486 656 q 467 735 472 715 q 458 746 464 746 q 450 735 453 746 m 586 1189 q 571 1160 607 1160 l 550 1160 q 510 1167 531 1160 q 474 1188 489 1175 l 335 1310 q 343 1333 307 1333 l 446 1333 q 478 1326 463 1333 q 506 1304 494 1319 l 586 1189 z "},"":{"ha":917,"x_min":13,"x_max":904,"o":"m 340 243 q 317 167 331 207 q 282 75 304 128 q 260 39 274 57 q 226 10 247 21 q 176 0 206 0 q 108 17 147 0 q 49 55 69 33 q 20 99 28 76 q 15 144 13 122 q 26 185 18 167 q 176 574 110 379 q 311 972 243 768 q 361 1025 322 1004 q 458 1046 400 1046 q 556 1025 517 1046 q 606 972 594 1004 q 741 574 675 768 q 890 185 807 379 q 901 144 899 167 q 897 99 904 122 q 869 55 889 76 q 808 17 849 33 q 740 0 769 0 q 690 10 711 0 q 656 39 669 21 q 635 75 643 57 q 599 168 613 128 q 576 244 586 208 q 543 274 569 271 q 517 275 531 275 q 489 275 504 275 l 433 275 q 401 274 415 275 q 374 272 386 274 q 340 243 347 269 m 450 735 q 438 686 444 715 q 424 624 431 657 q 410 556 417 590 q 397 489 404 521 q 418 461 393 461 l 433 461 l 489 461 l 499 461 q 519 488 524 461 q 507 554 514 519 q 493 622 500 589 q 479 685 486 656 q 467 735 472 715 q 458 746 464 746 q 450 735 453 746 m 411 1304 q 438 1326 422 1319 q 471 1333 454 1333 l 574 1333 q 582 1310 610 1333 l 443 1188 q 407 1167 428 1175 q 367 1160 386 1160 l 346 1160 q 331 1189 310 1160 l 411 1304 z "},"":{"ha":917,"x_min":13,"x_max":904,"o":"m 340 243 q 317 167 331 207 q 282 75 304 128 q 260 39 274 57 q 226 10 247 21 q 176 0 206 0 q 108 17 147 0 q 49 55 69 33 q 20 99 28 76 q 15 144 13 122 q 26 185 18 167 q 176 574 110 379 q 311 972 243 768 q 361 1025 322 1004 q 458 1046 400 1046 q 556 1025 517 1046 q 606 972 594 1004 q 741 574 675 768 q 890 185 807 379 q 901 144 899 167 q 897 99 904 122 q 869 55 889 76 q 808 17 849 33 q 740 0 769 0 q 690 10 711 0 q 656 39 669 21 q 635 75 643 57 q 599 168 613 128 q 576 244 586 208 q 543 274 569 271 q 517 275 531 275 q 489 275 504 275 l 433 275 q 401 274 415 275 q 374 272 386 274 q 340 243 347 269 m 450 735 q 438 686 444 715 q 424 624 431 657 q 410 556 417 590 q 397 489 404 521 q 418 461 393 461 l 433 461 l 489 461 l 499 461 q 519 488 524 461 q 507 554 514 519 q 493 622 500 589 q 479 685 486 656 q 467 735 472 715 q 458 746 464 746 q 450 735 453 746 m 474 1239 q 446 1240 460 1257 l 407 1192 q 380 1170 396 1178 q 347 1163 364 1163 l 292 1163 q 267 1171 275 1163 q 272 1190 260 1179 l 389 1306 q 422 1325 401 1317 q 458 1333 442 1333 q 496 1325 476 1333 q 528 1306 515 1317 l 644 1190 q 649 1171 657 1179 q 625 1163 642 1163 l 569 1163 q 537 1171 553 1163 q 510 1193 521 1179 l 474 1239 z "},"":{"ha":917,"x_min":13,"x_max":904,"o":"m 340 243 q 317 167 331 207 q 282 75 304 128 q 260 39 274 57 q 226 10 247 21 q 176 0 206 0 q 108 17 147 0 q 49 55 69 33 q 20 99 28 76 q 15 144 13 122 q 26 185 18 167 q 176 574 110 379 q 311 972 243 768 q 361 1025 322 1004 q 458 1046 400 1046 q 556 1025 517 1046 q 606 972 594 1004 q 741 574 675 768 q 890 185 807 379 q 901 144 899 167 q 897 99 904 122 q 869 55 889 76 q 808 17 849 33 q 740 0 769 0 q 690 10 711 0 q 656 39 669 21 q 635 75 643 57 q 599 168 613 128 q 576 244 586 208 q 543 274 569 271 q 517 275 531 275 q 489 275 504 275 l 433 275 q 401 274 415 275 q 374 272 386 274 q 340 243 347 269 m 450 735 q 438 686 444 715 q 424 624 431 657 q 410 556 417 590 q 397 489 404 521 q 418 461 393 461 l 433 461 l 489 461 l 499 461 q 519 488 524 461 q 507 554 514 519 q 493 622 500 589 q 479 685 486 656 q 467 735 472 715 q 458 746 464 746 q 450 735 453 746 m 471 1114 q 423 1147 449 1125 q 373 1181 397 1169 q 329 1185 349 1193 q 300 1129 310 1178 q 277 1101 294 1110 q 241 1092 260 1092 q 205 1103 222 1093 q 181 1129 188 1113 q 208 1232 181 1188 q 277 1299 235 1276 q 371 1319 319 1322 q 471 1281 422 1317 q 521 1251 497 1261 q 563 1241 544 1240 q 594 1256 582 1242 q 610 1299 607 1269 q 628 1337 610 1324 q 668 1350 646 1350 q 711 1337 690 1350 q 736 1299 732 1324 q 707 1185 736 1229 q 636 1120 678 1142 q 549 1098 594 1099 q 471 1114 504 1097 z "},"":{"ha":917,"x_min":13,"x_max":904,"o":"m 340 243 q 317 167 331 207 q 282 75 304 128 q 260 39 274 57 q 226 10 247 21 q 176 0 206 0 q 108 17 147 0 q 49 55 69 33 q 20 99 28 76 q 15 144 13 122 q 26 185 18 167 q 176 574 110 379 q 311 972 243 768 q 361 1025 322 1004 q 458 1046 400 1046 q 556 1025 517 1046 q 606 972 594 1004 q 741 574 675 768 q 890 185 807 379 q 901 144 899 167 q 897 99 904 122 q 869 55 889 76 q 808 17 849 33 q 740 0 769 0 q 690 10 711 0 q 656 39 669 21 q 635 75 643 57 q 599 168 613 128 q 576 244 586 208 q 543 274 569 271 q 517 275 531 275 q 489 275 504 275 l 433 275 q 401 274 415 275 q 374 272 386 274 q 340 243 347 269 m 450 735 q 438 686 444 715 q 424 624 431 657 q 410 556 417 590 q 397 489 404 521 q 418 461 393 461 l 433 461 l 489 461 l 499 461 q 519 488 524 461 q 507 554 514 519 q 493 622 500 589 q 479 685 486 656 q 467 735 472 715 q 458 746 464 746 q 450 735 453 746 m 281 1258 q 301 1315 281 1294 q 363 1336 322 1336 q 423 1315 403 1336 q 443 1258 443 1294 q 423 1201 443 1222 q 363 1181 403 1181 q 301 1201 322 1181 q 281 1258 281 1222 m 475 1258 q 496 1315 475 1294 q 557 1336 517 1336 q 617 1315 597 1336 q 638 1258 638 1294 q 617 1201 638 1222 q 557 1181 597 1181 q 496 1201 517 1181 q 475 1258 475 1222 z "},"":{"ha":917,"x_min":13,"x_max":904,"o":"m 340 243 q 317 167 331 207 q 282 75 304 128 q 260 39 274 57 q 226 10 247 21 q 176 0 206 0 q 108 17 147 0 q 49 55 69 33 q 20 99 28 76 q 15 144 13 122 q 26 185 18 167 q 176 574 110 379 q 311 972 243 768 q 361 1025 322 1004 q 458 1046 400 1046 q 556 1025 517 1046 q 606 972 594 1004 q 741 574 675 768 q 890 185 807 379 q 901 144 899 167 q 897 99 904 122 q 869 55 889 76 q 808 17 849 33 q 740 0 769 0 q 690 10 711 0 q 656 39 669 21 q 635 75 643 57 q 599 168 613 128 q 576 244 586 208 q 543 274 569 271 q 517 275 531 275 q 489 275 504 275 l 433 275 q 401 274 415 275 q 374 272 386 274 q 340 243 347 269 m 450 735 q 438 686 444 715 q 424 624 431 657 q 410 556 417 590 q 397 489 404 521 q 418 461 393 461 l 433 461 l 489 461 l 499 461 q 519 488 524 461 q 507 554 514 519 q 493 622 500 589 q 479 685 486 656 q 467 735 472 715 q 458 746 464 746 q 450 735 453 746 m 363 1253 q 388 1321 363 1296 q 458 1346 414 1346 q 528 1321 503 1346 q 554 1253 554 1296 q 528 1183 554 1208 q 458 1158 503 1158 q 388 1183 414 1158 q 363 1253 363 1208 m 408 1253 q 419 1216 408 1231 q 458 1201 431 1201 q 497 1216 486 1201 q 508 1253 508 1231 q 497 1288 508 1274 q 458 1303 486 1303 q 418 1288 428 1303 q 408 1253 408 1274 z "},"":{"ha":1138,"x_min":13,"x_max":1101,"o":"m 340 243 q 317 167 331 207 q 282 75 304 128 q 260 39 274 57 q 226 10 247 21 q 176 0 206 0 q 108 17 147 0 q 49 55 69 33 q 20 99 28 76 q 15 144 13 122 q 26 185 18 167 q 176 574 110 379 q 311 972 243 768 q 361 1025 322 1004 q 458 1046 400 1046 q 524 1041 499 1046 q 574 1030 550 1036 q 624 1019 597 1024 q 692 1014 651 1014 l 789 1014 q 860 1018 833 1014 q 905 1028 886 1022 q 942 1038 924 1033 q 988 1042 960 1042 q 1027 1038 1007 1042 q 1064 1022 1047 1035 q 1091 983 1081 1008 q 1101 917 1101 958 q 1090 849 1101 874 q 1062 811 1079 824 q 1024 795 1044 799 q 985 792 1004 792 q 946 796 963 792 q 909 806 929 800 q 861 815 889 811 q 789 819 833 819 l 789 819 q 768 819 778 819 q 750 818 758 818 q 721 790 724 815 q 715 728 718 758 q 708 667 711 697 q 732 639 706 639 l 747 639 l 747 639 q 818 643 792 639 q 863 653 844 647 q 900 663 882 658 q 946 667 918 667 q 985 662 965 667 q 1022 643 1006 657 q 1049 603 1039 629 q 1060 535 1060 576 q 1049 466 1060 492 q 1020 426 1038 440 q 983 408 1003 413 q 943 403 963 403 q 904 407 921 403 q 867 417 888 411 q 819 426 847 422 q 747 431 792 431 l 747 431 l 729 431 q 710 423 718 431 q 704 403 703 415 q 710 342 707 372 q 718 281 714 313 q 747 251 721 254 q 765 250 756 250 q 786 250 775 250 l 786 250 q 857 254 831 250 q 902 264 883 258 q 939 274 921 269 q 985 278 957 278 q 1024 272 1004 278 q 1061 251 1044 267 q 1088 208 1078 235 q 1099 139 1099 181 q 1088 69 1099 96 q 1059 26 1076 42 q 1022 6 1042 11 q 982 0 1001 0 q 943 4 960 0 q 906 14 926 8 q 858 24 886 19 q 786 28 831 28 l 786 28 q 718 24 744 28 q 672 15 692 21 q 590 0 642 0 q 492 27 532 0 q 451 117 451 54 q 455 197 451 158 q 463 275 458 236 l 433 275 q 401 274 415 275 q 374 272 386 274 q 340 243 347 269 m 450 735 q 438 686 444 715 q 424 624 431 657 q 410 556 417 590 q 397 489 404 521 q 418 461 393 461 l 479 461 l 479 479 l 479 563 q 475 651 479 607 q 465 739 471 694 q 458 747 463 747 q 450 735 453 746 z "},"":{"ha":825,"x_min":35,"x_max":799,"o":"m 578 268 q 633 307 601 297 q 694 310 664 317 q 749 285 724 304 q 787 238 775 265 q 794 176 799 210 q 760 107 790 142 q 636 16 707 46 q 461 -14 565 -14 l 450 -54 q 497 -74 478 -58 q 529 -108 517 -89 q 547 -149 542 -128 q 553 -183 553 -169 q 540 -252 553 -224 q 508 -299 528 -281 q 461 -327 488 -318 q 407 -336 435 -336 q 342 -324 365 -336 q 300 -297 318 -311 q 274 -251 276 -279 q 283 -200 272 -222 q 315 -171 294 -178 q 358 -186 336 -164 q 405 -211 379 -207 q 444 -192 431 -215 q 449 -172 449 -186 q 438 -143 449 -157 q 403 -119 428 -129 q 332 -108 379 -108 l 357 -6 q 206 52 268 10 q 106 162 144 94 q 51 320 68 229 q 35 521 35 411 q 58 724 35 628 q 133 894 82 821 q 265 1012 185 968 q 460 1056 346 1056 q 546 1050 510 1056 q 611 1035 582 1044 q 665 1012 640 1025 q 715 982 690 999 q 763 934 749 961 q 776 880 776 907 q 762 830 775 853 q 728 792 749 807 q 681 776 707 778 q 631 792 656 775 q 554 839 592 818 q 460 860 517 860 q 365 833 401 860 q 310 761 329 807 q 284 654 290 715 q 278 522 278 593 q 286 394 278 451 q 315 296 294 336 q 371 233 336 256 q 460 211 406 211 q 529 226 504 211 q 578 268 554 240 z "},"":{"ha":714,"x_min":35,"x_max":685,"o":"m 331 251 q 349 250 339 250 q 369 250 358 250 l 369 250 q 440 254 414 250 q 485 264 467 258 q 522 274 504 269 q 568 278 540 278 q 608 272 588 278 q 644 251 628 267 q 672 208 661 235 q 682 139 682 181 q 671 69 682 96 q 642 26 660 42 q 605 6 625 11 q 565 0 585 0 q 526 4 543 0 q 490 14 510 8 q 442 24 469 19 q 369 28 414 28 l 369 28 q 301 24 328 28 q 256 15 275 21 q 174 0 225 0 q 75 27 115 0 q 35 117 35 54 q 39 211 35 165 q 49 302 43 257 q 58 391 54 347 q 63 479 63 435 l 63 563 q 58 651 63 607 q 49 740 54 694 q 39 831 43 785 q 35 925 35 876 q 39 960 35 942 q 55 994 43 979 q 87 1022 67 1010 q 139 1039 107 1035 q 156 1042 147 1042 q 174 1042 165 1042 q 244 1031 215 1042 q 292 1019 265 1024 q 372 1014 319 1014 l 372 1014 q 443 1018 417 1014 q 488 1028 469 1022 q 525 1038 507 1033 q 571 1042 543 1042 q 610 1038 590 1042 q 647 1022 631 1035 q 674 983 664 1008 q 685 917 685 958 q 674 849 685 874 q 645 811 663 824 q 608 795 628 799 q 568 792 588 792 q 529 796 546 792 q 492 806 513 800 q 444 815 472 811 q 372 819 417 819 l 372 819 q 351 819 361 819 q 333 818 342 818 q 304 790 307 815 q 298 728 301 758 q 292 667 294 697 q 315 639 289 639 l 331 639 l 331 639 q 401 643 375 639 q 447 653 428 647 q 483 663 465 658 q 529 667 501 667 q 569 662 549 667 q 606 643 589 657 q 633 603 622 629 q 643 535 643 576 q 632 466 643 492 q 603 426 621 440 q 566 408 586 413 q 526 403 546 403 q 488 407 504 403 q 451 417 471 411 q 403 426 431 422 q 331 431 375 431 l 331 431 l 313 431 q 294 423 301 431 q 288 403 286 415 q 294 342 290 372 q 301 281 297 313 q 331 251 304 254 m 485 1189 q 469 1160 506 1160 l 449 1160 q 408 1167 429 1160 q 372 1188 388 1175 l 233 1310 q 242 1333 206 1333 l 344 1333 q 377 1326 361 1333 q 404 1304 393 1319 l 485 1189 z "},"":{"ha":714,"x_min":35,"x_max":685,"o":"m 331 251 q 349 250 339 250 q 369 250 358 250 l 369 250 q 440 254 414 250 q 485 264 467 258 q 522 274 504 269 q 568 278 540 278 q 608 272 588 278 q 644 251 628 267 q 672 208 661 235 q 682 139 682 181 q 671 69 682 96 q 642 26 660 42 q 605 6 625 11 q 565 0 585 0 q 526 4 543 0 q 490 14 510 8 q 442 24 469 19 q 369 28 414 28 l 369 28 q 301 24 328 28 q 256 15 275 21 q 174 0 225 0 q 75 27 115 0 q 35 117 35 54 q 39 211 35 165 q 49 302 43 257 q 58 391 54 347 q 63 479 63 435 l 63 563 q 58 651 63 607 q 49 740 54 694 q 39 831 43 785 q 35 925 35 876 q 39 960 35 942 q 55 994 43 979 q 87 1022 67 1010 q 139 1039 107 1035 q 156 1042 147 1042 q 174 1042 165 1042 q 244 1031 215 1042 q 292 1019 265 1024 q 372 1014 319 1014 l 372 1014 q 443 1018 417 1014 q 488 1028 469 1022 q 525 1038 507 1033 q 571 1042 543 1042 q 610 1038 590 1042 q 647 1022 631 1035 q 674 983 664 1008 q 685 917 685 958 q 674 849 685 874 q 645 811 663 824 q 608 795 628 799 q 568 792 588 792 q 529 796 546 792 q 492 806 513 800 q 444 815 472 811 q 372 819 417 819 l 372 819 q 351 819 361 819 q 333 818 342 818 q 304 790 307 815 q 298 728 301 758 q 292 667 294 697 q 315 639 289 639 l 331 639 l 331 639 q 401 643 375 639 q 447 653 428 647 q 483 663 465 658 q 529 667 501 667 q 569 662 549 667 q 606 643 589 657 q 633 603 622 629 q 643 535 643 576 q 632 466 643 492 q 603 426 621 440 q 566 408 586 413 q 526 403 546 403 q 488 407 504 403 q 451 417 471 411 q 403 426 431 422 q 331 431 375 431 l 331 431 l 313 431 q 294 423 301 431 q 288 403 286 415 q 294 342 290 372 q 301 281 297 313 q 331 251 304 254 m 310 1304 q 337 1326 321 1319 q 369 1333 353 1333 l 472 1333 q 481 1310 508 1333 l 342 1188 q 306 1167 326 1175 q 265 1160 285 1160 l 244 1160 q 229 1189 208 1160 l 310 1304 z "},"":{"ha":714,"x_min":35,"x_max":685,"o":"m 331 251 q 349 250 339 250 q 369 250 358 250 l 369 250 q 440 254 414 250 q 485 264 467 258 q 522 274 504 269 q 568 278 540 278 q 608 272 588 278 q 644 251 628 267 q 672 208 661 235 q 682 139 682 181 q 671 69 682 96 q 642 26 660 42 q 605 6 625 11 q 565 0 585 0 q 526 4 543 0 q 490 14 510 8 q 442 24 469 19 q 369 28 414 28 l 369 28 q 301 24 328 28 q 256 15 275 21 q 174 0 225 0 q 75 27 115 0 q 35 117 35 54 q 39 211 35 165 q 49 302 43 257 q 58 391 54 347 q 63 479 63 435 l 63 563 q 58 651 63 607 q 49 740 54 694 q 39 831 43 785 q 35 925 35 876 q 39 960 35 942 q 55 994 43 979 q 87 1022 67 1010 q 139 1039 107 1035 q 156 1042 147 1042 q 174 1042 165 1042 q 244 1031 215 1042 q 292 1019 265 1024 q 372 1014 319 1014 l 372 1014 q 443 1018 417 1014 q 488 1028 469 1022 q 525 1038 507 1033 q 571 1042 543 1042 q 610 1038 590 1042 q 647 1022 631 1035 q 674 983 664 1008 q 685 917 685 958 q 674 849 685 874 q 645 811 663 824 q 608 795 628 799 q 568 792 588 792 q 529 796 546 792 q 492 806 513 800 q 444 815 472 811 q 372 819 417 819 l 372 819 q 351 819 361 819 q 333 818 342 818 q 304 790 307 815 q 298 728 301 758 q 292 667 294 697 q 315 639 289 639 l 331 639 l 331 639 q 401 643 375 639 q 447 653 428 647 q 483 663 465 658 q 529 667 501 667 q 569 662 549 667 q 606 643 589 657 q 633 603 622 629 q 643 535 643 576 q 632 466 643 492 q 603 426 621 440 q 566 408 586 413 q 526 403 546 403 q 488 407 504 403 q 451 417 471 411 q 403 426 431 422 q 331 431 375 431 l 331 431 l 313 431 q 294 423 301 431 q 288 403 286 415 q 294 342 290 372 q 301 281 297 313 q 331 251 304 254 m 372 1239 q 344 1240 358 1257 l 306 1192 q 278 1170 294 1178 q 246 1163 263 1163 l 190 1163 q 166 1171 174 1163 q 171 1190 158 1179 l 288 1306 q 320 1325 300 1317 q 357 1333 340 1333 q 394 1325 375 1333 q 426 1306 414 1317 l 543 1190 q 548 1171 556 1179 q 524 1163 540 1163 l 468 1163 q 435 1171 451 1163 q 408 1193 419 1179 l 372 1239 z "},"":{"ha":714,"x_min":35,"x_max":685,"o":"m 331 251 q 349 250 339 250 q 369 250 358 250 l 369 250 q 440 254 414 250 q 485 264 467 258 q 522 274 504 269 q 568 278 540 278 q 608 272 588 278 q 644 251 628 267 q 672 208 661 235 q 682 139 682 181 q 671 69 682 96 q 642 26 660 42 q 605 6 625 11 q 565 0 585 0 q 526 4 543 0 q 490 14 510 8 q 442 24 469 19 q 369 28 414 28 l 369 28 q 301 24 328 28 q 256 15 275 21 q 174 0 225 0 q 75 27 115 0 q 35 117 35 54 q 39 211 35 165 q 49 302 43 257 q 58 391 54 347 q 63 479 63 435 l 63 563 q 58 651 63 607 q 49 740 54 694 q 39 831 43 785 q 35 925 35 876 q 39 960 35 942 q 55 994 43 979 q 87 1022 67 1010 q 139 1039 107 1035 q 156 1042 147 1042 q 174 1042 165 1042 q 244 1031 215 1042 q 292 1019 265 1024 q 372 1014 319 1014 l 372 1014 q 443 1018 417 1014 q 488 1028 469 1022 q 525 1038 507 1033 q 571 1042 543 1042 q 610 1038 590 1042 q 647 1022 631 1035 q 674 983 664 1008 q 685 917 685 958 q 674 849 685 874 q 645 811 663 824 q 608 795 628 799 q 568 792 588 792 q 529 796 546 792 q 492 806 513 800 q 444 815 472 811 q 372 819 417 819 l 372 819 q 351 819 361 819 q 333 818 342 818 q 304 790 307 815 q 298 728 301 758 q 292 667 294 697 q 315 639 289 639 l 331 639 l 331 639 q 401 643 375 639 q 447 653 428 647 q 483 663 465 658 q 529 667 501 667 q 569 662 549 667 q 606 643 589 657 q 633 603 622 629 q 643 535 643 576 q 632 466 643 492 q 603 426 621 440 q 566 408 586 413 q 526 403 546 403 q 488 407 504 403 q 451 417 471 411 q 403 426 431 422 q 331 431 375 431 l 331 431 l 313 431 q 294 423 301 431 q 288 403 286 415 q 294 342 290 372 q 301 281 297 313 q 331 251 304 254 m 179 1258 q 200 1315 179 1294 q 261 1336 221 1336 q 322 1315 301 1336 q 342 1258 342 1294 q 322 1201 342 1222 q 261 1181 301 1181 q 200 1201 221 1181 q 179 1258 179 1222 m 374 1258 q 394 1315 374 1294 q 456 1336 415 1336 q 516 1315 496 1336 q 536 1258 536 1294 q 516 1201 536 1222 q 456 1181 496 1181 q 394 1201 415 1181 q 374 1258 374 1222 z "},"":{"ha":347,"x_min":22,"x_max":322,"o":"m 63 563 q 58 651 63 607 q 49 740 54 694 q 39 831 43 785 q 35 925 35 876 q 40 965 35 944 q 61 1002 46 985 q 103 1031 76 1019 q 174 1042 131 1042 q 242 1031 215 1042 q 285 1004 269 1021 q 307 967 301 988 q 313 928 313 947 q 308 826 313 874 q 299 735 304 779 q 289 649 293 692 q 285 563 285 607 l 285 479 q 289 392 285 435 q 299 306 293 350 q 308 215 304 263 q 313 114 313 168 q 307 74 313 94 q 285 38 301 54 q 242 10 269 21 q 174 0 215 0 q 103 11 131 0 q 61 40 76 22 q 40 77 46 57 q 35 117 35 97 q 39 211 35 165 q 49 302 43 257 q 58 391 54 347 q 63 479 63 435 l 63 563 m 301 1189 q 286 1160 322 1160 l 265 1160 q 225 1167 246 1160 q 189 1188 204 1175 l 50 1310 q 58 1333 22 1333 l 161 1333 q 194 1326 178 1333 q 221 1304 210 1319 l 301 1189 z "},"":{"ha":347,"x_min":25,"x_max":325,"o":"m 63 563 q 58 651 63 607 q 49 740 54 694 q 39 831 43 785 q 35 925 35 876 q 40 965 35 944 q 61 1002 46 985 q 103 1031 76 1019 q 174 1042 131 1042 q 242 1031 215 1042 q 285 1004 269 1021 q 307 967 301 988 q 313 928 313 947 q 308 826 313 874 q 299 735 304 779 q 289 649 293 692 q 285 563 285 607 l 285 479 q 289 392 285 435 q 299 306 293 350 q 308 215 304 263 q 313 114 313 168 q 307 74 313 94 q 285 38 301 54 q 242 10 269 21 q 174 0 215 0 q 103 11 131 0 q 61 40 76 22 q 40 77 46 57 q 35 117 35 97 q 39 211 35 165 q 49 302 43 257 q 58 391 54 347 q 63 479 63 435 l 63 563 m 126 1304 q 153 1326 138 1319 q 186 1333 169 1333 l 289 1333 q 297 1310 325 1333 l 158 1188 q 122 1167 143 1175 q 82 1160 101 1160 l 61 1160 q 46 1189 25 1160 l 126 1304 z "},"":{"ha":347,"x_min":-25,"x_max":372,"o":"m 63 563 q 58 651 63 607 q 49 740 54 694 q 39 831 43 785 q 35 925 35 876 q 40 965 35 944 q 61 1002 46 985 q 103 1031 76 1019 q 174 1042 131 1042 q 242 1031 215 1042 q 285 1004 269 1021 q 307 967 301 988 q 313 928 313 947 q 308 826 313 874 q 299 735 304 779 q 289 649 293 692 q 285 563 285 607 l 285 479 q 289 392 285 435 q 299 306 293 350 q 308 215 304 263 q 313 114 313 168 q 307 74 313 94 q 285 38 301 54 q 242 10 269 21 q 174 0 215 0 q 103 11 131 0 q 61 40 76 22 q 40 77 46 57 q 35 117 35 97 q 39 211 35 165 q 49 302 43 257 q 58 391 54 347 q 63 479 63 435 l 63 563 m 189 1239 q 161 1240 175 1257 l 122 1192 q 95 1170 111 1178 q 63 1163 79 1163 l 7 1163 q -17 1171 -10 1163 q -12 1190 -25 1179 l 104 1306 q 137 1325 117 1317 q 174 1333 157 1333 q 211 1325 192 1333 q 243 1306 231 1317 l 360 1190 q 365 1171 372 1179 q 340 1163 357 1163 l 285 1163 q 252 1171 268 1163 q 225 1193 236 1179 l 189 1239 z "},"":{"ha":347,"x_min":-6,"x_max":351,"o":"m 63 563 q 58 651 63 607 q 49 740 54 694 q 39 831 43 785 q 35 925 35 876 q 40 965 35 944 q 61 1002 46 985 q 103 1031 76 1019 q 174 1042 131 1042 q 242 1031 215 1042 q 285 1004 269 1021 q 307 967 301 988 q 313 928 313 947 q 308 826 313 874 q 299 735 304 779 q 289 649 293 692 q 285 563 285 607 l 285 479 q 289 392 285 435 q 299 306 293 350 q 308 215 304 263 q 313 114 313 168 q 307 74 313 94 q 285 38 301 54 q 242 10 269 21 q 174 0 215 0 q 103 11 131 0 q 61 40 76 22 q 40 77 46 57 q 35 117 35 97 q 39 211 35 165 q 49 302 43 257 q 58 391 54 347 q 63 479 63 435 l 63 563 m -6 1258 q 15 1315 -6 1294 q 76 1336 36 1336 q 137 1315 117 1336 q 157 1258 157 1294 q 137 1201 157 1222 q 76 1181 117 1181 q 15 1201 36 1181 q -6 1258 -6 1222 m 189 1258 q 210 1315 189 1294 q 271 1336 231 1336 q 331 1315 311 1336 q 351 1258 351 1294 q 331 1201 351 1222 q 271 1181 311 1181 q 210 1201 231 1181 q 189 1258 189 1222 z "},"":{"ha":888,"x_min":24,"x_max":860,"o":"m 86 421 q 43 458 60 432 q 25 531 26 483 q 41 603 24 576 q 85 640 58 629 q 115 681 118 653 q 101 799 108 739 q 94 925 94 858 q 106 981 94 958 q 138 1017 118 1003 q 185 1036 158 1031 q 242 1042 213 1042 l 422 1042 q 610 1000 529 1042 q 747 888 692 958 q 831 722 803 817 q 860 521 860 628 q 754 135 860 271 q 422 0 649 0 l 240 0 q 184 6 211 0 q 138 25 157 11 q 106 61 118 39 q 94 117 94 83 q 102 252 94 188 q 117 381 110 317 q 86 421 119 408 m 349 394 q 356 323 351 358 q 364 251 360 288 q 393 225 367 225 l 422 225 q 574 303 529 225 q 618 522 618 381 q 610 652 618 593 q 579 754 601 711 q 519 822 557 797 q 422 846 481 846 l 396 846 q 368 819 371 846 q 360 742 365 779 q 351 668 356 704 q 381 640 347 636 q 420 645 400 643 q 467 647 440 647 q 504 641 486 647 q 536 621 522 635 q 558 585 550 607 q 567 531 567 563 q 534 440 565 465 q 464 414 503 414 q 419 417 440 414 q 379 424 399 421 q 356 418 364 426 q 349 394 347 410 z "},"":{"ha":819,"x_min":35,"x_max":785,"o":"m 536 51 q 525 78 526 65 l 283 583 q 274 594 278 594 q 271 581 271 593 l 271 563 l 271 521 q 277 427 271 476 q 292 326 283 378 q 306 222 300 275 q 313 114 313 168 q 306 74 313 94 q 282 38 299 54 q 237 10 265 21 q 167 0 208 0 q 98 11 124 0 q 58 40 72 22 q 40 77 44 57 q 35 117 35 97 q 39 211 35 165 q 49 302 43 257 q 58 391 54 347 q 63 479 63 435 l 63 563 q 58 651 63 607 q 49 740 54 694 q 39 831 43 785 q 35 925 35 876 q 40 965 35 944 q 58 1002 44 985 q 98 1031 72 1019 q 167 1042 124 1042 l 225 1042 q 276 1027 253 1042 q 311 989 300 1013 l 536 531 q 545 520 542 519 q 549 533 549 521 l 549 563 q 542 651 549 607 q 528 740 536 694 q 513 831 519 785 q 507 925 507 876 q 514 965 507 944 q 538 1002 521 985 q 582 1031 554 1019 q 653 1042 610 1042 q 721 1031 694 1042 q 761 1004 747 1021 q 780 967 775 988 q 785 928 785 947 q 781 826 785 874 q 771 735 776 779 q 761 649 765 692 q 757 563 757 607 l 757 479 q 761 392 757 435 q 771 306 765 350 q 781 215 776 263 q 785 114 785 168 q 781 76 785 96 q 763 40 776 57 q 727 13 750 24 q 667 0 704 1 l 619 0 q 574 14 596 0 q 536 51 551 28 m 422 1114 q 374 1147 400 1125 q 324 1181 349 1169 q 281 1185 300 1193 q 251 1129 261 1178 q 228 1101 246 1110 q 192 1092 211 1092 q 156 1103 174 1093 q 132 1129 139 1113 q 159 1232 132 1188 q 228 1299 186 1276 q 322 1319 271 1322 q 422 1281 374 1317 q 472 1251 449 1261 q 515 1241 496 1240 q 546 1256 533 1242 q 561 1299 558 1269 q 579 1337 561 1324 q 619 1350 597 1350 q 663 1337 642 1350 q 688 1299 683 1324 q 658 1185 688 1229 q 588 1120 629 1142 q 501 1098 546 1099 q 422 1114 456 1097 z "},"":{"ha":932,"x_min":28,"x_max":904,"o":"m 28 521 q 56 724 28 628 q 139 894 83 821 q 276 1012 194 968 q 467 1056 358 1056 q 655 1012 574 1056 q 792 894 736 968 q 876 724 847 821 q 904 521 904 628 q 878 297 904 396 q 799 128 853 197 q 662 23 744 60 q 467 -14 579 -14 q 270 23 353 -14 q 133 128 188 60 q 53 297 79 197 q 28 521 28 396 m 271 522 q 281 394 271 451 q 315 296 292 336 q 376 233 339 256 q 467 211 413 211 q 558 233 521 211 q 618 296 594 256 q 652 394 642 336 q 663 522 663 451 q 654 654 663 593 q 624 761 646 715 q 563 833 601 807 q 467 860 525 860 q 370 833 408 860 q 310 761 332 807 q 279 654 288 715 q 271 522 271 593 m 593 1189 q 578 1160 614 1160 l 557 1160 q 517 1167 538 1160 q 481 1188 496 1175 l 342 1310 q 350 1333 314 1333 l 453 1333 q 485 1326 469 1333 q 513 1304 501 1319 l 593 1189 z "},"":{"ha":932,"x_min":28,"x_max":904,"o":"m 28 521 q 56 724 28 628 q 139 894 83 821 q 276 1012 194 968 q 467 1056 358 1056 q 655 1012 574 1056 q 792 894 736 968 q 876 724 847 821 q 904 521 904 628 q 878 297 904 396 q 799 128 853 197 q 662 23 744 60 q 467 -14 579 -14 q 270 23 353 -14 q 133 128 188 60 q 53 297 79 197 q 28 521 28 396 m 271 522 q 281 394 271 451 q 315 296 292 336 q 376 233 339 256 q 467 211 413 211 q 558 233 521 211 q 618 296 594 256 q 652 394 642 336 q 663 522 663 451 q 654 654 663 593 q 624 761 646 715 q 563 833 601 807 q 467 860 525 860 q 370 833 408 860 q 310 761 332 807 q 279 654 288 715 q 271 522 271 593 m 419 1304 q 447 1326 431 1319 q 479 1333 463 1333 l 582 1333 q 590 1310 618 1333 l 451 1188 q 415 1167 436 1175 q 375 1160 394 1160 l 354 1160 q 339 1189 318 1160 l 419 1304 z "},"":{"ha":932,"x_min":28,"x_max":904,"o":"m 28 521 q 56 724 28 628 q 139 894 83 821 q 276 1012 194 968 q 467 1056 358 1056 q 655 1012 574 1056 q 792 894 736 968 q 876 724 847 821 q 904 521 904 628 q 878 297 904 396 q 799 128 853 197 q 662 23 744 60 q 467 -14 579 -14 q 270 23 353 -14 q 133 128 188 60 q 53 297 79 197 q 28 521 28 396 m 271 522 q 281 394 271 451 q 315 296 292 336 q 376 233 339 256 q 467 211 413 211 q 558 233 521 211 q 618 296 594 256 q 652 394 642 336 q 663 522 663 451 q 654 654 663 593 q 624 761 646 715 q 563 833 601 807 q 467 860 525 860 q 370 833 408 860 q 310 761 332 807 q 279 654 288 715 q 271 522 271 593 m 482 1239 q 454 1240 468 1257 l 415 1192 q 388 1170 404 1178 q 356 1163 372 1163 l 300 1163 q 276 1171 283 1163 q 281 1190 268 1179 l 397 1306 q 430 1325 410 1317 q 467 1333 450 1333 q 504 1325 485 1333 q 536 1306 524 1317 l 653 1190 q 658 1171 665 1179 q 633 1163 650 1163 l 578 1163 q 545 1171 561 1163 q 518 1193 529 1179 l 482 1239 z "},"":{"ha":932,"x_min":28,"x_max":904,"o":"m 28 521 q 56 724 28 628 q 139 894 83 821 q 276 1012 194 968 q 467 1056 358 1056 q 655 1012 574 1056 q 792 894 736 968 q 876 724 847 821 q 904 521 904 628 q 878 297 904 396 q 799 128 853 197 q 662 23 744 60 q 467 -14 579 -14 q 270 23 353 -14 q 133 128 188 60 q 53 297 79 197 q 28 521 28 396 m 271 522 q 281 394 271 451 q 315 296 292 336 q 376 233 339 256 q 467 211 413 211 q 558 233 521 211 q 618 296 594 256 q 652 394 642 336 q 663 522 663 451 q 654 654 663 593 q 624 761 646 715 q 563 833 601 807 q 467 860 525 860 q 370 833 408 860 q 310 761 332 807 q 279 654 288 715 q 271 522 271 593 m 479 1114 q 431 1147 457 1125 q 381 1181 406 1169 q 338 1185 357 1193 q 308 1129 318 1178 q 285 1101 303 1110 q 249 1092 268 1092 q 213 1103 231 1093 q 189 1129 196 1113 q 216 1232 189 1188 q 285 1299 243 1276 q 379 1319 328 1322 q 479 1281 431 1317 q 529 1251 506 1261 q 572 1241 553 1240 q 603 1256 590 1242 q 618 1299 615 1269 q 636 1337 618 1324 q 676 1350 654 1350 q 719 1337 699 1350 q 744 1299 740 1324 q 715 1185 744 1229 q 644 1120 686 1142 q 558 1098 603 1099 q 479 1114 513 1097 z "},"":{"ha":932,"x_min":28,"x_max":904,"o":"m 28 521 q 56 724 28 628 q 139 894 83 821 q 276 1012 194 968 q 467 1056 358 1056 q 655 1012 574 1056 q 792 894 736 968 q 876 724 847 821 q 904 521 904 628 q 878 297 904 396 q 799 128 853 197 q 662 23 744 60 q 467 -14 579 -14 q 270 23 353 -14 q 133 128 188 60 q 53 297 79 197 q 28 521 28 396 m 271 522 q 281 394 271 451 q 315 296 292 336 q 376 233 339 256 q 467 211 413 211 q 558 233 521 211 q 618 296 594 256 q 652 394 642 336 q 663 522 663 451 q 654 654 663 593 q 624 761 646 715 q 563 833 601 807 q 467 860 525 860 q 370 833 408 860 q 310 761 332 807 q 279 654 288 715 q 271 522 271 593 m 288 1258 q 308 1315 288 1294 q 369 1336 329 1336 q 430 1315 410 1336 q 450 1258 450 1294 q 430 1201 450 1222 q 369 1181 410 1181 q 308 1201 329 1181 q 288 1258 288 1222 m 482 1258 q 503 1315 482 1294 q 564 1336 524 1336 q 624 1315 604 1336 q 644 1258 644 1294 q 624 1201 644 1222 q 564 1181 604 1181 q 503 1201 524 1181 q 482 1258 482 1222 z "},"":{"ha":632,"x_min":15,"x_max":611,"o":"m 315 385 q 265 318 289 353 q 210 249 242 283 q 182 226 197 235 q 149 215 167 217 q 110 224 131 214 q 68 257 90 233 q 31 344 24 306 q 64 408 38 382 q 124 463 90 436 q 189 517 158 489 q 121 577 157 549 q 56 636 85 606 q 22 704 28 665 q 57 790 15 743 q 98 822 78 814 q 136 829 118 831 q 171 818 154 828 q 200 794 188 808 q 261 719 236 756 q 314 650 286 683 q 366 719 342 682 q 417 783 390 756 q 445 807 429 797 q 478 818 461 817 q 517 810 496 819 q 560 778 538 801 q 591 733 582 754 q 599 692 600 711 q 589 658 597 674 q 568 628 581 642 q 502 569 535 593 q 440 517 469 544 q 506 460 472 486 q 575 394 539 433 q 599 363 589 381 q 610 326 608 346 q 603 286 611 307 q 572 243 594 265 q 530 213 550 221 q 492 206 510 204 q 458 218 474 208 q 428 242 442 228 q 372 312 399 274 q 315 385 344 350 z "},"":{"ha":932,"x_min":28,"x_max":904,"o":"m 146 114 q 56 286 85 185 q 28 521 28 388 q 56 724 28 628 q 139 894 83 821 q 276 1012 194 968 q 467 1056 358 1056 l 486 1056 q 514 1062 501 1054 q 533 1083 526 1069 q 557 1118 543 1103 q 589 1141 571 1133 q 629 1146 607 1149 q 676 1126 651 1143 q 732 1062 717 1100 q 744 985 747 1024 q 749 954 743 969 q 764 928 754 939 q 869 747 833 853 q 904 521 904 640 q 878 297 904 396 q 799 128 853 197 q 662 23 744 60 q 467 -14 579 -14 q 444 -13 456 -14 q 421 -11 432 -12 q 374 -39 392 -10 q 319 -87 354 -72 q 236 -69 283 -101 q 185 -11 200 -44 q 168 56 169 22 q 161 87 167 71 q 146 114 156 103 m 425 856 q 349 817 379 846 q 302 743 319 788 q 278 642 285 699 q 271 522 271 586 q 279 406 271 458 q 288 390 282 390 q 300 403 293 389 q 329 468 315 435 q 354 535 343 501 l 389 632 q 419 729 406 681 q 449 828 433 778 q 447 851 453 843 q 425 856 440 858 m 492 213 q 624 306 585 224 q 663 522 663 388 q 660 603 663 565 q 650 678 657 642 q 641 694 647 693 q 628 681 635 694 q 591 601 608 640 q 558 521 574 563 l 524 422 q 494 333 507 378 q 468 243 481 288 q 470 219 464 228 q 492 213 476 210 z "},"":{"ha":843,"x_min":35,"x_max":808,"o":"m 783 521 q 773 297 789 396 q 715 128 757 197 q 600 23 672 60 q 419 -14 528 -14 q 240 23 311 -14 q 126 128 168 60 q 70 297 85 197 q 61 521 56 396 q 60 625 64 574 q 50 726 56 676 q 40 826 44 776 q 35 925 35 875 q 40 965 35 944 q 61 1002 46 985 q 103 1031 76 1019 q 174 1042 131 1042 q 242 1031 215 1042 q 285 1004 269 1021 q 307 967 301 988 q 313 928 313 947 q 299 725 313 825 q 285 522 285 625 q 288 394 285 451 q 303 296 290 336 q 344 233 317 256 q 419 211 371 211 q 496 233 468 211 q 537 296 524 256 q 553 394 550 336 q 557 522 557 451 q 544 725 557 625 q 531 928 531 825 q 536 967 531 947 q 558 1004 542 988 q 601 1031 574 1021 q 669 1042 628 1042 q 740 1031 713 1042 q 782 1002 767 1019 q 803 965 797 985 q 808 925 808 944 q 803 824 808 875 q 794 724 799 774 q 785 623 789 674 q 783 521 782 572 m 549 1189 q 533 1160 569 1160 l 513 1160 q 472 1167 493 1160 q 436 1188 451 1175 l 297 1310 q 306 1333 269 1333 l 408 1333 q 441 1326 425 1333 q 468 1304 457 1319 l 549 1189 z "},"":{"ha":843,"x_min":35,"x_max":808,"o":"m 783 521 q 773 297 789 396 q 715 128 757 197 q 600 23 672 60 q 419 -14 528 -14 q 240 23 311 -14 q 126 128 168 60 q 70 297 85 197 q 61 521 56 396 q 60 625 64 574 q 50 726 56 676 q 40 826 44 776 q 35 925 35 875 q 40 965 35 944 q 61 1002 46 985 q 103 1031 76 1019 q 174 1042 131 1042 q 242 1031 215 1042 q 285 1004 269 1021 q 307 967 301 988 q 313 928 313 947 q 299 725 313 825 q 285 522 285 625 q 288 394 285 451 q 303 296 290 336 q 344 233 317 256 q 419 211 371 211 q 496 233 468 211 q 537 296 524 256 q 553 394 550 336 q 557 522 557 451 q 544 725 557 625 q 531 928 531 825 q 536 967 531 947 q 558 1004 542 988 q 601 1031 574 1021 q 669 1042 628 1042 q 740 1031 713 1042 q 782 1002 767 1019 q 803 965 797 985 q 808 925 808 944 q 803 824 808 875 q 794 724 799 774 q 785 623 789 674 q 783 521 782 572 m 294 1189 l 375 1304 q 402 1326 386 1319 q 435 1333 418 1333 l 538 1333 q 546 1310 574 1333 l 407 1188 q 371 1167 392 1175 q 331 1160 350 1160 l 310 1160 q 294 1189 274 1160 z "},"":{"ha":843,"x_min":35,"x_max":808,"o":"m 783 521 q 773 297 789 396 q 715 128 757 197 q 600 23 672 60 q 419 -14 528 -14 q 240 23 311 -14 q 126 128 168 60 q 70 297 85 197 q 61 521 56 396 q 60 625 64 574 q 50 726 56 676 q 40 826 44 776 q 35 925 35 875 q 40 965 35 944 q 61 1002 46 985 q 103 1031 76 1019 q 174 1042 131 1042 q 242 1031 215 1042 q 285 1004 269 1021 q 307 967 301 988 q 313 928 313 947 q 299 725 313 825 q 285 522 285 625 q 288 394 285 451 q 303 296 290 336 q 344 233 317 256 q 419 211 371 211 q 496 233 468 211 q 537 296 524 256 q 553 394 550 336 q 557 522 557 451 q 544 725 557 625 q 531 928 531 825 q 536 967 531 947 q 558 1004 542 988 q 601 1031 574 1021 q 669 1042 628 1042 q 740 1031 713 1042 q 782 1002 767 1019 q 803 965 797 985 q 808 925 808 944 q 803 824 808 875 q 794 724 799 774 q 785 623 789 674 q 783 521 782 572 m 438 1239 q 410 1240 424 1257 l 371 1192 q 344 1170 360 1178 q 311 1163 328 1163 l 256 1163 q 231 1171 239 1163 q 236 1190 224 1179 l 353 1306 q 385 1325 365 1317 q 422 1333 406 1333 q 460 1325 440 1333 q 492 1306 479 1317 l 608 1190 q 613 1171 621 1179 q 589 1163 606 1163 l 533 1163 q 501 1171 517 1163 q 474 1193 485 1179 l 438 1239 z "},"":{"ha":843,"x_min":35,"x_max":808,"o":"m 783 521 q 773 297 789 396 q 715 128 757 197 q 600 23 672 60 q 419 -14 528 -14 q 240 23 311 -14 q 126 128 168 60 q 70 297 85 197 q 61 521 56 396 q 60 625 64 574 q 50 726 56 676 q 40 826 44 776 q 35 925 35 875 q 40 965 35 944 q 61 1002 46 985 q 103 1031 76 1019 q 174 1042 131 1042 q 242 1031 215 1042 q 285 1004 269 1021 q 307 967 301 988 q 313 928 313 947 q 299 725 313 825 q 285 522 285 625 q 288 394 285 451 q 303 296 290 336 q 344 233 317 256 q 419 211 371 211 q 496 233 468 211 q 537 296 524 256 q 553 394 550 336 q 557 522 557 451 q 544 725 557 625 q 531 928 531 825 q 536 967 531 947 q 558 1004 542 988 q 601 1031 574 1021 q 669 1042 628 1042 q 740 1031 713 1042 q 782 1002 767 1019 q 803 965 797 985 q 808 925 808 944 q 803 824 808 875 q 794 724 799 774 q 785 623 789 674 q 783 521 782 572 m 243 1258 q 264 1315 243 1294 q 325 1336 285 1336 q 385 1315 365 1336 q 406 1258 406 1294 q 385 1201 406 1222 q 325 1181 365 1181 q 264 1201 285 1181 q 243 1258 243 1222 m 438 1258 q 458 1315 438 1294 q 519 1336 479 1336 q 580 1315 560 1336 q 600 1258 600 1294 q 580 1201 600 1222 q 519 1181 560 1181 q 458 1201 479 1181 q 438 1258 438 1222 z "},"":{"ha":894,"x_min":11,"x_max":883,"o":"m 321 432 q 255 539 289 489 q 185 640 221 589 q 111 744 150 690 q 29 864 72 799 q 15 903 18 881 q 19 948 11 925 q 50 993 28 971 q 111 1032 72 1015 q 179 1049 150 1049 q 229 1038 208 1049 q 263 1010 250 1028 q 285 974 276 993 q 333 858 314 906 q 369 772 353 810 q 400 700 385 733 q 436 626 415 667 q 458 626 447 607 q 494 700 479 667 q 526 772 510 733 q 561 858 542 810 q 610 974 581 906 q 631 1010 618 993 q 665 1038 644 1028 q 715 1049 686 1049 q 783 1032 744 1049 q 845 993 824 1015 q 875 948 867 971 q 880 903 883 925 q 865 864 876 881 q 783 744 822 799 q 708 638 744 689 q 638 537 672 588 q 571 428 604 486 q 563 406 565 418 q 563 383 561 394 q 577 257 569 321 q 585 114 585 193 q 579 74 585 94 q 558 38 574 54 q 515 10 542 21 q 446 0 488 0 q 376 11 403 0 q 333 40 349 22 q 313 77 318 57 q 307 117 307 97 q 315 256 307 190 q 331 388 324 321 q 329 410 332 399 q 321 432 326 422 m 400 1304 q 427 1326 411 1319 q 460 1333 443 1333 l 563 1333 q 571 1310 599 1333 l 432 1188 q 396 1167 417 1175 q 356 1160 375 1160 l 335 1160 q 319 1189 299 1160 l 400 1304 z "},"":{"ha":821,"x_min":35,"x_max":793,"o":"m 356 871 q 543 863 461 883 q 681 797 625 843 q 765 683 736 751 q 793 528 793 614 q 756 378 793 444 q 657 265 719 311 q 512 194 594 219 q 338 169 429 169 l 315 169 q 294 151 294 169 q 294 114 294 132 q 292 74 294 94 q 276 38 289 54 q 240 10 264 21 q 174 0 215 0 q 103 11 131 0 q 61 40 76 22 q 40 77 46 57 q 35 117 35 97 q 39 211 35 165 q 49 302 43 257 q 58 391 54 347 q 63 479 63 435 l 63 563 q 58 651 63 607 q 49 740 54 694 q 39 831 43 785 q 35 925 35 876 q 44 965 35 944 q 72 1003 53 986 q 122 1031 92 1019 q 196 1042 153 1042 q 259 1028 232 1042 q 302 990 286 1014 q 323 935 318 967 q 321 867 328 903 l 356 871 m 367 361 q 456 376 421 361 q 513 416 492 392 q 542 470 533 440 q 551 529 551 500 q 542 588 551 558 q 512 640 533 617 q 452 673 490 663 q 356 675 414 683 l 299 667 q 297 591 297 629 q 296 517 296 553 q 296 452 296 482 q 296 403 296 422 l 296 385 q 319 361 296 361 l 367 361 z "},"":{"ha":849,"x_min":35,"x_max":821,"o":"m 63 479 l 63 563 q 58 651 63 607 q 49 740 54 694 q 39 831 43 785 q 35 925 35 876 q 40 965 35 944 q 62 1002 46 985 q 105 1031 78 1019 q 175 1042 132 1042 l 314 1042 q 484 1026 404 1042 q 624 976 564 1010 q 717 892 683 943 q 751 771 751 842 q 722 664 751 713 q 643 579 692 615 q 713 558 681 579 q 769 504 744 538 q 807 431 793 471 q 821 354 821 392 q 796 210 821 275 q 728 98 771 144 q 629 26 685 51 q 513 0 574 0 l 481 0 q 403 35 428 0 q 378 112 378 69 q 405 189 379 154 q 481 224 431 224 l 488 224 q 526 235 510 224 q 555 265 543 246 q 573 306 567 283 q 579 353 579 329 q 552 433 579 401 q 481 465 525 465 l 408 465 q 333 496 357 465 q 311 563 310 526 q 338 629 313 599 q 411 660 364 660 l 442 660 q 487 680 464 660 q 510 758 510 700 q 502 797 510 781 q 474 823 494 813 q 421 839 454 833 q 336 846 388 844 q 308 819 311 846 q 301 751 306 783 q 293 686 296 718 q 288 625 290 656 q 285 563 285 594 l 285 479 l 285 468 q 285 449 285 457 q 286 439 286 442 q 287 424 286 431 q 288 410 288 417 q 303 271 293 340 q 313 114 313 201 q 307 74 313 94 q 285 38 301 54 q 242 10 269 21 q 174 0 215 0 q 103 11 131 0 q 61 40 76 22 q 40 77 46 57 q 35 117 35 97 q 39 211 35 165 q 49 302 43 257 q 58 391 54 347 q 63 479 63 435 z "},"":{"ha":782,"x_min":24,"x_max":754,"o":"m 24 301 q 47 460 24 379 q 115 607 71 542 q 220 714 158 672 q 358 756 282 756 q 442 740 407 756 q 508 699 476 725 q 549 731 522 718 q 622 744 575 744 q 688 735 663 744 q 728 710 713 725 q 749 676 743 694 q 754 642 754 658 q 740 526 754 585 q 726 401 726 467 l 726 342 q 740 219 726 278 q 754 101 754 160 q 749 67 754 85 q 728 35 743 50 q 688 10 713 19 q 622 0 663 0 q 528 24 557 0 q 493 76 500 49 q 408 11 458 36 q 275 -14 357 -14 q 166 2 213 -14 q 88 55 119 18 q 40 152 56 92 q 24 301 24 213 m 246 314 q 256 254 246 278 q 283 217 265 231 q 324 197 300 203 q 374 192 347 192 q 438 206 411 192 q 481 245 464 221 q 507 301 499 269 q 515 369 515 333 q 511 453 515 415 q 494 517 507 490 q 455 557 481 543 q 388 571 429 571 q 330 546 356 571 q 285 483 304 521 q 256 401 267 446 q 246 314 246 356 m 518 911 q 503 882 539 882 l 482 882 q 442 890 463 882 q 406 910 421 897 l 267 1032 q 275 1056 239 1056 l 378 1056 q 410 1049 394 1056 q 438 1026 426 1042 l 518 911 z "},"":{"ha":782,"x_min":24,"x_max":754,"o":"m 24 301 q 47 460 24 379 q 115 607 71 542 q 220 714 158 672 q 358 756 282 756 q 442 740 407 756 q 508 699 476 725 q 549 731 522 718 q 622 744 575 744 q 688 735 663 744 q 728 710 713 725 q 749 676 743 694 q 754 642 754 658 q 740 526 754 585 q 726 401 726 467 l 726 342 q 740 219 726 278 q 754 101 754 160 q 749 67 754 85 q 728 35 743 50 q 688 10 713 19 q 622 0 663 0 q 528 24 557 0 q 493 76 500 49 q 408 11 458 36 q 275 -14 357 -14 q 166 2 213 -14 q 88 55 119 18 q 40 152 56 92 q 24 301 24 213 m 246 314 q 256 254 246 278 q 283 217 265 231 q 324 197 300 203 q 374 192 347 192 q 438 206 411 192 q 481 245 464 221 q 507 301 499 269 q 515 369 515 333 q 511 453 515 415 q 494 517 507 490 q 455 557 481 543 q 388 571 429 571 q 330 546 356 571 q 285 483 304 521 q 256 401 267 446 q 246 314 246 356 m 344 1026 q 372 1049 356 1042 q 404 1056 388 1056 l 507 1056 q 515 1032 543 1056 l 376 910 q 340 890 361 897 q 300 882 319 882 l 279 882 q 264 911 243 882 l 344 1026 z "},"":{"ha":782,"x_min":24,"x_max":754,"o":"m 24 301 q 47 460 24 379 q 115 607 71 542 q 220 714 158 672 q 358 756 282 756 q 442 740 407 756 q 508 699 476 725 q 549 731 522 718 q 622 744 575 744 q 688 735 663 744 q 728 710 713 725 q 749 676 743 694 q 754 642 754 658 q 740 526 754 585 q 726 401 726 467 l 726 342 q 740 219 726 278 q 754 101 754 160 q 749 67 754 85 q 728 35 743 50 q 688 10 713 19 q 622 0 663 0 q 528 24 557 0 q 493 76 500 49 q 408 11 458 36 q 275 -14 357 -14 q 166 2 213 -14 q 88 55 119 18 q 40 152 56 92 q 24 301 24 213 m 246 314 q 256 254 246 278 q 283 217 265 231 q 324 197 300 203 q 374 192 347 192 q 438 206 411 192 q 481 245 464 221 q 507 301 499 269 q 515 369 515 333 q 511 453 515 415 q 494 517 507 490 q 455 557 481 543 q 388 571 429 571 q 330 546 356 571 q 285 483 304 521 q 256 401 267 446 q 246 314 246 356 m 407 961 q 379 963 393 979 l 340 914 q 313 892 329 900 q 281 885 297 885 l 225 885 q 201 893 208 885 q 206 913 193 901 l 322 1028 q 355 1047 335 1039 q 392 1056 375 1056 q 429 1047 410 1056 q 461 1028 449 1039 l 578 913 q 583 893 590 901 q 558 885 575 885 l 503 885 q 470 893 486 885 q 443 915 454 901 l 407 961 z "},"":{"ha":782,"x_min":24,"x_max":754,"o":"m 24 301 q 47 460 24 379 q 115 607 71 542 q 220 714 158 672 q 358 756 282 756 q 442 740 407 756 q 508 699 476 725 q 549 731 522 718 q 622 744 575 744 q 688 735 663 744 q 728 710 713 725 q 749 676 743 694 q 754 642 754 658 q 740 526 754 585 q 726 401 726 467 l 726 342 q 740 219 726 278 q 754 101 754 160 q 749 67 754 85 q 728 35 743 50 q 688 10 713 19 q 622 0 663 0 q 528 24 557 0 q 493 76 500 49 q 408 11 458 36 q 275 -14 357 -14 q 166 2 213 -14 q 88 55 119 18 q 40 152 56 92 q 24 301 24 213 m 246 314 q 256 254 246 278 q 283 217 265 231 q 324 197 300 203 q 374 192 347 192 q 438 206 411 192 q 481 245 464 221 q 507 301 499 269 q 515 369 515 333 q 511 453 515 415 q 494 517 507 490 q 455 557 481 543 q 388 571 429 571 q 330 546 356 571 q 285 483 304 521 q 256 401 267 446 q 246 314 246 356 m 404 836 q 356 869 382 847 q 306 903 331 892 q 263 908 282 915 q 233 851 243 900 q 210 823 228 832 q 174 815 193 814 q 138 825 156 815 q 114 851 121 835 q 141 954 114 910 q 210 1022 168 999 q 304 1042 253 1044 q 404 1003 356 1039 q 454 973 431 983 q 497 963 478 963 q 528 978 515 964 q 543 1021 540 992 q 561 1059 543 1046 q 601 1072 579 1072 q 644 1059 624 1072 q 669 1021 665 1046 q 640 908 669 951 q 569 842 611 864 q 483 820 528 821 q 404 836 438 819 z "},"":{"ha":782,"x_min":24,"x_max":754,"o":"m 24 301 q 47 460 24 379 q 115 607 71 542 q 220 714 158 672 q 358 756 282 756 q 442 740 407 756 q 508 699 476 725 q 549 731 522 718 q 622 744 575 744 q 688 735 663 744 q 728 710 713 725 q 749 676 743 694 q 754 642 754 658 q 740 526 754 585 q 726 401 726 467 l 726 342 q 740 219 726 278 q 754 101 754 160 q 749 67 754 85 q 728 35 743 50 q 688 10 713 19 q 622 0 663 0 q 528 24 557 0 q 493 76 500 49 q 408 11 458 36 q 275 -14 357 -14 q 166 2 213 -14 q 88 55 119 18 q 40 152 56 92 q 24 301 24 213 m 246 314 q 256 254 246 278 q 283 217 265 231 q 324 197 300 203 q 374 192 347 192 q 438 206 411 192 q 481 245 464 221 q 507 301 499 269 q 515 369 515 333 q 511 453 515 415 q 494 517 507 490 q 455 557 481 543 q 388 571 429 571 q 330 546 356 571 q 285 483 304 521 q 256 401 267 446 q 246 314 246 356 m 213 981 q 233 1038 213 1017 q 294 1058 254 1058 q 355 1038 335 1058 q 375 981 375 1017 q 355 924 375 944 q 294 903 335 903 q 233 924 254 903 q 213 981 213 944 m 407 981 q 428 1038 407 1017 q 489 1058 449 1058 q 549 1038 529 1058 q 569 981 569 1017 q 549 924 569 944 q 489 903 529 903 q 428 924 449 903 q 407 981 407 944 z "},"":{"ha":782,"x_min":24,"x_max":754,"o":"m 24 301 q 47 460 24 379 q 115 607 71 542 q 220 714 158 672 q 358 756 282 756 q 442 740 407 756 q 508 699 476 725 q 549 731 522 718 q 622 744 575 744 q 688 735 663 744 q 728 710 713 725 q 749 676 743 694 q 754 642 754 658 q 740 526 754 585 q 726 401 726 467 l 726 342 q 740 219 726 278 q 754 101 754 160 q 749 67 754 85 q 728 35 743 50 q 688 10 713 19 q 622 0 663 0 q 528 24 557 0 q 493 76 500 49 q 408 11 458 36 q 275 -14 357 -14 q 166 2 213 -14 q 88 55 119 18 q 40 152 56 92 q 24 301 24 213 m 246 314 q 256 254 246 278 q 283 217 265 231 q 324 197 300 203 q 374 192 347 192 q 438 206 411 192 q 481 245 464 221 q 507 301 499 269 q 515 369 515 333 q 511 453 515 415 q 494 517 507 490 q 455 557 481 543 q 388 571 429 571 q 330 546 356 571 q 285 483 304 521 q 256 401 267 446 q 246 314 246 356 m 296 975 q 322 1043 296 1018 q 392 1068 347 1068 q 462 1043 436 1068 q 488 975 488 1018 q 462 906 488 931 q 392 881 436 881 q 322 906 347 881 q 296 975 296 931 m 342 975 q 353 938 342 953 q 392 924 364 924 q 431 938 419 924 q 442 975 442 953 q 431 1010 442 996 q 392 1025 419 1025 q 351 1010 361 1025 q 342 975 342 996 z "},"":{"ha":1269,"x_min":24,"x_max":1251,"o":"m 24 301 q 47 460 24 379 q 115 607 71 542 q 220 714 158 672 q 358 756 282 756 q 442 740 407 756 q 508 699 476 725 q 549 731 522 718 q 622 744 575 744 q 688 734 663 744 q 729 708 714 724 q 931 756 821 756 q 1051 734 999 756 q 1138 678 1104 713 q 1187 599 1172 643 q 1194 508 1201 554 q 1154 417 1186 461 q 1065 338 1122 372 q 944 276 1008 303 q 814 232 881 250 q 802 224 803 229 q 811 213 801 218 q 904 192 847 192 q 992 214 957 192 q 1065 269 1026 236 q 1143 292 1103 301 q 1211 252 1183 283 q 1245 178 1239 221 q 1219 100 1251 136 q 1160 53 1197 75 q 1080 17 1124 32 q 990 -6 1036 3 q 903 -14 944 -14 q 801 -6 850 -14 q 708 21 751 3 q 648 -1 682 4 q 582 1 614 -6 q 526 27 550 8 q 493 76 501 46 q 408 11 458 36 q 275 -14 357 -14 q 166 2 213 -14 q 88 55 119 18 q 40 152 56 92 q 24 301 24 213 m 246 314 q 256 254 246 278 q 283 217 265 231 q 324 197 300 203 q 374 192 347 192 q 474 236 440 192 q 514 343 508 281 l 514 357 q 514 374 514 365 q 515 390 514 382 q 510 465 515 432 q 490 522 504 499 q 452 558 476 546 q 388 571 428 571 q 330 546 356 571 q 285 483 304 521 q 256 401 267 446 q 246 314 246 356 m 738 408 q 757 392 735 385 q 837 421 794 404 q 928 461 879 438 q 959 490 950 472 q 966 526 968 508 q 951 558 964 544 q 918 571 939 571 q 796 528 843 571 q 738 408 749 485 z "},"":{"ha":765,"x_min":24,"x_max":747,"o":"m 588 532 q 497 563 535 556 q 428 571 460 571 q 294 517 343 571 q 246 369 246 463 q 254 301 246 333 q 283 245 263 269 q 335 206 303 221 q 414 192 367 192 q 459 198 440 192 q 494 215 478 204 q 526 239 510 225 q 561 269 542 253 q 639 292 599 301 q 707 252 679 283 q 741 178 735 221 q 715 100 747 136 q 658 53 693 75 q 583 17 624 32 q 498 -6 542 3 q 413 -14 454 -14 q 258 7 329 -14 q 135 73 188 28 q 53 188 83 118 q 24 357 24 258 q 54 519 24 446 q 139 644 85 592 q 267 726 193 697 q 426 756 340 756 q 497 750 465 756 q 556 736 529 744 q 608 716 583 728 q 658 692 633 704 q 702 641 692 675 q 702 576 713 607 q 663 529 692 546 q 588 532 633 513 m 376 -336 q 311 -324 335 -336 q 269 -297 288 -311 q 244 -251 246 -279 q 253 -200 242 -222 q 285 -171 264 -178 q 328 -186 306 -164 q 374 -211 349 -207 q 414 -192 400 -215 q 418 -172 418 -186 q 408 -143 418 -157 q 373 -119 397 -129 q 301 -108 349 -108 l 332 14 l 438 14 l 419 -54 q 467 -72 447 -57 q 499 -107 486 -87 q 517 -148 511 -126 q 522 -183 522 -169 q 510 -252 522 -224 q 477 -299 497 -281 q 431 -327 457 -318 q 376 -336 404 -336 z "},"":{"ha":779,"x_min":24,"x_max":761,"o":"m 324 232 q 312 224 313 229 q 321 213 311 218 q 414 192 357 192 q 501 214 467 192 q 575 269 536 236 q 653 292 613 301 q 721 252 693 283 q 755 178 749 221 q 729 100 761 136 q 670 53 707 75 q 590 17 633 32 q 500 -6 546 3 q 413 -14 454 -14 q 258 7 329 -14 q 135 73 188 28 q 53 188 83 118 q 24 357 24 258 q 56 519 24 446 q 145 644 89 592 q 278 726 201 697 q 440 756 354 756 q 561 734 508 756 q 648 678 614 713 q 697 599 682 643 q 703 508 711 554 q 665 417 696 461 q 575 338 633 372 q 454 276 518 303 q 324 232 390 250 m 247 408 q 267 392 244 385 q 347 421 304 404 q 438 461 389 438 q 469 490 460 472 q 476 526 478 508 q 461 558 474 544 q 428 571 449 571 q 306 528 353 571 q 247 408 258 485 m 517 911 q 501 882 538 882 l 481 882 q 440 890 461 882 q 404 910 419 897 l 265 1032 q 274 1056 238 1056 l 376 1056 q 409 1049 393 1056 q 436 1026 425 1042 l 517 911 z "},"":{"ha":779,"x_min":24,"x_max":761,"o":"m 324 232 q 312 224 313 229 q 321 213 311 218 q 414 192 357 192 q 501 214 467 192 q 575 269 536 236 q 653 292 613 301 q 721 252 693 283 q 755 178 749 221 q 729 100 761 136 q 670 53 707 75 q 590 17 633 32 q 500 -6 546 3 q 413 -14 454 -14 q 258 7 329 -14 q 135 73 188 28 q 53 188 83 118 q 24 357 24 258 q 56 519 24 446 q 145 644 89 592 q 278 726 201 697 q 440 756 354 756 q 561 734 508 756 q 648 678 614 713 q 697 599 682 643 q 703 508 711 554 q 665 417 696 461 q 575 338 633 372 q 454 276 518 303 q 324 232 390 250 m 247 408 q 267 392 244 385 q 347 421 304 404 q 438 461 389 438 q 469 490 460 472 q 476 526 478 508 q 461 558 474 544 q 428 571 449 571 q 306 528 353 571 q 247 408 258 485 m 263 911 l 343 1026 q 370 1049 354 1042 q 403 1056 386 1056 l 506 1056 q 514 1032 542 1056 l 375 910 q 339 890 360 897 q 299 882 318 882 l 278 882 q 263 911 242 882 z "},"":{"ha":779,"x_min":24,"x_max":761,"o":"m 324 232 q 312 224 313 229 q 321 213 311 218 q 414 192 357 192 q 501 214 467 192 q 575 269 536 236 q 653 292 613 301 q 721 252 693 283 q 755 178 749 221 q 729 100 761 136 q 670 53 707 75 q 590 17 633 32 q 500 -6 546 3 q 413 -14 454 -14 q 258 7 329 -14 q 135 73 188 28 q 53 188 83 118 q 24 357 24 258 q 56 519 24 446 q 145 644 89 592 q 278 726 201 697 q 440 756 354 756 q 561 734 508 756 q 648 678 614 713 q 697 599 682 643 q 703 508 711 554 q 665 417 696 461 q 575 338 633 372 q 454 276 518 303 q 324 232 390 250 m 247 408 q 267 392 244 385 q 347 421 304 404 q 438 461 389 438 q 469 490 460 472 q 476 526 478 508 q 461 558 474 544 q 428 571 449 571 q 306 528 353 571 q 247 408 258 485 m 406 961 q 378 963 392 979 l 339 914 q 312 892 328 900 q 279 885 296 885 l 224 885 q 199 893 207 885 q 204 913 192 901 l 321 1028 q 353 1047 333 1039 q 390 1056 374 1056 q 428 1047 408 1056 q 460 1028 447 1039 l 576 913 q 581 893 589 901 q 557 885 574 885 l 501 885 q 469 893 485 885 q 442 915 453 901 l 406 961 z "},"":{"ha":779,"x_min":24,"x_max":761,"o":"m 324 232 q 312 224 313 229 q 321 213 311 218 q 414 192 357 192 q 501 214 467 192 q 575 269 536 236 q 653 292 613 301 q 721 252 693 283 q 755 178 749 221 q 729 100 761 136 q 670 53 707 75 q 590 17 633 32 q 500 -6 546 3 q 413 -14 454 -14 q 258 7 329 -14 q 135 73 188 28 q 53 188 83 118 q 24 357 24 258 q 56 519 24 446 q 145 644 89 592 q 278 726 201 697 q 440 756 354 756 q 561 734 508 756 q 648 678 614 713 q 697 599 682 643 q 703 508 711 554 q 665 417 696 461 q 575 338 633 372 q 454 276 518 303 q 324 232 390 250 m 247 408 q 267 392 244 385 q 347 421 304 404 q 438 461 389 438 q 469 490 460 472 q 476 526 478 508 q 461 558 474 544 q 428 571 449 571 q 306 528 353 571 q 247 408 258 485 m 211 981 q 232 1038 211 1017 q 293 1058 253 1058 q 353 1038 333 1058 q 374 981 374 1017 q 353 924 374 944 q 293 903 333 903 q 232 924 253 903 q 211 981 211 944 m 406 981 q 426 1038 406 1017 q 488 1058 447 1058 q 548 1038 528 1058 q 568 981 568 1017 q 548 924 568 944 q 488 903 528 903 q 426 924 447 903 q 406 981 406 944 z "},"":{"ha":325,"x_min":11,"x_max":311,"o":"m 61 401 q 57 466 61 433 q 47 529 53 499 q 38 588 42 560 q 33 640 33 615 q 39 675 33 657 q 59 708 44 693 q 99 734 74 724 q 165 744 125 744 q 231 735 206 744 q 271 710 256 725 q 292 676 286 694 q 297 642 297 658 q 283 526 297 585 q 269 401 269 467 l 269 342 q 283 219 269 278 q 297 101 297 160 q 292 67 297 85 q 271 35 286 50 q 231 10 256 19 q 165 0 206 0 q 99 10 125 0 q 59 35 74 19 q 39 69 44 51 q 33 104 33 88 q 38 157 33 129 q 47 215 42 185 q 57 278 53 246 q 61 342 61 310 l 61 401 m 290 911 q 275 882 311 882 l 254 882 q 214 890 235 882 q 178 910 193 897 l 39 1032 q 47 1056 11 1056 l 150 1056 q 183 1049 167 1056 q 210 1026 199 1042 l 290 911 z "},"":{"ha":325,"x_min":14,"x_max":314,"o":"m 61 401 q 57 466 61 433 q 47 529 53 499 q 38 588 42 560 q 33 640 33 615 q 39 675 33 657 q 59 708 44 693 q 99 734 74 724 q 165 744 125 744 q 231 735 206 744 q 271 710 256 725 q 292 676 286 694 q 297 642 297 658 q 283 526 297 585 q 269 401 269 467 l 269 342 q 283 219 269 278 q 297 101 297 160 q 292 67 297 85 q 271 35 286 50 q 231 10 256 19 q 165 0 206 0 q 99 10 125 0 q 59 35 74 19 q 39 69 44 51 q 33 104 33 88 q 38 157 33 129 q 47 215 42 185 q 57 278 53 246 q 61 342 61 310 l 61 401 m 115 1026 q 142 1049 126 1042 q 175 1056 158 1056 l 278 1056 q 286 1032 314 1056 l 147 910 q 111 890 132 897 q 71 882 90 882 l 50 882 q 35 911 14 882 l 115 1026 z "},"":{"ha":325,"x_min":-36,"x_max":361,"o":"m 61 401 q 57 466 61 433 q 47 529 53 499 q 38 588 42 560 q 33 640 33 615 q 39 675 33 657 q 59 708 44 693 q 99 734 74 724 q 165 744 125 744 q 231 735 206 744 q 271 710 256 725 q 292 676 286 694 q 297 642 297 658 q 283 526 297 585 q 269 401 269 467 l 269 342 q 283 219 269 278 q 297 101 297 160 q 292 67 297 85 q 271 35 286 50 q 231 10 256 19 q 165 0 206 0 q 99 10 125 0 q 59 35 74 19 q 39 69 44 51 q 33 104 33 88 q 38 157 33 129 q 47 215 42 185 q 57 278 53 246 q 61 342 61 310 l 61 401 m 178 961 q 150 963 164 979 l 111 914 q 84 892 100 900 q 51 885 68 885 l -4 885 q -28 893 -21 885 q -24 913 -36 901 l 93 1028 q 126 1047 106 1039 q 163 1056 146 1056 q 200 1047 181 1056 q 232 1028 219 1039 l 349 913 q 353 893 361 901 q 329 885 346 885 l 274 885 q 241 893 257 885 q 214 915 225 901 l 178 961 z "},"":{"ha":325,"x_min":-17,"x_max":340,"o":"m 61 401 q 57 466 61 433 q 47 529 53 499 q 38 588 42 560 q 33 640 33 615 q 39 675 33 657 q 59 708 44 693 q 99 734 74 724 q 165 744 125 744 q 231 735 206 744 q 271 710 256 725 q 292 676 286 694 q 297 642 297 658 q 283 526 297 585 q 269 401 269 467 l 269 342 q 283 219 269 278 q 297 101 297 160 q 292 67 297 85 q 271 35 286 50 q 231 10 256 19 q 165 0 206 0 q 99 10 125 0 q 59 35 74 19 q 39 69 44 51 q 33 104 33 88 q 38 157 33 129 q 47 215 42 185 q 57 278 53 246 q 61 342 61 310 l 61 401 m -17 981 q 4 1038 -17 1017 q 65 1058 25 1058 q 126 1038 106 1058 q 146 981 146 1017 q 126 924 146 944 q 65 903 106 903 q 4 924 25 903 q -17 981 -17 944 m 178 981 q 199 1038 178 1017 q 260 1058 219 1058 q 320 1038 300 1058 q 340 981 340 1017 q 320 924 340 944 q 260 903 300 903 q 199 924 219 903 q 178 981 178 944 z "},"":{"ha":863,"x_min":28,"x_max":850,"o":"m 282 1056 q 484 1026 390 1056 q 649 929 578 996 q 688 947 667 938 q 736 968 710 957 q 795 978 769 982 q 835 935 821 974 q 833 876 850 896 q 783 842 817 856 q 757 832 769 836 q 732 824 744 828 q 788 673 768 758 q 807 479 807 588 q 782 250 807 344 q 708 97 757 156 q 588 13 660 39 q 424 -14 517 -14 q 123 82 218 -14 q 28 354 28 178 q 55 483 28 429 q 128 574 82 538 q 237 627 175 610 q 369 644 299 644 q 426 640 401 644 q 473 626 451 635 q 515 606 494 618 q 557 578 535 593 q 538 667 550 625 q 507 746 526 710 q 441 713 474 731 q 376 682 408 694 q 317 672 343 668 q 275 714 292 676 q 276 772 260 751 q 325 806 292 792 q 376 823 351 817 q 424 836 400 829 q 338 860 385 860 q 201 890 246 860 q 151 958 156 921 q 181 1025 147 994 q 282 1056 215 1056 m 563 400 q 491 466 531 449 q 411 483 451 483 q 361 478 386 483 q 315 460 336 474 q 282 421 294 446 q 269 356 269 396 q 303 249 269 288 q 424 211 338 211 q 485 222 460 211 q 526 256 510 233 q 551 315 543 279 q 563 400 560 350 z "},"":{"ha":778,"x_min":28,"x_max":750,"o":"m 271 443 q 269 422 269 432 q 269 401 269 413 l 269 342 q 283 219 269 278 q 297 101 297 160 q 291 67 297 85 q 269 35 285 50 q 228 10 254 19 q 163 0 203 0 q 97 10 122 0 q 56 35 71 19 q 34 69 40 51 q 28 104 28 88 q 32 157 28 129 q 42 215 36 185 q 51 278 47 246 q 56 342 56 310 l 56 401 q 51 466 56 433 q 42 529 47 499 q 32 588 36 560 q 28 640 28 615 q 34 675 28 657 q 56 708 40 693 q 97 734 71 724 q 163 744 122 744 q 226 735 200 744 q 267 713 251 726 q 289 682 282 699 q 297 649 296 665 q 363 710 325 682 q 451 749 400 738 q 542 757 490 757 q 640 740 593 757 q 718 688 686 724 q 750 590 750 653 q 736 474 750 533 q 722 350 722 415 l 722 342 q 736 219 722 278 q 750 101 750 160 q 744 67 750 85 q 724 35 739 50 q 683 10 708 19 q 618 0 658 0 q 552 10 578 0 q 512 35 526 19 q 492 69 497 51 q 486 104 486 88 q 490 157 486 129 q 500 215 494 185 q 510 278 506 246 q 514 342 514 310 l 514 350 q 450 554 514 540 q 420 558 438 557 q 383 553 403 558 q 342 537 364 549 q 297 501 319 525 q 279 475 286 490 q 271 443 272 460 m 401 836 q 353 869 379 847 q 303 903 328 892 q 260 908 279 915 q 231 851 240 900 q 208 823 225 832 q 172 815 190 814 q 135 825 153 815 q 111 851 118 835 q 138 954 111 910 q 208 1022 165 999 q 301 1042 250 1044 q 401 1003 353 1039 q 451 973 428 983 q 494 963 475 963 q 525 978 513 964 q 540 1021 538 992 q 558 1059 540 1046 q 599 1072 576 1072 q 642 1059 621 1072 q 667 1021 663 1046 q 638 908 667 951 q 567 842 608 864 q 480 820 525 821 q 401 836 435 819 z "},"":{"ha":838,"x_min":24,"x_max":814,"o":"m 24 357 q 53 519 24 446 q 135 644 82 592 q 260 726 188 697 q 419 756 333 756 q 578 726 506 756 q 703 644 650 697 q 785 519 756 592 q 814 357 814 446 q 785 188 814 258 q 705 73 757 118 q 580 7 653 28 q 419 -14 507 -14 q 259 7 332 -14 q 134 73 186 28 q 53 188 82 118 q 24 357 24 258 m 244 369 q 252 301 244 333 q 280 245 260 269 q 334 206 300 221 q 421 192 368 192 q 508 206 474 192 q 562 245 542 221 q 590 301 582 269 q 597 369 597 333 q 551 517 597 463 q 421 571 506 571 q 290 517 336 571 q 244 369 244 463 m 546 911 q 531 882 567 882 l 510 882 q 469 890 490 882 q 433 910 449 897 l 294 1032 q 303 1056 267 1056 l 406 1056 q 438 1049 422 1056 q 465 1026 454 1042 l 546 911 z "},"":{"ha":838,"x_min":24,"x_max":814,"o":"m 24 357 q 53 519 24 446 q 135 644 82 592 q 260 726 188 697 q 419 756 333 756 q 578 726 506 756 q 703 644 650 697 q 785 519 756 592 q 814 357 814 446 q 785 188 814 258 q 705 73 757 118 q 580 7 653 28 q 419 -14 507 -14 q 259 7 332 -14 q 134 73 186 28 q 53 188 82 118 q 24 357 24 258 m 244 369 q 252 301 244 333 q 280 245 260 269 q 334 206 300 221 q 421 192 368 192 q 508 206 474 192 q 562 245 542 221 q 590 301 582 269 q 597 369 597 333 q 551 517 597 463 q 421 571 506 571 q 290 517 336 571 q 244 369 244 463 m 372 1026 q 399 1049 383 1042 q 432 1056 415 1056 l 535 1056 q 543 1032 571 1056 l 404 910 q 368 890 389 897 q 328 882 347 882 l 307 882 q 292 911 271 882 l 372 1026 z "},"":{"ha":838,"x_min":24,"x_max":814,"o":"m 24 357 q 53 519 24 446 q 135 644 82 592 q 260 726 188 697 q 419 756 333 756 q 578 726 506 756 q 703 644 650 697 q 785 519 756 592 q 814 357 814 446 q 785 188 814 258 q 705 73 757 118 q 580 7 653 28 q 419 -14 507 -14 q 259 7 332 -14 q 134 73 186 28 q 53 188 82 118 q 24 357 24 258 m 244 369 q 252 301 244 333 q 280 245 260 269 q 334 206 300 221 q 421 192 368 192 q 508 206 474 192 q 562 245 542 221 q 590 301 582 269 q 597 369 597 333 q 551 517 597 463 q 421 571 506 571 q 290 517 336 571 q 244 369 244 463 m 435 961 q 407 963 421 979 l 368 914 q 341 892 357 900 q 308 885 325 885 l 253 885 q 228 893 236 885 q 233 913 221 901 l 350 1028 q 383 1047 363 1039 q 419 1056 403 1056 q 457 1047 438 1056 q 489 1028 476 1039 l 606 913 q 610 893 618 901 q 586 885 603 885 l 531 885 q 498 893 514 885 q 471 915 482 901 l 435 961 z "},"":{"ha":838,"x_min":24,"x_max":814,"o":"m 24 357 q 53 519 24 446 q 135 644 82 592 q 260 726 188 697 q 419 756 333 756 q 578 726 506 756 q 703 644 650 697 q 785 519 756 592 q 814 357 814 446 q 785 188 814 258 q 705 73 757 118 q 580 7 653 28 q 419 -14 507 -14 q 259 7 332 -14 q 134 73 186 28 q 53 188 82 118 q 24 357 24 258 m 244 369 q 252 301 244 333 q 280 245 260 269 q 334 206 300 221 q 421 192 368 192 q 508 206 474 192 q 562 245 542 221 q 590 301 582 269 q 597 369 597 333 q 551 517 597 463 q 421 571 506 571 q 290 517 336 571 q 244 369 244 463 m 432 836 q 384 869 410 847 q 334 903 358 892 q 290 908 310 915 q 261 851 271 900 q 238 823 256 832 q 202 815 221 814 q 166 825 183 815 q 142 851 149 835 q 169 954 142 910 q 238 1022 196 999 q 332 1042 281 1044 q 432 1003 383 1039 q 482 973 458 983 q 524 963 506 963 q 556 978 543 964 q 571 1021 568 992 q 589 1059 571 1046 q 629 1072 607 1072 q 672 1059 651 1072 q 697 1021 693 1046 q 668 908 697 951 q 597 842 639 864 q 510 820 556 821 q 432 836 465 819 z "},"":{"ha":838,"x_min":24,"x_max":814,"o":"m 24 357 q 53 519 24 446 q 135 644 82 592 q 260 726 188 697 q 419 756 333 756 q 578 726 506 756 q 703 644 650 697 q 785 519 756 592 q 814 357 814 446 q 785 188 814 258 q 705 73 757 118 q 580 7 653 28 q 419 -14 507 -14 q 259 7 332 -14 q 134 73 186 28 q 53 188 82 118 q 24 357 24 258 m 244 369 q 252 301 244 333 q 280 245 260 269 q 334 206 300 221 q 421 192 368 192 q 508 206 474 192 q 562 245 542 221 q 590 301 582 269 q 597 369 597 333 q 551 517 597 463 q 421 571 506 571 q 290 517 336 571 q 244 369 244 463 m 240 981 q 261 1038 240 1017 q 322 1058 282 1058 q 383 1038 363 1058 q 403 981 403 1017 q 383 924 403 944 q 322 903 363 903 q 261 924 282 903 q 240 981 240 944 m 435 981 q 456 1038 435 1017 q 517 1058 476 1058 q 577 1038 557 1058 q 597 981 597 1017 q 577 924 597 944 q 517 903 557 903 q 456 924 476 903 q 435 981 435 944 z "},"":{"ha":697,"x_min":22,"x_max":675,"o":"m 213 792 q 247 878 213 846 q 349 910 282 910 q 450 878 415 910 q 485 792 485 846 q 450 704 485 736 q 349 672 415 672 q 247 704 282 672 q 213 792 213 736 m 321 438 q 222 429 272 438 q 125 421 171 421 q 55 444 86 421 q 22 531 24 467 q 31 583 22 563 q 53 617 39 604 q 85 635 67 629 q 122 640 103 640 q 226 632 179 640 q 321 624 272 624 l 376 624 q 472 632 425 624 q 575 640 518 640 q 613 635 594 640 q 644 617 631 629 q 667 583 658 604 q 675 531 675 563 q 642 444 674 467 q 572 421 611 421 q 476 429 526 421 q 376 438 425 438 l 321 438 m 213 275 q 247 361 213 329 q 349 393 282 393 q 450 361 415 393 q 485 275 485 329 q 450 188 485 219 q 349 156 415 156 q 247 188 282 156 q 213 275 213 219 z "},"":{"ha":838,"x_min":24,"x_max":814,"o":"m 108 97 q 46 206 68 142 q 24 357 24 271 q 53 519 24 446 q 135 644 82 592 q 260 726 188 697 q 419 756 333 756 l 439 756 q 488 783 469 753 q 542 826 506 813 q 632 811 579 840 q 689 754 675 788 q 699 690 703 721 q 713 635 694 656 q 788 512 761 582 q 814 357 814 442 q 785 188 814 258 q 705 73 757 118 q 580 7 653 28 q 419 -14 507 -14 l 385 -14 q 336 -42 353 -14 q 314 -68 328 -57 q 281 -85 300 -79 q 240 -87 263 -90 q 193 -68 218 -83 q 139 -16 154 -44 q 125 40 124 13 q 108 97 128 76 m 364 563 q 275 494 306 544 q 244 369 244 444 q 249 318 244 343 q 259 301 251 303 q 275 314 267 300 q 313 383 294 344 l 347 454 q 385 538 368 496 q 385 560 392 553 q 364 563 379 567 m 469 196 q 532 219 507 203 q 572 258 557 235 q 592 309 586 281 q 597 369 597 338 q 596 406 597 389 q 590 439 594 424 q 578 455 588 454 q 561 442 569 456 q 537 402 549 422 q 514 360 525 382 l 478 288 q 463 256 469 272 q 449 224 456 239 q 448 201 442 208 q 469 196 454 193 z "},"":{"ha":771,"x_min":28,"x_max":743,"o":"m 507 401 q 493 524 507 465 q 479 642 479 583 q 485 676 479 658 q 506 708 490 693 q 547 733 521 724 q 611 743 572 743 q 677 733 651 743 q 717 708 703 724 q 738 674 732 692 q 743 639 743 656 q 739 586 743 614 q 729 528 735 558 q 719 465 724 497 q 715 401 715 433 l 715 342 q 719 277 715 310 q 729 214 724 244 q 739 156 735 183 q 743 103 743 128 q 738 68 743 86 q 717 35 732 50 q 677 9 703 19 q 611 -1 651 -1 q 549 8 574 -1 q 510 30 525 17 q 488 60 494 43 q 479 93 481 76 q 414 33 451 60 q 326 -6 376 6 q 238 -12 288 -14 q 145 10 189 -10 q 72 67 101 29 q 42 167 42 104 q 49 276 42 224 q 56 393 56 328 l 56 401 q 42 524 56 465 q 28 642 28 583 q 33 676 28 658 q 54 708 39 693 q 95 733 69 724 q 160 743 121 743 q 226 733 200 743 q 266 708 251 724 q 286 674 281 692 q 292 639 292 656 q 288 586 292 614 q 278 528 283 558 q 268 465 272 497 q 264 401 264 433 l 264 393 q 328 189 264 203 q 403 210 357 182 q 492 318 449 239 q 503 348 499 331 q 507 382 507 365 l 507 401 m 513 911 q 497 882 533 882 l 476 882 q 436 890 457 882 q 400 910 415 897 l 261 1032 q 269 1056 233 1056 l 372 1056 q 405 1049 389 1056 q 432 1026 421 1042 l 513 911 z "},"":{"ha":771,"x_min":28,"x_max":743,"o":"m 507 401 q 493 524 507 465 q 479 642 479 583 q 485 676 479 658 q 506 708 490 693 q 547 733 521 724 q 611 743 572 743 q 677 733 651 743 q 717 708 703 724 q 738 674 732 692 q 743 639 743 656 q 739 586 743 614 q 729 528 735 558 q 719 465 724 497 q 715 401 715 433 l 715 342 q 719 277 715 310 q 729 214 724 244 q 739 156 735 183 q 743 103 743 128 q 738 68 743 86 q 717 35 732 50 q 677 9 703 19 q 611 -1 651 -1 q 549 8 574 -1 q 510 30 525 17 q 488 60 494 43 q 479 93 481 76 q 414 33 451 60 q 326 -6 376 6 q 238 -12 288 -14 q 145 10 189 -10 q 72 67 101 29 q 42 167 42 104 q 49 276 42 224 q 56 393 56 328 l 56 401 q 42 524 56 465 q 28 642 28 583 q 33 676 28 658 q 54 708 39 693 q 95 733 69 724 q 160 743 121 743 q 226 733 200 743 q 266 708 251 724 q 286 674 281 692 q 292 639 292 656 q 288 586 292 614 q 278 528 283 558 q 268 465 272 497 q 264 401 264 433 l 264 393 q 328 189 264 203 q 403 210 357 182 q 492 318 449 239 q 503 348 499 331 q 507 382 507 365 l 507 401 m 339 1026 q 366 1049 350 1042 q 399 1056 382 1056 l 501 1056 q 510 1032 538 1056 l 371 910 q 335 890 356 897 q 294 882 314 882 l 274 882 q 258 911 238 882 l 339 1026 z "},"":{"ha":771,"x_min":28,"x_max":743,"o":"m 507 401 q 493 524 507 465 q 479 642 479 583 q 485 676 479 658 q 506 708 490 693 q 547 733 521 724 q 611 743 572 743 q 677 733 651 743 q 717 708 703 724 q 738 674 732 692 q 743 639 743 656 q 739 586 743 614 q 729 528 735 558 q 719 465 724 497 q 715 401 715 433 l 715 342 q 719 277 715 310 q 729 214 724 244 q 739 156 735 183 q 743 103 743 128 q 738 68 743 86 q 717 35 732 50 q 677 9 703 19 q 611 -1 651 -1 q 549 8 574 -1 q 510 30 525 17 q 488 60 494 43 q 479 93 481 76 q 414 33 451 60 q 326 -6 376 6 q 238 -12 288 -14 q 145 10 189 -10 q 72 67 101 29 q 42 167 42 104 q 49 276 42 224 q 56 393 56 328 l 56 401 q 42 524 56 465 q 28 642 28 583 q 33 676 28 658 q 54 708 39 693 q 95 733 69 724 q 160 743 121 743 q 226 733 200 743 q 266 708 251 724 q 286 674 281 692 q 292 639 292 656 q 288 586 292 614 q 278 528 283 558 q 268 465 272 497 q 264 401 264 433 l 264 393 q 328 189 264 203 q 403 210 357 182 q 492 318 449 239 q 503 348 499 331 q 507 382 507 365 l 507 401 m 401 961 q 374 963 388 979 l 335 914 q 308 892 324 900 q 275 885 292 885 l 219 885 q 195 893 203 885 q 200 913 188 901 l 317 1028 q 349 1047 329 1039 q 386 1056 369 1056 q 424 1047 404 1056 q 456 1028 443 1039 l 572 913 q 577 893 585 901 q 553 885 569 885 l 497 885 q 465 893 481 885 q 438 915 449 901 l 401 961 z "},"":{"ha":771,"x_min":28,"x_max":743,"o":"m 507 401 q 493 524 507 465 q 479 642 479 583 q 485 676 479 658 q 506 708 490 693 q 547 733 521 724 q 611 743 572 743 q 677 733 651 743 q 717 708 703 724 q 738 674 732 692 q 743 639 743 656 q 739 586 743 614 q 729 528 735 558 q 719 465 724 497 q 715 401 715 433 l 715 342 q 719 277 715 310 q 729 214 724 244 q 739 156 735 183 q 743 103 743 128 q 738 68 743 86 q 717 35 732 50 q 677 9 703 19 q 611 -1 651 -1 q 549 8 574 -1 q 510 30 525 17 q 488 60 494 43 q 479 93 481 76 q 414 33 451 60 q 326 -6 376 6 q 238 -12 288 -14 q 145 10 189 -10 q 72 67 101 29 q 42 167 42 104 q 49 276 42 224 q 56 393 56 328 l 56 401 q 42 524 56 465 q 28 642 28 583 q 33 676 28 658 q 54 708 39 693 q 95 733 69 724 q 160 743 121 743 q 226 733 200 743 q 266 708 251 724 q 286 674 281 692 q 292 639 292 656 q 288 586 292 614 q 278 528 283 558 q 268 465 272 497 q 264 401 264 433 l 264 393 q 328 189 264 203 q 403 210 357 182 q 492 318 449 239 q 503 348 499 331 q 507 382 507 365 l 507 401 m 207 981 q 228 1038 207 1017 q 289 1058 249 1058 q 349 1038 329 1058 q 369 981 369 1017 q 349 924 369 944 q 289 903 329 903 q 228 924 249 903 q 207 981 207 944 m 401 981 q 422 1038 401 1017 q 483 1058 443 1058 q 544 1038 524 1058 q 564 981 564 1017 q 544 924 564 944 q 483 903 524 903 q 422 924 443 903 q 401 981 401 944 z "},"":{"ha":747,"x_min":-40,"x_max":719,"o":"m 490 315 q 483 383 489 347 q 472 457 478 418 q 460 536 465 496 q 456 619 456 576 q 460 660 456 639 q 479 699 465 681 q 519 728 493 717 q 588 740 544 740 q 656 729 629 740 q 696 701 682 718 q 715 663 710 683 q 719 622 719 642 q 717 521 719 568 q 710 430 714 474 q 704 344 707 386 q 701 257 701 301 l 701 118 q 700 -4 701 56 q 688 -117 699 -64 q 653 -215 678 -169 q 583 -292 629 -260 q 466 -343 538 -325 q 289 -361 394 -361 q 104 -326 185 -361 q -17 -236 24 -292 q -37 -168 -40 -203 q -12 -108 -35 -133 q 46 -76 10 -83 q 125 -89 82 -68 q 238 -128 190 -121 q 331 -136 286 -136 q 408 -119 378 -136 q 458 -73 439 -101 q 485 -9 476 -44 q 494 61 493 26 q 423 24 465 42 q 325 -6 381 6 q 237 -12 286 -14 q 144 10 188 -10 q 72 67 101 29 q 43 167 43 104 q 49 276 43 224 q 54 393 54 328 l 54 401 q 40 524 54 465 q 26 642 26 583 q 32 676 26 658 q 53 708 38 693 q 94 733 68 724 q 158 743 119 743 q 224 733 199 743 q 265 708 250 724 q 285 674 279 692 q 290 639 290 656 q 286 586 290 614 q 276 528 282 558 q 267 465 271 497 q 263 401 263 433 l 263 393 q 326 189 263 203 q 390 195 353 183 q 469 256 428 207 q 490 315 490 281 m 326 1026 q 353 1049 338 1042 q 386 1056 369 1056 l 489 1056 q 497 1032 525 1056 l 358 910 q 322 890 343 897 q 282 882 301 882 l 261 882 q 246 911 225 882 l 326 1026 z "},"":{"ha":851,"x_min":25,"x_max":828,"o":"m 828 394 q 802 207 828 285 q 733 79 776 129 q 635 6 690 29 q 518 -18 579 -18 q 375 2 438 -18 q 267 56 313 22 q 282 -83 272 -14 q 292 -229 292 -151 q 287 -269 292 -249 q 268 -306 282 -289 q 228 -335 254 -324 q 160 -346 203 -346 q 92 -335 118 -346 q 51 -308 65 -325 q 33 -272 38 -292 q 28 -232 28 -251 q 32 -131 28 -178 q 42 -40 36 -83 q 51 47 47 4 q 56 133 56 89 l 56 261 q 51 379 56 306 q 40 533 46 453 q 30 692 35 614 q 25 824 25 769 q 30 863 25 843 q 49 900 35 883 q 89 927 63 917 q 157 938 115 938 q 259 912 226 936 q 292 854 292 888 q 284 776 292 824 q 270 688 276 729 q 265 626 264 647 q 281 625 265 604 q 324 674 297 651 q 383 715 351 697 q 449 742 414 732 q 518 751 485 751 q 607 740 554 751 q 709 690 660 728 q 793 583 758 653 q 828 394 828 513 m 607 368 q 600 436 607 404 q 575 492 593 468 q 526 531 557 517 q 447 546 494 546 q 372 531 406 546 q 314 492 338 517 q 277 435 290 467 q 263 368 264 403 q 278 287 261 322 q 322 228 294 251 q 382 192 349 204 q 447 181 415 181 q 564 223 521 181 q 607 368 607 265 z "},"":{"ha":747,"x_min":-40,"x_max":719,"o":"m 490 315 q 483 383 489 347 q 472 457 478 418 q 460 536 465 496 q 456 619 456 576 q 460 660 456 639 q 479 699 465 681 q 519 728 493 717 q 588 740 544 740 q 656 729 629 740 q 696 701 682 718 q 715 663 710 683 q 719 622 719 642 q 717 521 719 568 q 710 430 714 474 q 704 344 707 386 q 701 257 701 301 l 701 118 q 700 -4 701 56 q 688 -117 699 -64 q 653 -215 678 -169 q 583 -292 629 -260 q 466 -343 538 -325 q 289 -361 394 -361 q 104 -326 185 -361 q -17 -236 24 -292 q -37 -168 -40 -203 q -12 -108 -35 -133 q 46 -76 10 -83 q 125 -89 82 -68 q 238 -128 190 -121 q 331 -136 286 -136 q 408 -119 378 -136 q 458 -73 439 -101 q 485 -9 476 -44 q 494 61 493 26 q 423 24 465 42 q 325 -6 381 6 q 237 -12 286 -14 q 144 10 188 -10 q 72 67 101 29 q 43 167 43 104 q 49 276 43 224 q 54 393 54 328 l 54 401 q 40 524 54 465 q 26 642 26 583 q 32 676 26 658 q 53 708 38 693 q 94 733 68 724 q 158 743 119 743 q 224 733 199 743 q 265 708 250 724 q 285 674 279 692 q 290 639 290 656 q 286 586 290 614 q 276 528 282 558 q 267 465 271 497 q 263 401 263 433 l 263 393 q 326 189 263 203 q 390 195 353 183 q 469 256 428 207 q 490 315 490 281 m 196 981 q 217 1038 196 1017 q 278 1058 238 1058 q 338 1038 318 1058 q 358 981 358 1017 q 338 924 358 944 q 278 903 318 903 q 217 924 238 903 q 196 981 196 944 m 390 981 q 411 1038 390 1017 q 472 1058 432 1058 q 533 1038 513 1058 q 553 981 553 1017 q 533 924 553 944 q 472 903 513 903 q 411 924 432 903 q 390 981 390 944 z "},"":{"ha":888,"x_min":24,"x_max":860,"o":"m 86 421 q 43 458 60 432 q 25 531 26 483 q 41 603 24 576 q 85 640 58 629 q 115 681 118 653 q 101 799 108 739 q 94 925 94 858 q 106 981 94 958 q 138 1017 118 1003 q 185 1036 158 1031 q 242 1042 213 1042 l 422 1042 q 610 1000 529 1042 q 747 888 692 958 q 831 722 803 817 q 860 521 860 628 q 754 135 860 271 q 422 0 649 0 l 240 0 q 184 6 211 0 q 138 25 157 11 q 106 61 118 39 q 94 117 94 83 q 102 252 94 188 q 117 381 110 317 q 86 421 119 408 m 349 394 q 356 323 351 358 q 364 251 360 288 q 393 225 367 225 l 422 225 q 574 303 529 225 q 618 522 618 381 q 610 652 618 593 q 579 754 601 711 q 519 822 557 797 q 422 846 481 846 l 396 846 q 368 819 371 846 q 360 742 365 779 q 351 668 356 704 q 381 640 347 636 q 420 645 400 643 q 467 647 440 647 q 504 641 486 647 q 536 621 522 635 q 558 585 550 607 q 567 531 567 563 q 534 440 565 465 q 464 414 503 414 q 419 417 440 414 q 379 424 399 421 q 356 418 364 426 q 349 394 347 410 z "},"":{"ha":918,"x_min":24,"x_max":894,"o":"m 525 806 q 419 797 476 806 q 315 789 361 789 q 252 806 276 789 q 226 878 228 824 q 249 949 225 931 q 313 967 274 967 q 423 958 369 967 q 525 950 476 950 l 594 950 q 676 958 622 950 q 807 967 729 967 q 870 949 846 967 q 893 878 894 931 q 867 806 892 824 q 804 789 843 789 q 680 797 738 789 q 594 806 622 806 l 525 806 m 582 694 q 567 819 575 757 q 560 953 560 882 q 565 992 560 972 q 583 1030 569 1013 q 623 1058 597 1047 q 692 1069 649 1069 q 760 1059 733 1069 q 800 1032 786 1049 q 819 995 814 1015 q 824 956 824 975 q 819 854 824 901 q 810 763 815 807 q 800 677 804 719 q 796 590 796 635 l 796 479 q 800 392 796 435 q 810 306 804 350 q 819 215 815 263 q 824 114 824 168 q 819 74 824 94 q 800 38 814 54 q 760 10 786 21 q 692 0 733 0 q 599 24 626 1 q 564 78 571 47 q 463 12 521 38 q 333 -14 406 -14 q 244 -2 297 -14 q 142 47 192 10 q 58 155 93 85 q 24 343 24 225 q 49 531 24 453 q 118 658 75 608 q 217 732 161 708 q 333 756 274 756 q 463 737 406 756 q 564 686 519 718 q 582 694 585 672 m 244 369 q 251 301 244 333 q 276 245 258 269 q 326 206 294 221 q 404 192 357 192 q 539 235 489 192 q 592 369 589 279 q 576 453 593 415 q 531 517 558 490 q 469 557 503 543 q 404 571 436 571 q 287 522 329 571 q 244 369 244 474 z "},"":{"ha":325,"x_min":33,"x_max":297,"o":"m 61 401 q 57 466 61 433 q 47 529 53 499 q 38 588 42 560 q 33 640 33 615 q 39 675 33 657 q 59 708 44 693 q 99 734 74 724 q 165 744 125 744 q 231 735 206 744 q 271 710 256 725 q 292 676 286 694 q 297 642 297 658 q 283 526 297 585 q 269 401 269 467 l 269 342 q 283 219 269 278 q 297 101 297 160 q 292 67 297 85 q 271 35 286 50 q 231 10 256 19 q 165 0 206 0 q 99 10 125 0 q 59 35 74 19 q 39 69 44 51 q 33 104 33 88 q 38 157 33 129 q 47 215 42 185 q 57 278 53 246 q 61 342 61 310 l 61 401 z "},"":{"ha":839,"x_min":15,"x_max":810,"o":"m 440 451 q 447 365 442 407 q 457 279 451 324 q 486 250 460 253 l 511 250 l 511 250 q 580 254 556 250 q 620 264 604 258 q 652 274 636 269 q 696 278 668 278 q 735 272 715 278 q 772 251 756 267 q 799 208 789 235 q 810 139 810 181 q 799 69 810 96 q 770 26 788 42 q 733 6 753 11 q 693 0 713 0 q 656 4 671 0 q 624 14 642 8 q 581 24 607 19 q 511 28 556 28 l 511 28 q 456 25 478 28 q 418 19 433 22 q 329 0 386 0 q 231 27 271 0 q 190 117 190 54 q 194 203 190 161 q 201 285 197 244 q 176 300 206 315 q 106 285 140 281 q 44 332 72 290 q 28 412 15 376 q 81 472 40 447 q 133 503 107 489 q 188 531 160 517 q 210 551 201 538 q 218 579 218 564 q 203 748 215 664 q 190 925 190 832 q 196 965 190 944 q 217 1002 201 985 q 259 1031 232 1019 q 329 1042 286 1042 q 398 1031 371 1042 q 441 1004 425 1021 q 463 967 457 988 q 468 928 468 947 q 463 820 468 869 q 451 724 458 771 q 455 705 449 708 q 474 711 461 701 q 594 794 524 749 q 672 817 635 819 q 736 768 708 814 q 750 686 764 721 q 696 626 736 651 q 627 585 661 604 q 563 551 593 567 q 508 524 532 536 q 469 503 483 511 l 469 503 q 448 481 456 494 q 440 451 440 467 z "},"":{"ha":679,"x_min":8,"x_max":672,"o":"m 229 590 q 225 678 229 635 q 215 767 221 722 q 206 858 210 813 q 201 953 201 904 q 206 992 201 972 q 226 1030 211 1013 q 266 1058 240 1047 q 335 1069 292 1069 q 403 1059 376 1069 q 444 1032 429 1049 q 463 995 458 1015 q 468 956 468 975 q 463 843 468 894 q 451 743 458 792 q 456 724 449 728 q 474 731 463 721 q 488 742 481 736 q 503 754 496 747 q 573 781 538 782 q 640 736 608 779 q 664 658 672 692 q 621 596 656 624 q 541 540 581 565 q 469 494 501 514 q 448 472 456 486 q 442 443 440 458 q 447 366 443 404 q 456 288 451 328 q 465 206 461 249 q 468 114 468 163 q 463 74 468 94 q 444 38 458 54 q 403 10 429 21 q 335 0 376 0 q 266 11 292 0 q 226 40 240 22 q 206 77 211 57 q 201 117 201 97 q 203 185 201 153 q 208 249 206 218 q 186 260 211 278 q 184 258 185 258 q 182 257 183 258 q 111 231 147 229 q 42 274 75 232 q 16 350 8 315 q 58 411 24 385 q 131 461 94 439 q 201 506 167 483 q 229 557 229 524 l 229 590 z "},"":{"ha":1313,"x_min":28,"x_max":1283,"o":"m 28 521 q 56 722 28 628 q 139 888 83 817 q 276 1000 194 958 q 467 1042 358 1042 l 550 1042 q 580 1041 561 1042 q 617 1039 599 1040 q 653 1035 636 1038 q 676 1031 669 1033 q 708 1024 688 1028 q 753 1019 728 1021 q 806 1015 778 1017 q 860 1014 833 1014 l 971 1014 q 1042 1018 1015 1014 q 1087 1028 1068 1022 q 1124 1038 1106 1033 q 1169 1042 1142 1042 q 1209 1038 1189 1042 q 1246 1022 1229 1035 q 1273 983 1263 1008 q 1283 917 1283 958 q 1272 849 1283 874 q 1244 811 1261 824 q 1206 795 1226 799 q 1167 792 1186 792 q 1128 796 1144 792 q 1091 806 1111 800 q 1043 815 1071 811 q 971 819 1015 819 l 971 819 q 950 819 960 819 q 932 818 940 818 q 903 790 906 815 q 897 728 900 758 q 890 667 893 697 q 914 639 888 639 l 929 639 l 929 639 q 1000 643 974 639 q 1045 653 1026 647 q 1082 663 1064 658 q 1128 667 1100 667 q 1167 662 1147 667 q 1204 643 1188 657 q 1231 603 1221 629 q 1242 535 1242 576 q 1231 466 1242 492 q 1202 426 1219 440 q 1165 408 1185 413 q 1125 403 1144 403 q 1086 407 1103 403 q 1049 417 1069 411 q 1001 426 1029 422 q 929 431 974 431 l 929 431 l 911 431 q 892 423 900 431 q 886 403 885 415 q 892 342 889 372 q 900 281 896 313 q 929 251 903 254 q 947 250 938 250 q 968 250 957 250 l 968 250 q 1039 254 1013 250 q 1084 264 1065 258 q 1121 274 1103 269 q 1167 278 1139 278 q 1206 272 1186 278 q 1243 251 1226 267 q 1270 208 1260 235 q 1281 139 1281 181 q 1269 69 1281 96 q 1241 26 1258 42 q 1203 6 1224 11 q 1164 0 1183 0 q 1125 4 1142 0 q 1088 14 1108 8 q 1040 24 1068 19 q 968 28 1013 28 l 857 28 q 808 27 836 28 q 753 24 781 26 q 705 20 726 22 q 674 15 683 18 q 624 4 658 8 q 564 0 590 0 l 467 0 q 134 135 240 0 q 28 521 28 271 m 271 522 q 281 394 271 451 q 315 296 292 336 q 376 233 339 256 q 467 211 413 211 q 609 281 564 211 q 661 471 654 350 l 661 479 l 661 563 l 661 586 q 647 695 658 644 q 613 782 636 746 q 555 839 590 818 q 467 860 519 860 q 370 833 408 860 q 310 761 332 807 q 279 654 288 715 q 271 522 271 593 z "},"":{"ha":1394,"x_min":24,"x_max":1376,"o":"m 24 357 q 53 519 24 446 q 135 644 82 592 q 260 726 188 697 q 419 756 333 756 q 578 726 506 756 q 703 644 650 697 q 785 519 756 592 q 814 357 814 446 q 785 188 814 258 q 705 73 757 118 q 580 7 653 28 q 419 -14 507 -14 q 259 7 332 -14 q 134 73 186 28 q 53 188 82 118 q 24 357 24 258 m 244 369 q 252 301 244 333 q 280 245 260 269 q 334 206 300 221 q 421 192 368 192 q 508 206 474 192 q 562 245 542 221 q 590 301 582 269 q 597 369 597 333 q 551 517 597 463 q 421 571 506 571 q 290 517 336 571 q 244 369 244 463 m 939 232 q 927 224 928 229 q 936 213 926 218 q 1029 192 972 192 q 1117 214 1082 192 q 1190 269 1151 236 q 1268 292 1228 301 q 1336 252 1308 283 q 1370 178 1364 221 q 1344 100 1376 136 q 1285 53 1322 75 q 1205 17 1249 32 q 1115 -6 1161 3 q 1028 -14 1069 -14 q 874 7 944 -14 q 751 73 803 28 q 669 188 699 118 q 639 357 639 258 q 672 519 639 446 q 760 644 704 592 q 893 726 817 697 q 1056 756 969 756 q 1176 734 1124 756 q 1263 678 1229 713 q 1312 599 1297 643 q 1319 508 1326 554 q 1279 417 1311 461 q 1190 338 1247 372 q 1069 276 1133 303 q 939 232 1006 250 m 863 408 q 882 392 860 385 q 962 421 919 404 q 1053 461 1004 438 q 1084 490 1075 472 q 1091 526 1093 508 q 1076 558 1089 544 q 1043 571 1064 571 q 921 528 968 571 q 863 408 874 485 z "},"":{"ha":796,"x_min":29,"x_max":765,"o":"m 303 806 q 316 765 303 782 q 352 734 329 749 q 407 704 375 719 q 478 669 439 689 q 578 614 528 644 q 671 542 629 583 q 739 444 713 500 q 765 313 765 388 q 745 174 765 235 q 682 71 725 113 q 570 8 639 29 q 403 -14 501 -14 q 302 -2 351 -14 q 210 30 253 10 q 131 77 167 50 q 68 135 94 104 q 34 203 39 169 q 41 265 29 238 q 78 313 53 293 q 134 338 104 332 q 195 335 164 344 q 250 296 226 325 q 278 267 261 282 q 316 242 296 253 q 358 223 336 231 q 403 215 381 215 q 490 232 458 215 q 522 297 522 249 q 478 376 522 342 q 369 444 433 411 q 248 513 303 479 q 154 585 193 546 q 94 674 115 625 q 74 790 74 724 q 101 907 74 857 q 174 990 128 957 q 281 1039 219 1022 q 408 1056 342 1056 q 497 1048 458 1056 q 567 1028 535 1040 q 626 1000 599 1015 q 678 968 653 985 q 725 920 711 947 q 738 866 739 893 q 724 816 738 839 q 690 778 711 793 q 644 763 669 764 q 593 778 618 761 q 553 805 574 790 q 508 832 532 819 q 456 852 483 844 q 394 860 428 860 q 321 843 339 860 q 303 806 303 826 m 450 1303 q 477 1325 461 1317 q 510 1333 493 1333 l 565 1333 q 590 1325 582 1333 q 585 1306 597 1317 l 468 1190 q 436 1171 456 1179 q 399 1163 417 1163 q 362 1171 382 1163 q 329 1190 342 1179 l 213 1306 q 208 1325 200 1317 q 232 1333 215 1333 l 288 1333 q 320 1326 304 1333 q 347 1304 336 1318 l 386 1256 q 414 1257 400 1239 l 450 1303 z "},"":{"ha":726,"x_min":22,"x_max":701,"o":"m 292 544 q 308 522 292 532 q 348 503 324 511 q 401 487 372 494 q 458 471 431 479 q 544 440 500 458 q 622 394 588 422 q 679 327 657 367 q 701 232 701 288 q 667 106 701 154 q 587 31 633 57 q 491 -5 540 4 q 411 -14 442 -14 q 322 -9 369 -14 q 228 10 275 -4 q 135 49 181 24 q 51 114 90 74 q 26 165 31 138 q 31 217 22 192 q 60 265 40 243 q 103 299 79 288 q 155 307 128 310 q 206 283 182 304 q 274 233 242 251 q 332 206 306 215 q 378 194 358 196 q 410 192 399 192 q 426 192 415 192 q 449 197 438 193 q 468 208 460 200 q 476 231 476 215 q 439 279 476 261 q 328 321 401 297 q 213 365 261 343 q 131 413 164 386 q 83 472 99 439 q 68 551 68 506 q 84 625 68 589 q 135 690 100 661 q 226 738 171 719 q 361 756 282 756 q 438 749 399 756 q 512 731 476 742 q 576 709 547 721 q 624 689 606 697 q 683 629 671 665 q 681 564 694 593 q 632 522 667 535 q 553 529 597 508 q 449 565 500 554 q 374 575 399 575 q 318 570 344 575 q 292 544 292 565 m 415 1025 q 442 1047 426 1039 q 475 1056 458 1056 l 531 1056 q 555 1047 547 1056 q 550 1028 563 1039 l 433 913 q 401 893 421 901 q 364 885 382 885 q 327 893 347 885 q 294 913 307 901 l 178 1028 q 173 1047 165 1039 q 197 1056 181 1056 l 253 1056 q 285 1048 269 1056 q 313 1026 301 1040 l 351 978 q 379 979 365 961 l 415 1025 z "}}}
